SplineFontDB: 3.2
FontName: notosansoriya
FullName: notosansoriya
FamilyName: notosansoriya
Weight: Book
Copyright: Copyright 2022 The Noto Project Authors (https://github.com/notofonts/oriya)
Version: 2.006
ItalicAngle: 0
UnderlinePosition: -125
UnderlineWidth: 50
Ascent: 800
Descent: 200
InvalidEm: 0
sfntRevision: 0x00020189
LayerCount: 2
Layer: 0 1 "Back" 1
Layer: 1 1 "Fore" 0
XUID: [1021 238 -758118090 3906427]
StyleMap: 0x0040
FSType: 0
OS2Version: 4
OS2_WeightWidthSlopeOnly: 0
OS2_UseTypoMetrics: 1
CreationTime: 1573797574
ModificationTime: 1738533302
PfmFamily: 17
TTFWeight: 400
TTFWidth: 5
LineGap: 0
VLineGap: 0
Panose: 2 11 5 2 4 5 4 2 2 4
OS2TypoAscent: 1069
OS2TypoAOffset: 0
OS2TypoDescent: -293
OS2TypoDOffset: 0
OS2TypoLinegap: 0
OS2WinAscent: 1069
OS2WinAOffset: 0
OS2WinDescent: 293
OS2WinDOffset: 0
HheadAscent: 1069
HheadAOffset: 0
HheadDescent: -293
HheadDOffset: 0
OS2SubXSize: 650
OS2SubYSize: 600
OS2SubXOff: 0
OS2SubYOff: 75
OS2SupXSize: 650
OS2SupYSize: 600
OS2SupXOff: 0
OS2SupYOff: 350
OS2StrikeYSize: 50
OS2StrikeYPos: 395
OS2CapHeight: 714
OS2XHeight: 658
OS2Vendor: 'GOOG'
OS2CodePages: 00000001.00000000
OS2UnicodeRanges: 00080000.00000000.00000000.00000000
Lookup: 1 0 0 "'aalt' Access All Alternates lookup 0" { "'aalt' Access All Alternates lookup 0 subtable"  } ['aalt' ('DFLT' <'dflt' > 'cyrl' <'dflt' > 'grek' <'dflt' > 'latn' <'APPH' 'CAT ' 'IPPH' 'MAH ' 'MOL ' 'NAV ' 'ROM ' 'dflt' > 'ory2' <'dflt' > ) ]
Lookup: 3 0 0 "'aalt' Access All Alternates lookup 1" { "'aalt' Access All Alternates lookup 1 subtable"  } ['aalt' ('DFLT' <'dflt' > 'cyrl' <'dflt' > 'grek' <'dflt' > 'latn' <'APPH' 'CAT ' 'IPPH' 'MAH ' 'MOL ' 'NAV ' 'ROM ' 'dflt' > 'ory2' <'dflt' > ) ]
Lookup: 4 0 0 "'akhn' Akhand in Oriya2 lookup 2" { "'akhn' Akhand in Oriya2 lookup 2 subtable"  } ['akhn' ('ory2' <'dflt' > ) ]
Lookup: 4 0 0 "'nukt' Nukta Forms in Oriya2 lookup 3" { "'nukt' Nukta Forms in Oriya2 lookup 3 subtable"  } ['nukt' ('ory2' <'dflt' > ) ]

StartChar: .notdef
Encoding: 65536 -1 0
Width: 1229
Flags: W
LayerCount: 2
Fore
SplineSet
819 714 m 1,0,-1
 819 0 l 1,1,-1
 408 0 l 1,2,-1
 408 714 l 1,3,-1
 819 714 l 1,0,-1
768 51 m 1,4,-1
 768 663 l 1,5,-1
 459 663 l 1,6,-1
 459 51 l 1,7,-1
 768 51 l 1,4,-1
EndSplineSet
EndChar

StartChar: uni0B01
Encoding: 2817 2817 5
Width: 0
GlyphClass: 4
Flags: W
AnchorPoint: "Anchor-13" 400 658 mark 0
AnchorPoint: "Anchor-1" 400 658 mark 0
LayerCount: 2
Fore
SplineSet
399 695 m 1,0,1
 320 695 320 695 268.5 744.5 c 128,-1,2
 217 794 217 794 207 888 c 1,3,-1
 270 895 l 1,4,5
 277 823 277 823 310.5 785.5 c 128,-1,6
 344 748 344 748 399 748 c 0,7,8
 455 748 455 748 489 785.5 c 128,-1,9
 523 823 523 823 530 895 c 1,10,-1
 593 888 l 1,11,12
 583 794 583 794 531.5 744.5 c 128,-1,13
 480 695 480 695 399 695 c 1,14,-1
 399 695 l 1,0,1
399 813 m 1,15,16
 381 813 381 813 370 824 c 128,-1,17
 359 835 359 835 359 854 c 256,18,19
 359 873 359 873 370.5 883.5 c 128,-1,20
 382 894 382 894 399 894 c 0,21,22
 417 894 417 894 428 883.5 c 128,-1,23
 439 873 439 873 439 854 c 256,24,25
 439 835 439 835 428 824 c 128,-1,26
 417 813 417 813 399 813 c 1,27,-1
 399 813 l 1,15,16
EndSplineSet
Substitution2: "'rclt' Required Contextual Alternates lookup 150 subtable" uni0B01.BRACKET.varAlt01
EndChar

StartChar: uni0B02
Encoding: 2818 2818 6
Width: 304
Flags: W
LayerCount: 2
Fore
SplineSet
152 405 m 1,0,1
 93 405 93 405 54.5 440.5 c 128,-1,2
 16 476 16 476 16 536 c 0,3,4
 16 593 16 593 53.5 629.5 c 128,-1,5
 91 666 91 666 152 666 c 0,6,7
 211 666 211 666 249.5 629.5 c 128,-1,8
 288 593 288 593 288 534 c 0,9,10
 288 476 288 476 250.5 440.5 c 128,-1,11
 213 405 213 405 152 405 c 1,12,-1
 152 405 l 1,0,1
152 611 m 1,13,14
 117 611 117 611 96.5 589 c 128,-1,15
 76 567 76 567 76 535 c 0,16,17
 76 501 76 501 98 481 c 128,-1,18
 120 461 120 461 152 461 c 0,19,20
 185 461 185 461 206.5 482 c 128,-1,21
 228 503 228 503 228 535 c 0,22,23
 228 569 228 569 206.5 590 c 128,-1,24
 185 611 185 611 152 611 c 1,25,-1
 152 611 l 1,13,14
EndSplineSet
EndChar

StartChar: uni0B03
Encoding: 2819 2819 7
Width: 451
Flags: W
LayerCount: 2
Fore
SplineSet
225 600 m 1,0,1
 171 600 171 600 144.5 573 c 128,-1,2
 118 546 118 546 118 505 c 0,3,4
 118 466 118 466 139.5 437 c 128,-1,5
 161 408 161 408 195 384.5 c 128,-1,6
 229 361 229 361 266.5 338 c 128,-1,7
 304 315 304 315 338 289 c 128,-1,8
 372 263 372 263 393.5 228.5 c 128,-1,9
 415 194 415 194 415 147 c 0,10,11
 415 101 415 101 392.5 66 c 128,-1,12
 370 31 370 31 327.5 11 c 128,-1,13
 285 -9 285 -9 225 -9 c 0,14,15
 167 -9 167 -9 124.5 10.5 c 128,-1,16
 82 30 82 30 59 65 c 128,-1,17
 36 100 36 100 36 146 c 0,18,19
 36 193 36 193 57.5 227 c 128,-1,20
 79 261 79 261 113 287.5 c 128,-1,21
 147 314 147 314 185 336.5 c 128,-1,22
 223 359 223 359 257 382.5 c 128,-1,23
 291 406 291 406 312.5 435.5 c 128,-1,24
 334 465 334 465 334 504 c 0,25,26
 334 547 334 547 306.5 573.5 c 128,-1,27
 279 600 279 600 225 600 c 1,28,-1
 225 600 l 1,0,1
227 666 m 1,29,30
 284 666 284 666 325.5 646.5 c 128,-1,31
 367 627 367 627 390 591.5 c 128,-1,32
 413 556 413 556 413 509 c 0,33,34
 413 461 413 461 391.5 426.5 c 128,-1,35
 370 392 370 392 336 365.5 c 128,-1,36
 302 339 302 339 264.5 317 c 128,-1,37
 227 295 227 295 193 272 c 128,-1,38
 159 249 159 249 137.5 221 c 128,-1,39
 116 193 116 193 116 155 c 0,40,41
 116 124 116 124 131 102 c 128,-1,42
 146 80 146 80 171.5 68.5 c 128,-1,43
 197 57 197 57 227 57 c 0,44,45
 258 57 258 57 282.5 68.5 c 128,-1,46
 307 80 307 80 321.5 101.5 c 128,-1,47
 336 123 336 123 336 154 c 0,48,49
 336 193 336 193 314.5 221 c 128,-1,50
 293 249 293 249 259 272.5 c 128,-1,51
 225 296 225 296 187 318.5 c 128,-1,52
 149 341 149 341 115 367 c 128,-1,53
 81 393 81 393 59.5 427 c 128,-1,54
 38 461 38 461 38 508 c 0,55,56
 38 554 38 554 60.5 589.5 c 128,-1,57
 83 625 83 625 125.5 645.5 c 128,-1,58
 168 666 168 666 227 666 c 1,59,-1
 227 666 l 1,29,30
EndSplineSet
EndChar

StartChar: uni0B05
Encoding: 2821 2821 8
Width: 694
GlyphClass: 2
Flags: W
AnchorPoint: "Anchor-5" 329 -158 basechar 0
AnchorPoint: "Anchor-3" 458 -3 basechar 0
AnchorPoint: "Anchor-1" 593 658 basechar 0
LayerCount: 2
Fore
SplineSet
264 -8 m 1,0,1
 193 -8 193 -8 141.5 14.5 c 128,-1,2
 90 37 90 37 63 78 c 128,-1,3
 36 119 36 119 36 177 c 0,4,5
 36 227 36 227 55 260 c 128,-1,6
 74 293 74 293 104 313.5 c 128,-1,7
 134 334 134 334 168.5 346.5 c 128,-1,8
 203 359 203 359 235 369 c 2,9,-1
 258 376 l 2,10,11
 282 383 282 383 306.5 393 c 128,-1,12
 331 403 331 403 352 419 c 128,-1,13
 373 435 373 435 386 460.5 c 128,-1,14
 399 486 399 486 399 524 c 0,15,16
 399 560 399 560 384 579.5 c 128,-1,17
 369 599 369 599 341 599 c 0,18,19
 314 599 314 599 299.5 580 c 128,-1,20
 285 561 285 561 285 529 c 2,21,-1
 285 463 l 1,22,-1
 215 463 l 1,23,-1
 215 530 l 2,24,25
 215 562 215 562 200.5 580.5 c 128,-1,26
 186 599 186 599 158 599 c 0,27,28
 131 599 131 599 116 581.5 c 128,-1,29
 101 564 101 564 101 533 c 0,30,31
 101 519 101 519 105 501.5 c 128,-1,32
 109 484 109 484 118 464 c 1,33,-1
 50 446 l 1,34,35
 38 471 38 471 32.5 496.5 c 128,-1,36
 27 522 27 522 27 544 c 0,37,38
 27 600 27 600 58.5 633 c 128,-1,39
 90 666 90 666 145 666 c 0,40,41
 204 666 204 666 235 629.5 c 128,-1,42
 266 593 266 593 266 534 c 1,43,-1
 235 534 l 1,44,45
 235 575 235 575 249 604.5 c 128,-1,46
 263 634 263 634 289.5 650 c 128,-1,47
 316 666 316 666 351 666 c 0,48,49
 388 666 388 666 415.5 649 c 128,-1,50
 443 632 443 632 458 599.5 c 128,-1,51
 473 567 473 567 473 521 c 0,52,53
 473 466 473 466 454 429.5 c 128,-1,54
 435 393 435 393 405.5 370.5 c 128,-1,55
 376 348 376 348 344.5 335.5 c 128,-1,56
 313 323 313 323 288 315 c 2,57,-1
 268 309 l 2,58,59
 217 292 217 292 183.5 276.5 c 128,-1,60
 150 261 150 261 133 239 c 128,-1,61
 116 217 116 217 116 181 c 0,62,63
 116 128 116 128 155 96.5 c 128,-1,64
 194 65 194 65 263 65 c 0,65,66
 318 65 318 65 375.5 84 c 128,-1,67
 433 103 433 103 487.5 142.5 c 128,-1,68
 542 182 542 182 584 242 c 1,69,-1
 589 146 l 1,70,71
 551 97 551 97 498.5 62.5 c 128,-1,72
 446 28 446 28 386 10 c 128,-1,73
 326 -8 326 -8 264 -8 c 1,74,-1
 264 -8 l 1,0,1
558 143 m 1,75,-1
 554 175 l 1,76,-1
 554 658 l 1,77,-1
 632 658 l 1,78,-1
 632 0 l 1,79,-1
 554 0 l 1,80,-1
 558 143 l 1,75,-1
EndSplineSet
Substitution2: "'rclt' Required Contextual Alternates lookup 150 subtable" uni0B05.BRACKET.varAlt01
EndChar

StartChar: uni0B07
Encoding: 2823 2823 10
Width: 796
GlyphClass: 2
Flags: W
AnchorPoint: "Anchor-5" 405 -159 basechar 0
AnchorPoint: "Anchor-1" 661 658 basechar 0
LayerCount: 2
Fore
SplineSet
595 154 m 1,0,1
 639 196 639 196 658 244 c 128,-1,2
 677 292 677 292 677 342 c 0,3,4
 677 406 677 406 651 453.5 c 128,-1,5
 625 501 625 501 581 532 c 128,-1,6
 537 563 537 563 483.5 578 c 128,-1,7
 430 593 430 593 375 593 c 0,8,9
 324 593 324 593 276 580 c 128,-1,10
 228 567 228 567 190.5 542 c 128,-1,11
 153 517 153 517 130.5 480 c 128,-1,12
 108 443 108 443 108 394 c 0,13,14
 108 354 108 354 125 319.5 c 128,-1,15
 142 285 142 285 176 257 c 1,16,-1
 151 199 l 1,17,18
 88 243 88 243 60 295 c 128,-1,19
 32 347 32 347 32 405 c 0,20,21
 32 469 32 469 61 518 c 128,-1,22
 90 567 90 567 139.5 600 c 128,-1,23
 189 633 189 633 251 649.5 c 128,-1,24
 313 666 313 666 379 666 c 0,25,26
 448 666 448 666 515 647 c 128,-1,27
 582 628 582 628 636.5 589.5 c 128,-1,28
 691 551 691 551 723.5 494 c 128,-1,29
 756 437 756 437 756 360 c 0,30,31
 756 298 756 298 730.5 237.5 c 128,-1,32
 705 177 705 177 649 123 c 1,33,-1
 664 184 l 1,34,-1
 778 39 l 1,35,-1
 714 -9 l 1,36,-1
 595 154 l 1,37,-1
 595 154 l 1,0,1
234 -8 m 1,38,39
 177 -8 177 -8 143 36.5 c 128,-1,40
 109 81 109 81 109 162 c 0,41,42
 109 246 109 246 143 290.5 c 128,-1,43
 177 335 177 335 234 335 c 256,44,45
 291 335 291 335 320.5 289.5 c 128,-1,46
 350 244 350 244 350 164 c 256,47,48
 350 84 350 84 320.5 38 c 128,-1,49
 291 -8 291 -8 234 -8 c 1,50,-1
 234 -8 l 1,38,39
235 56 m 1,51,52
 266 56 266 56 282.5 83.5 c 128,-1,53
 299 111 299 111 299 164 c 256,54,55
 299 217 299 217 283 244 c 128,-1,56
 267 271 267 271 235 271 c 0,57,58
 204 271 204 271 187.5 244 c 128,-1,59
 171 217 171 217 171 164 c 0,60,61
 171 112 171 112 188 84 c 128,-1,62
 205 56 205 56 235 56 c 1,63,-1
 235 56 l 1,51,52
433 -8 m 1,64,65
 377 -8 377 -8 344.5 38 c 128,-1,66
 312 84 312 84 312 164 c 0,67,68
 312 245 312 245 344.5 290 c 128,-1,69
 377 335 377 335 433 335 c 0,70,71
 490 335 490 335 522 290.5 c 128,-1,72
 554 246 554 246 554 163 c 0,73,74
 554 82 554 82 521.5 37 c 128,-1,75
 489 -8 489 -8 433 -8 c 1,76,-1
 433 -8 l 1,64,65
430 56 m 1,77,78
 460 56 460 56 476.5 84 c 128,-1,79
 493 112 493 112 493 164 c 256,80,81
 493 216 493 216 477.5 243.5 c 128,-1,82
 462 271 462 271 430 271 c 0,83,84
 399 271 399 271 382 244 c 128,-1,85
 365 217 365 217 365 164 c 256,86,87
 365 111 365 111 382 83.5 c 128,-1,88
 399 56 399 56 430 56 c 1,89,-1
 430 56 l 1,77,78
EndSplineSet
Substitution2: "'rclt' Required Contextual Alternates lookup 150 subtable" uni0B07.BRACKET.varAlt01
EndChar

StartChar: uni0B08
Encoding: 2824 2824 11
Width: 796
GlyphClass: 2
Flags: W
AnchorPoint: "Anchor-5" 405 -158 basechar 0
AnchorPoint: "Anchor-1" 665 658 basechar 0
LayerCount: 2
Fore
SplineSet
595 154 m 1,0,1
 639 195 639 195 660 245.5 c 128,-1,2
 681 296 681 296 681 354 c 0,3,4
 681 429 681 429 648 483.5 c 128,-1,5
 615 538 615 538 560 567.5 c 128,-1,6
 505 597 505 597 439 597 c 0,7,8
 379 597 379 597 330 569.5 c 128,-1,9
 281 542 281 542 255 486 c 1,10,-1
 167 441 l 1,11,12
 177 500 177 500 203.5 542.5 c 128,-1,13
 230 585 230 585 268.5 612.5 c 128,-1,14
 307 640 307 640 353.5 653 c 128,-1,15
 400 666 400 666 449 666 c 0,16,17
 512 666 512 666 568 646 c 128,-1,18
 624 626 624 626 667 587.5 c 128,-1,19
 710 549 710 549 735 494 c 128,-1,20
 760 439 760 439 760 368 c 0,21,22
 760 301 760 301 733.5 238.5 c 128,-1,23
 707 176 707 176 650 123 c 1,24,-1
 664 184 l 1,25,-1
 778 38 l 1,26,-1
 714 -8 l 1,27,-1
 595 154 l 1,28,-1
 595 154 l 1,0,1
234 -8 m 1,29,30
 177 -8 177 -8 143 36.5 c 128,-1,31
 109 81 109 81 109 160 c 0,32,33
 109 243 109 243 143 287 c 128,-1,34
 177 331 177 331 234 331 c 256,35,36
 291 331 291 331 320.5 286 c 128,-1,37
 350 241 350 241 350 162 c 256,38,39
 350 83 350 83 320.5 37.5 c 128,-1,40
 291 -8 291 -8 234 -8 c 1,41,-1
 234 -8 l 1,29,30
235 54 m 1,42,43
 266 54 266 54 282.5 82 c 128,-1,44
 299 110 299 110 299 163 c 0,45,46
 299 215 299 215 283 242.5 c 128,-1,47
 267 270 267 270 235 270 c 0,48,49
 204 270 204 270 187.5 242.5 c 128,-1,50
 171 215 171 215 171 163 c 0,51,52
 171 110 171 110 188 82 c 128,-1,53
 205 54 205 54 235 54 c 1,54,-1
 235 54 l 1,42,43
433 -8 m 1,55,56
 396 -8 396 -8 368.5 12.5 c 128,-1,57
 341 33 341 33 326.5 71.5 c 128,-1,58
 312 110 312 110 312 162 c 0,59,60
 312 242 312 242 344.5 286.5 c 128,-1,61
 377 331 377 331 433 331 c 0,62,63
 490 331 490 331 522 286.5 c 128,-1,64
 554 242 554 242 554 162 c 256,65,66
 554 82 554 82 521.5 37 c 128,-1,67
 489 -8 489 -8 433 -8 c 1,68,-1
 433 -8 l 1,55,56
430 54 m 1,69,70
 460 54 460 54 476.5 82 c 128,-1,71
 493 110 493 110 493 163 c 0,72,73
 493 214 493 214 477.5 242 c 128,-1,74
 462 270 462 270 430 270 c 0,75,76
 399 270 399 270 382 243 c 128,-1,77
 365 216 365 216 365 163 c 256,78,79
 365 110 365 110 382 82 c 128,-1,80
 399 54 399 54 430 54 c 1,81,-1
 430 54 l 1,69,70
144 177 m 1,82,83
 87 204 87 204 59.5 247.5 c 128,-1,84
 32 291 32 291 32 340 c 0,85,86
 32 394 32 394 61 433 c 128,-1,87
 90 472 90 472 137.5 493 c 128,-1,88
 185 514 185 514 241 514 c 0,89,90
 291 514 291 514 340 496.5 c 128,-1,91
 389 479 389 479 424 443 c 1,92,-1
 381 390 l 1,93,94
 355 419 355 419 319 432 c 128,-1,95
 283 445 283 445 247 445 c 0,96,97
 210 445 210 445 178 431.5 c 128,-1,98
 146 418 146 418 126.5 392.5 c 128,-1,99
 107 367 107 367 107 332 c 0,100,101
 107 301 107 301 122.5 273 c 128,-1,102
 138 245 138 245 168 226 c 1,103,-1
 144 177 l 1,104,-1
 144 177 l 1,82,83
EndSplineSet
Substitution2: "'rclt' Required Contextual Alternates lookup 150 subtable" uni0B08.BRACKET.varAlt01
EndChar

StartChar: uni0B09
Encoding: 2825 2825 12
Width: 779
GlyphClass: 2
Flags: W
AnchorPoint: "Anchor-5" 396 -159 basechar 0
AnchorPoint: "Anchor-1" 655 658 basechar 0
LayerCount: 2
Fore
SplineSet
375 593 m 1,0,1
 324 593 324 593 276.5 580 c 128,-1,2
 229 567 229 567 191 542 c 128,-1,3
 153 517 153 517 130.5 479.5 c 128,-1,4
 108 442 108 442 108 393 c 0,5,6
 108 351 108 351 128.5 313.5 c 128,-1,7
 149 276 149 276 188 248 c 1,8,-1
 160 192 l 1,9,10
 93 236 93 236 62.5 289.5 c 128,-1,11
 32 343 32 343 32 404 c 0,12,13
 32 469 32 469 61 517.5 c 128,-1,14
 90 566 90 566 139.5 599.5 c 128,-1,15
 189 633 189 633 251 649.5 c 128,-1,16
 313 666 313 666 379 666 c 0,17,18
 457 666 457 666 524 643.5 c 128,-1,19
 591 621 591 621 642 580.5 c 128,-1,20
 693 540 693 540 721.5 484 c 128,-1,21
 750 428 750 428 750 362 c 0,22,23
 750 303 750 303 720.5 240 c 128,-1,24
 691 177 691 177 632 124 c 1,25,-1
 647 184 l 1,26,-1
 761 39 l 1,27,-1
 697 -9 l 1,28,-1
 578 154 l 1,29,30
 627 198 627 198 649 248 c 128,-1,31
 671 298 671 298 671 347 c 0,32,33
 671 401 671 401 648 446.5 c 128,-1,34
 625 492 625 492 584 524.5 c 128,-1,35
 543 557 543 557 489.5 575 c 128,-1,36
 436 593 436 593 375 593 c 1,37,-1
 375 593 l 1,0,1
338 -8 m 1,38,39
 287 -8 287 -8 239.5 11.5 c 128,-1,40
 192 31 192 31 161.5 70.5 c 128,-1,41
 131 110 131 110 131 169 c 0,42,43
 131 207 131 207 146.5 246 c 128,-1,44
 162 285 162 285 195.5 323.5 c 128,-1,45
 229 362 229 362 283 398 c 1,46,-1
 316 354 l 1,47,48
 258 309 258 309 234.5 263 c 128,-1,49
 211 217 211 217 211 179 c 0,50,51
 211 139 211 139 231 113 c 128,-1,52
 251 87 251 87 282 74 c 128,-1,53
 313 61 313 61 345 61 c 0,54,55
 376 61 376 61 403 71.5 c 128,-1,56
 430 82 430 82 447.5 104 c 128,-1,57
 465 126 465 126 465 158 c 256,58,59
 465 190 465 190 445.5 218.5 c 128,-1,60
 426 247 426 247 382 269 c 1,61,-1
 433 311 l 1,62,63
 489 283 489 283 513 242 c 128,-1,64
 537 201 537 201 537 157 c 0,65,66
 537 102 537 102 508 65.5 c 128,-1,67
 479 29 479 29 433.5 10.5 c 128,-1,68
 388 -8 388 -8 338 -8 c 1,69,-1
 338 -8 l 1,38,39
317 227 m 1,70,-1
 469 386 l 1,71,-1
 510 345 l 1,72,-1
 358 186 l 1,73,-1
 317 227 l 1,70,-1
EndSplineSet
Substitution2: "'rclt' Required Contextual Alternates lookup 150 subtable" uni0B09.BRACKET.varAlt01
EndChar

StartChar: uni0B0A
Encoding: 2826 2826 13
Width: 849
GlyphClass: 2
Flags: W
AnchorPoint: "Anchor-5" 424 -185 basechar 0
AnchorPoint: "Anchor-1" 627 658 basechar 0
LayerCount: 2
Fore
SplineSet
160 192 m 1,0,1
 98 233 98 233 65 287 c 128,-1,2
 32 341 32 341 32 406 c 0,3,4
 32 468 32 468 59.5 516 c 128,-1,5
 87 564 87 564 135.5 597.5 c 128,-1,6
 184 631 184 631 246.5 648.5 c 128,-1,7
 309 666 309 666 379 666 c 0,8,9
 448 666 448 666 510.5 649 c 128,-1,10
 573 632 573 632 620.5 599.5 c 128,-1,11
 668 567 668 567 695.5 521 c 128,-1,12
 723 475 723 475 723 418 c 0,13,14
 723 391 723 391 716 363 c 128,-1,15
 709 335 709 335 693 308 c 1,16,-1
 619 302 l 1,17,18
 632 328 632 328 638 353.5 c 128,-1,19
 644 379 644 379 644 402 c 0,20,21
 644 449 644 449 621.5 484.5 c 128,-1,22
 599 520 599 520 561.5 544 c 128,-1,23
 524 568 524 568 476 580.5 c 128,-1,24
 428 593 428 593 377 593 c 0,25,26
 325 593 325 593 276.5 580 c 128,-1,27
 228 567 228 567 190 541.5 c 128,-1,28
 152 516 152 516 130 478.5 c 128,-1,29
 108 441 108 441 108 393 c 0,30,31
 108 350 108 350 129 312.5 c 128,-1,32
 150 275 150 275 188 248 c 1,33,-1
 160 192 l 1,34,-1
 160 192 l 1,0,1
578 132 m 1,35,-1
 606 167 l 1,36,37
 663 167 663 167 699.5 183.5 c 128,-1,38
 736 200 736 200 736 235 c 0,39,40
 736 257 736 257 721 271.5 c 128,-1,41
 706 286 706 286 680 294 c 128,-1,42
 654 302 654 302 619 302 c 1,43,-1
 681 347 l 1,44,45
 721 345 721 345 751.5 331.5 c 128,-1,46
 782 318 782 318 799.5 295 c 128,-1,47
 817 272 817 272 817 240 c 0,48,49
 817 204 817 204 794 177.5 c 128,-1,50
 771 151 771 151 730 137 c 128,-1,51
 689 123 689 123 635 123 c 1,52,-1
 642 162 l 1,53,-1
 762 13 l 1,54,-1
 700 -35 l 1,55,-1
 578 132 l 1,35,-1
338 -8 m 1,56,57
 285 -8 285 -8 237.5 12.5 c 128,-1,58
 190 33 190 33 160.5 72.5 c 128,-1,59
 131 112 131 112 131 169 c 256,60,61
 131 226 131 226 166.5 285 c 128,-1,62
 202 344 202 344 283 398 c 1,63,-1
 316 354 l 1,64,65
 258 309 258 309 234.5 263 c 128,-1,66
 211 217 211 217 211 179 c 0,67,68
 211 142 211 142 229 115.5 c 128,-1,69
 247 89 247 89 277 75 c 128,-1,70
 307 61 307 61 342 61 c 0,71,72
 374 61 374 61 401 71.5 c 128,-1,73
 428 82 428 82 445 104 c 128,-1,74
 462 126 462 126 462 158 c 256,75,76
 462 190 462 190 442.5 218.5 c 128,-1,77
 423 247 423 247 379 269 c 1,78,-1
 430 311 l 1,79,80
 486 283 486 283 510 242 c 128,-1,81
 534 201 534 201 534 157 c 0,82,83
 534 102 534 102 506 65.5 c 128,-1,84
 478 29 478 29 433 10.5 c 128,-1,85
 388 -8 388 -8 338 -8 c 1,86,-1
 338 -8 l 1,56,57
317 227 m 1,87,-1
 469 386 l 1,88,-1
 510 345 l 1,89,-1
 358 186 l 1,90,-1
 317 227 l 1,87,-1
EndSplineSet
Substitution2: "'rclt' Required Contextual Alternates lookup 150 subtable" uni0B0A.BRACKET.varAlt01
EndChar

StartChar: uni0B0B
Encoding: 2827 2827 14
Width: 809
GlyphClass: 2
Flags: W
AnchorPoint: "Anchor-5" 404 -185 basechar 0
AnchorPoint: "Anchor-1" 587 658 basechar 0
LayerCount: 2
Fore
SplineSet
160 192 m 1,0,1
 95 234 95 234 63.5 289 c 128,-1,2
 32 344 32 344 32 404 c 0,3,4
 32 470 32 470 60 519 c 128,-1,5
 88 568 88 568 136 601 c 128,-1,6
 184 634 184 634 243 650 c 128,-1,7
 302 666 302 666 363 666 c 0,8,9
 423 666 423 666 480.5 650.5 c 128,-1,10
 538 635 538 635 583.5 604.5 c 128,-1,11
 629 574 629 574 656 528.5 c 128,-1,12
 683 483 683 483 683 423 c 0,13,14
 683 395 683 395 676 369 c 128,-1,15
 669 343 669 343 654 317 c 1,16,-1
 579 302 l 1,17,18
 592 328 592 328 597.5 354 c 128,-1,19
 603 380 603 380 603 402 c 0,20,21
 603 449 603 449 583.5 485 c 128,-1,22
 564 521 564 521 530 545 c 128,-1,23
 496 569 496 569 452.5 581 c 128,-1,24
 409 593 409 593 361 593 c 0,25,26
 312 593 312 593 267 580.5 c 128,-1,27
 222 568 222 568 186 543 c 128,-1,28
 150 518 150 518 129 481 c 128,-1,29
 108 444 108 444 108 395 c 0,30,31
 108 352 108 352 128.5 314 c 128,-1,32
 149 276 149 276 188 248 c 1,33,-1
 160 192 l 1,34,-1
 160 192 l 1,0,1
313 -8 m 1,35,36
 257 -8 257 -8 214.5 15.5 c 128,-1,37
 172 39 172 39 149 80 c 128,-1,38
 126 121 126 121 126 174 c 256,39,40
 126 227 126 227 149 267.5 c 128,-1,41
 172 308 172 308 214.5 331.5 c 128,-1,42
 257 355 257 355 313 355 c 256,43,44
 369 355 369 355 410 331.5 c 128,-1,45
 451 308 451 308 474 267.5 c 128,-1,46
 497 227 497 227 497 174 c 256,47,48
 497 121 497 121 474 80 c 128,-1,49
 451 39 451 39 410 15.5 c 128,-1,50
 369 -8 369 -8 313 -8 c 1,51,-1
 313 -8 l 1,35,36
312 57 m 1,52,53
 365 57 365 57 394 89.5 c 128,-1,54
 423 122 423 122 423 174 c 0,55,56
 423 225 423 225 394 257 c 128,-1,57
 365 289 365 289 312 289 c 256,58,59
 259 289 259 289 229.5 257 c 128,-1,60
 200 225 200 225 200 174 c 256,61,62
 200 123 200 123 229.5 90 c 128,-1,63
 259 57 259 57 312 57 c 1,64,-1
 312 57 l 1,52,53
538 132 m 1,65,-1
 565 167 l 1,66,67
 622 167 622 167 659 183.5 c 128,-1,68
 696 200 696 200 696 235 c 0,69,70
 696 257 696 257 681 271.5 c 128,-1,71
 666 286 666 286 640 294 c 128,-1,72
 614 302 614 302 579 302 c 1,73,-1
 640 347 l 1,74,75
 680 345 680 345 711 331.5 c 128,-1,76
 742 318 742 318 759.5 295 c 128,-1,77
 777 272 777 272 777 240 c 0,78,79
 777 204 777 204 754 177.5 c 128,-1,80
 731 151 731 151 690 137 c 128,-1,81
 649 123 649 123 595 123 c 1,82,-1
 601 162 l 1,83,-1
 722 13 l 1,84,-1
 659 -35 l 1,85,-1
 538 132 l 1,65,-1
EndSplineSet
EndChar

StartChar: uni0B0C
Encoding: 2828 2828 15
Width: 594
GlyphClass: 2
Flags: W
AnchorPoint: "Anchor-5" 299 -158 basechar 0
AnchorPoint: "Anchor-1" 280 658 basechar 0
LayerCount: 2
Fore
SplineSet
107 185 m 1,0,1
 107 145 107 145 130 115.5 c 128,-1,2
 153 86 153 86 198.5 70 c 128,-1,3
 244 54 244 54 311 54 c 0,4,5
 368 54 368 54 409 66 c 128,-1,6
 450 78 450 78 472.5 101 c 128,-1,7
 495 124 495 124 495 157 c 0,8,9
 495 191 495 191 474 210.5 c 128,-1,10
 453 230 453 230 417 230 c 0,11,12
 377 230 377 230 353 206.5 c 128,-1,13
 329 183 329 183 329 145 c 0,14,15
 329 115 329 115 346.5 80.5 c 128,-1,16
 364 46 364 46 404 10 c 1,17,-1
 343 -1 l 1,18,19
 301 36 301 36 283.5 75.5 c 128,-1,20
 266 115 266 115 266 150 c 0,21,22
 266 191 266 191 284.5 221.5 c 128,-1,23
 303 252 303 252 337.5 269.5 c 128,-1,24
 372 287 372 287 419 287 c 0,25,26
 462 287 462 287 494 272.5 c 128,-1,27
 526 258 526 258 544 229 c 128,-1,28
 562 200 562 200 562 158 c 0,29,30
 562 106 562 106 532.5 69 c 128,-1,31
 503 32 503 32 446 12 c 128,-1,32
 389 -8 389 -8 306 -8 c 0,33,34
 215 -8 215 -8 155 15.5 c 128,-1,35
 95 39 95 39 65.5 83 c 128,-1,36
 36 127 36 127 36 186 c 0,37,38
 36 233 36 233 52.5 263.5 c 128,-1,39
 69 294 69 294 96 313 c 128,-1,40
 123 332 123 332 154.5 344 c 128,-1,41
 186 356 186 356 216 365 c 2,42,-1
 271 382 l 2,43,44
 298 391 298 391 324 402 c 128,-1,45
 350 413 350 413 367 435 c 128,-1,46
 384 457 384 457 384 497 c 0,47,48
 384 546 384 546 356 573 c 128,-1,49
 328 600 328 600 278 600 c 0,50,51
 226 600 226 600 196.5 572.5 c 128,-1,52
 167 545 167 545 167 498 c 0,53,54
 167 483 167 483 170.5 466 c 128,-1,55
 174 449 174 449 184 430 c 1,56,-1
 108 408 l 1,57,58
 99 429 99 429 93 453 c 128,-1,59
 87 477 87 477 87 502 c 0,60,61
 87 578 87 578 139 622 c 128,-1,62
 191 666 191 666 280 666 c 0,63,64
 367 666 367 666 415 623 c 128,-1,65
 463 580 463 580 463 501 c 0,66,67
 463 455 463 455 447.5 424 c 128,-1,68
 432 393 432 393 408.5 374.5 c 128,-1,69
 385 356 385 356 359.5 345.5 c 128,-1,70
 334 335 334 335 313 329 c 2,71,-1
 257 311 l 2,72,73
 215 298 215 298 181 283.5 c 128,-1,74
 147 269 147 269 127 246.5 c 128,-1,75
 107 224 107 224 107 185 c 1,76,-1
 107 185 l 1,0,1
EndSplineSet
EndChar

StartChar: uni0B0F
Encoding: 2831 2831 16
Width: 689
GlyphClass: 2
Flags: W
AnchorPoint: "Anchor-5" 311 -150 basechar 0
AnchorPoint: "Anchor-1" 588 658 basechar 0
LayerCount: 2
Fore
SplineSet
319 443 m 1,0,1
 327 449 327 449 337 452.5 c 128,-1,2
 347 456 347 456 359 456 c 0,3,4
 388 456 388 456 404.5 438.5 c 128,-1,5
 421 421 421 421 421 398 c 0,6,7
 421 373 421 373 404.5 357.5 c 128,-1,8
 388 342 388 342 362 342 c 0,9,10
 332 342 332 342 314.5 365 c 128,-1,11
 297 388 297 388 297 423 c 256,12,13
 297 458 297 458 314.5 498.5 c 128,-1,14
 332 539 332 539 367.5 575 c 128,-1,15
 403 611 403 611 456.5 634.5 c 128,-1,16
 510 658 510 658 582 658 c 2,17,-1
 627 658 l 1,18,-1
 627 0 l 1,19,-1
 537 0 l 1,20,21
 388 98 388 98 252 210 c 128,-1,22
 116 322 116 322 -5 440 c 1,23,-1
 51 498 l 1,24,25
 174 375 174 375 307.5 263 c 128,-1,26
 441 151 441 151 580 58 c 1,27,-1
 549 49 l 1,28,-1
 549 617 l 1,29,-1
 565 585 l 1,30,31
 520 585 520 585 482.5 571 c 128,-1,32
 445 557 445 557 417 532 c 128,-1,33
 389 507 389 507 373.5 474.5 c 128,-1,34
 358 442 358 442 358 406 c 1,35,-1
 319 443 l 1,36,-1
 319 443 l 1,0,1
EndSplineSet
Substitution2: "'rclt' Required Contextual Alternates lookup 150 subtable" uni0B0F.BRACKET.varAlt01
EndChar

StartChar: uni0B10
Encoding: 2832 2832 17
Width: 889
GlyphClass: 2
Flags: W
AnchorPoint: "Anchor-5" 585 -150 basechar 0
LayerCount: 2
Fore
SplineSet
687 307 m 1,0,1
 668 307 668 307 648.5 311 c 128,-1,2
 629 315 629 315 612 324 c 1,3,-1
 612 395 l 1,4,5
 630 385 630 385 649 381 c 128,-1,6
 668 377 668 377 688 377 c 256,7,8
 708 377 708 377 726.5 381 c 128,-1,9
 745 385 745 385 762 395 c 1,10,-1
 762 324 l 1,11,12
 745 315 745 315 726 311 c 128,-1,13
 707 307 707 307 687 307 c 1,14,-1
 687 307 l 1,0,1
319 443 m 1,15,16
 327 449 327 449 337 452.5 c 128,-1,17
 347 456 347 456 359 456 c 0,18,19
 388 456 388 456 404.5 438.5 c 128,-1,20
 421 421 421 421 421 398 c 0,21,22
 421 373 421 373 404.5 357.5 c 128,-1,23
 388 342 388 342 362 342 c 0,24,25
 332 342 332 342 314.5 365 c 128,-1,26
 297 388 297 388 297 423 c 256,27,28
 297 458 297 458 314.5 498.5 c 128,-1,29
 332 539 332 539 367.5 575 c 128,-1,30
 403 611 403 611 456.5 634.5 c 128,-1,31
 510 658 510 658 582 658 c 2,32,-1
 627 658 l 1,33,-1
 627 0 l 1,34,-1
 537 0 l 1,35,36
 388 98 388 98 252 210 c 128,-1,37
 116 322 116 322 -5 440 c 1,38,-1
 51 498 l 1,39,40
 174 375 174 375 307.5 263 c 128,-1,41
 441 151 441 151 580 58 c 1,42,-1
 549 49 l 1,43,-1
 549 617 l 1,44,-1
 565 592 l 1,45,46
 518 592 518 592 479.5 577.5 c 128,-1,47
 441 563 441 563 414 537.5 c 128,-1,48
 387 512 387 512 372.5 479 c 128,-1,49
 358 446 358 446 358 409 c 1,50,-1
 319 443 l 1,51,-1
 319 443 l 1,15,16
827 715 m 1,52,-1
 827 0 l 1,53,-1
 749 0 l 1,54,-1
 749 694 l 1,55,56
 781 706 781 706 798 726 c 128,-1,57
 815 746 815 746 815 769 c 0,58,59
 815 796 815 796 794.5 811 c 128,-1,60
 774 826 774 826 739 826 c 0,61,62
 705 826 705 826 661 811.5 c 128,-1,63
 617 797 617 797 568 782 c 128,-1,64
 519 767 519 767 470 767 c 0,65,66
 444 767 444 767 416.5 774.5 c 128,-1,67
 389 782 389 782 365.5 801 c 128,-1,68
 342 820 342 820 326 853 c 1,69,-1
 391 894 l 1,70,71
 408 865 408 865 431.5 853 c 128,-1,72
 455 841 455 841 481 841 c 256,73,74
 507 841 507 841 540.5 850 c 128,-1,75
 574 859 574 859 611 870 c 128,-1,76
 648 881 648 881 686 890 c 128,-1,77
 724 899 724 899 759 899 c 0,78,79
 801 899 801 899 831.5 884.5 c 128,-1,80
 862 870 862 870 878.5 844.5 c 128,-1,81
 895 819 895 819 895 785 c 0,82,83
 895 747 895 747 871.5 716.5 c 128,-1,84
 848 686 848 686 801 666 c 1,85,-1
 827 715 l 1,52,-1
EndSplineSet
EndChar

StartChar: uni0B13
Encoding: 2835 2835 18
Width: 700
GlyphClass: 2
Flags: W
AnchorPoint: "Anchor-5" 347 -158 basechar 0
AnchorPoint: "Anchor-1" 556 658 basechar 0
LayerCount: 2
Fore
SplineSet
400 -8 m 1,0,1
 316 -8 316 -8 248.5 17 c 128,-1,2
 181 42 181 42 132.5 88.5 c 128,-1,3
 84 135 84 135 58 201 c 128,-1,4
 32 267 32 267 32 349 c 0,5,6
 32 429 32 429 55.5 501.5 c 128,-1,7
 79 574 79 574 122.5 634.5 c 128,-1,8
 166 695 166 695 224 738 c 1,9,-1
 278 686 l 1,10,11
 232 653 232 653 194.5 600 c 128,-1,12
 157 547 157 547 134.5 483 c 128,-1,13
 112 419 112 419 112 350 c 0,14,15
 112 288 112 288 132 236 c 128,-1,16
 152 184 152 184 189 145.5 c 128,-1,17
 226 107 226 107 279 86 c 128,-1,18
 332 65 332 65 398 65 c 0,19,20
 456 65 456 65 497.5 81 c 128,-1,21
 539 97 539 97 561.5 125 c 128,-1,22
 584 153 584 153 584 187 c 0,23,24
 584 234 584 234 550 262 c 128,-1,25
 516 290 516 290 456 290 c 0,26,27
 432 290 432 290 405 285 c 128,-1,28
 378 280 378 280 353 269 c 1,29,-1
 324 333 l 1,30,-1
 418 364 l 2,31,32
 443 372 443 372 469.5 382 c 128,-1,33
 496 392 496 392 519.5 407.5 c 128,-1,34
 543 423 543 423 557.5 446 c 128,-1,35
 572 469 572 469 572 502 c 0,36,37
 572 546 572 546 544 571.5 c 128,-1,38
 516 597 516 597 469 597 c 0,39,40
 421 597 421 597 392 569.5 c 128,-1,41
 363 542 363 542 363 498 c 0,42,43
 363 481 363 481 367 466 c 128,-1,44
 371 451 371 451 378 436 c 1,45,-1
 306 413 l 1,46,47
 295 438 295 438 289 461.5 c 128,-1,48
 283 485 283 485 283 507 c 0,49,50
 283 556 283 556 306.5 591.5 c 128,-1,51
 330 627 330 627 372 646.5 c 128,-1,52
 414 666 414 666 470 666 c 0,53,54
 528 666 528 666 568.5 646 c 128,-1,55
 609 626 609 626 630.5 590.5 c 128,-1,56
 652 555 652 555 652 510 c 0,57,58
 652 462 652 462 631 428.5 c 128,-1,59
 610 395 610 395 578.5 373 c 128,-1,60
 547 351 547 351 513 337.5 c 128,-1,61
 479 324 479 324 452 316 c 2,62,-1
 399 300 l 1,63,-1
 457 348 l 1,64,65
 525 348 525 348 571 328 c 128,-1,66
 617 308 617 308 640 271 c 128,-1,67
 663 234 663 234 663 184 c 0,68,69
 663 128 663 128 632.5 84.5 c 128,-1,70
 602 41 602 41 543 16.5 c 128,-1,71
 484 -8 484 -8 400 -8 c 1,72,-1
 400 -8 l 1,0,1
EndSplineSet
EndChar

StartChar: uni0B14
Encoding: 2836 2836 19
Width: 908
GlyphClass: 2
Flags: W
AnchorPoint: "Anchor-5" 473 -158 basechar 0
LayerCount: 2
Fore
SplineSet
689 215 m 1,0,1
 651 215 651 215 625.5 226.5 c 128,-1,2
 600 238 600 238 583 246 c 1,3,-1
 551 321 l 1,4,-1
 565 330 l 1,5,6
 585 315 585 315 615.5 300.5 c 128,-1,7
 646 286 646 286 689 285 c 0,8,9
 721 284 721 284 743.5 291 c 128,-1,10
 766 298 766 298 783 309 c 1,11,-1
 783 238 l 1,12,13
 766 228 766 228 745.5 221.5 c 128,-1,14
 725 215 725 215 689 215 c 1,15,-1
 689 215 l 1,0,1
400 -8 m 1,16,17
 316 -8 316 -8 248.5 17 c 128,-1,18
 181 42 181 42 132.5 88.5 c 128,-1,19
 84 135 84 135 58 201 c 128,-1,20
 32 267 32 267 32 349 c 0,21,22
 32 429 32 429 55.5 501.5 c 128,-1,23
 79 574 79 574 122.5 634.5 c 128,-1,24
 166 695 166 695 224 738 c 1,25,-1
 278 686 l 1,26,27
 232 653 232 653 194.5 600 c 128,-1,28
 157 547 157 547 134.5 483 c 128,-1,29
 112 419 112 419 112 350 c 0,30,31
 112 288 112 288 132 236 c 128,-1,32
 152 184 152 184 189 145.5 c 128,-1,33
 226 107 226 107 279 86 c 128,-1,34
 332 65 332 65 398 65 c 0,35,36
 456 65 456 65 497.5 81 c 128,-1,37
 539 97 539 97 561.5 125 c 128,-1,38
 584 153 584 153 584 187 c 0,39,40
 584 234 584 234 550 262 c 128,-1,41
 516 290 516 290 456 290 c 0,42,43
 432 290 432 290 405 285 c 128,-1,44
 378 280 378 280 353 269 c 1,45,-1
 324 333 l 1,46,-1
 418 364 l 2,47,48
 443 372 443 372 469.5 382 c 128,-1,49
 496 392 496 392 519.5 407.5 c 128,-1,50
 543 423 543 423 557.5 446 c 128,-1,51
 572 469 572 469 572 502 c 0,52,53
 572 546 572 546 544 571.5 c 128,-1,54
 516 597 516 597 469 597 c 0,55,56
 421 597 421 597 392 569.5 c 128,-1,57
 363 542 363 542 363 498 c 0,58,59
 363 481 363 481 367 466 c 128,-1,60
 371 451 371 451 378 436 c 1,61,-1
 306 413 l 1,62,63
 295 438 295 438 289 461.5 c 128,-1,64
 283 485 283 485 283 507 c 0,65,66
 283 556 283 556 306.5 591.5 c 128,-1,67
 330 627 330 627 372 646.5 c 128,-1,68
 414 666 414 666 470 666 c 0,69,70
 528 666 528 666 568.5 646 c 128,-1,71
 609 626 609 626 630.5 590.5 c 128,-1,72
 652 555 652 555 652 510 c 0,73,74
 652 462 652 462 631 428.5 c 128,-1,75
 610 395 610 395 578.5 373 c 128,-1,76
 547 351 547 351 513 337.5 c 128,-1,77
 479 324 479 324 452 316 c 2,78,-1
 399 300 l 1,79,-1
 457 348 l 1,80,81
 525 348 525 348 571 328 c 128,-1,82
 617 308 617 308 640 271 c 128,-1,83
 663 234 663 234 663 184 c 0,84,85
 663 128 663 128 632.5 84.5 c 128,-1,86
 602 41 602 41 543 16.5 c 128,-1,87
 484 -8 484 -8 400 -8 c 1,88,-1
 400 -8 l 1,16,17
847 715 m 1,89,-1
 847 0 l 1,90,-1
 769 0 l 1,91,-1
 769 694 l 1,92,93
 801 706 801 706 818 726 c 128,-1,94
 835 746 835 746 835 769 c 0,95,96
 835 796 835 796 814.5 811 c 128,-1,97
 794 826 794 826 759 826 c 256,98,99
 724 826 724 826 680 811.5 c 128,-1,100
 636 797 636 797 587 782 c 128,-1,101
 538 767 538 767 489 767 c 0,102,103
 463 767 463 767 435.5 774.5 c 128,-1,104
 408 782 408 782 384.5 801 c 128,-1,105
 361 820 361 820 345 853 c 1,106,-1
 411 894 l 1,107,108
 428 865 428 865 451.5 853 c 128,-1,109
 475 841 475 841 501 841 c 256,110,111
 527 841 527 841 560.5 850 c 128,-1,112
 594 859 594 859 630.5 870 c 128,-1,113
 667 881 667 881 705 890 c 128,-1,114
 743 899 743 899 778 899 c 0,115,116
 820 899 820 899 850.5 884.5 c 128,-1,117
 881 870 881 870 897.5 844.5 c 128,-1,118
 914 819 914 819 914 785 c 0,119,120
 914 747 914 747 890.5 716.5 c 128,-1,121
 867 686 867 686 821 666 c 1,122,-1
 847 715 l 1,89,-1
EndSplineSet
EndChar

StartChar: uni0B15
Encoding: 2837 2837 20
Width: 752
GlyphClass: 2
Flags: W
AnchorPoint: "Anchor-5" 376 -150 basechar 0
AnchorPoint: "Anchor-4" 574 0 basechar 0
AnchorPoint: "Anchor-3" 496 0 basechar 0
AnchorPoint: "Anchor-1" 624 658 basechar 0
AnchorPoint: "Anchor-0" 367 658 basechar 0
LayerCount: 2
Fore
SplineSet
152 201 m 1,0,1
 91 247 91 247 61.5 299.5 c 128,-1,2
 32 352 32 352 32 411 c 0,3,4
 32 469 32 469 58 516 c 128,-1,5
 84 563 84 563 130 596.5 c 128,-1,6
 176 630 176 630 236.5 648 c 128,-1,7
 297 666 297 666 367 666 c 0,8,9
 434 666 434 666 497 649 c 128,-1,10
 560 632 560 632 610.5 598 c 128,-1,11
 661 564 661 564 690.5 513.5 c 128,-1,12
 720 463 720 463 720 395 c 0,13,14
 720 353 720 353 707 316.5 c 128,-1,15
 694 280 694 280 671 250 c 1,16,-1
 600 281 l 1,17,18
 619 304 619 304 629.5 333 c 128,-1,19
 640 362 640 362 640 395 c 0,20,21
 640 445 640 445 617 482 c 128,-1,22
 594 519 594 519 555 543.5 c 128,-1,23
 516 568 516 568 467 580.5 c 128,-1,24
 418 593 418 593 367 593 c 0,25,26
 294 593 294 593 235.5 570 c 128,-1,27
 177 547 177 547 142.5 504.5 c 128,-1,28
 108 462 108 462 108 403 c 0,29,30
 108 363 108 363 126 326.5 c 128,-1,31
 144 290 144 290 178 258 c 1,32,-1
 152 201 l 1,33,-1
 152 201 l 1,0,1
244 74 m 1,34,35
 184 74 184 74 149 113 c 128,-1,36
 114 152 114 152 114 213 c 0,37,38
 114 276 114 276 149.5 315.5 c 128,-1,39
 185 355 185 355 245 355 c 0,40,41
 304 355 304 355 338.5 316 c 128,-1,42
 373 277 373 277 373 215 c 256,43,44
 373 153 373 153 338 113.5 c 128,-1,45
 303 74 303 74 244 74 c 1,46,-1
 244 74 l 1,34,35
245 135 m 1,47,48
 276 135 276 135 294 158 c 128,-1,49
 312 181 312 181 312 215 c 0,50,51
 312 247 312 247 293.5 270 c 128,-1,52
 275 293 275 293 245 293 c 0,53,54
 214 293 214 293 196 270 c 128,-1,55
 178 247 178 247 178 214 c 256,56,57
 178 181 178 181 196 158 c 128,-1,58
 214 135 214 135 245 135 c 1,59,-1
 245 135 l 1,47,48
312 148 m 1,60,-1
 335 222 l 1,61,62
 335 264 335 264 348.5 293.5 c 128,-1,63
 362 323 362 323 388.5 339 c 128,-1,64
 415 355 415 355 452 355 c 0,65,66
 483 355 483 355 506 346 c 128,-1,67
 529 337 529 337 544 319.5 c 128,-1,68
 559 302 559 302 566.5 277.5 c 128,-1,69
 574 253 574 253 574 222 c 2,70,-1
 574 0 l 1,71,-1
 496 0 l 1,72,-1
 496 216 l 2,73,74
 496 253 496 253 481 273.5 c 128,-1,75
 466 294 466 294 440 294 c 0,76,77
 412 294 412 294 397 273.5 c 128,-1,78
 382 253 382 253 382 216 c 2,79,-1
 382 0 l 1,80,-1
 304 0 l 1,81,-1
 312 148 l 1,60,-1
EndSplineSet
Substitution2: "'rclt' Required Contextual Alternates lookup 150 subtable" uni0B15.BRACKET.varAlt01
Substitution2: "Single Substitution lookup 10 subtable" uni0B15.base
Substitution2: "'aalt' Access All Alternates lookup 0 subtable" uni0B15.base
EndChar

StartChar: uni0B16
Encoding: 2838 2838 21
Width: 742
GlyphClass: 2
Flags: W
AnchorPoint: "Anchor-5" 316 -158 basechar 0
AnchorPoint: "Anchor-4" 680 0 basechar 0
AnchorPoint: "Anchor-3" 602 0 basechar 0
AnchorPoint: "Anchor-1" 641 658 basechar 0
AnchorPoint: "Anchor-0" 376 658 basechar 0
LayerCount: 2
Fore
SplineSet
153 198 m 1,0,1
 97 236 97 236 64.5 290.5 c 128,-1,2
 32 345 32 345 32 411 c 0,3,4
 32 462 32 462 52 507.5 c 128,-1,5
 72 553 72 553 113.5 589 c 128,-1,6
 155 625 155 625 220 645.5 c 128,-1,7
 285 666 285 666 376 666 c 0,8,9
 384 666 384 666 390.5 666 c 128,-1,10
 397 666 397 666 404.5 666 c 128,-1,11
 412 666 412 666 421 666 c 1,12,-1
 429 589 l 1,13,14
 415 591 415 591 401.5 592 c 128,-1,15
 388 593 388 593 369 593 c 0,16,17
 297 593 297 593 247 577 c 128,-1,18
 197 561 197 561 166.5 534 c 128,-1,19
 136 507 136 507 122 473 c 128,-1,20
 108 439 108 439 108 403 c 0,21,22
 108 359 108 359 127.5 320.5 c 128,-1,23
 147 282 147 282 181 254 c 1,24,-1
 153 198 l 1,25,-1
 153 198 l 1,0,1
312 -8 m 1,26,27
 262 -8 262 -8 219.5 13 c 128,-1,28
 177 34 177 34 151.5 75 c 128,-1,29
 126 116 126 116 126 174 c 256,30,31
 126 232 126 232 151.5 272.5 c 128,-1,32
 177 313 177 313 219.5 334 c 128,-1,33
 262 355 262 355 312 355 c 0,34,35
 363 355 363 355 405.5 334 c 128,-1,36
 448 313 448 313 473.5 272.5 c 128,-1,37
 499 232 499 232 499 174 c 256,38,39
 499 116 499 116 473.5 75 c 128,-1,40
 448 34 448 34 405.5 13 c 128,-1,41
 363 -8 363 -8 312 -8 c 1,42,-1
 312 -8 l 1,26,27
313 57 m 1,43,44
 343 57 343 57 369 70 c 128,-1,45
 395 83 395 83 411 109.5 c 128,-1,46
 427 136 427 136 427 174 c 256,47,48
 427 212 427 212 411 237.5 c 128,-1,49
 395 263 395 263 369 276 c 128,-1,50
 343 289 343 289 313 289 c 256,51,52
 283 289 283 289 257 276 c 128,-1,53
 231 263 231 263 215 237.5 c 128,-1,54
 199 212 199 212 199 174 c 256,55,56
 199 136 199 136 215 109.5 c 128,-1,57
 231 83 231 83 257 70 c 128,-1,58
 283 57 283 57 313 57 c 1,59,-1
 313 57 l 1,43,44
602 658 m 1,60,-1
 680 658 l 1,61,-1
 680 0 l 1,62,-1
 602 0 l 1,63,-1
 602 658 l 1,60,-1
518 370 m 1,64,65
 465 370 465 370 426 388.5 c 128,-1,66
 387 407 387 407 365.5 440.5 c 128,-1,67
 344 474 344 474 344 519 c 0,68,69
 344 559 344 559 362.5 599 c 128,-1,70
 381 639 381 639 421 666 c 1,71,-1
 457 626 l 1,72,73
 438 602 438 602 427 575.5 c 128,-1,74
 416 549 416 549 416 524 c 0,75,76
 416 486 416 486 442.5 460.5 c 128,-1,77
 469 435 469 435 522 435 c 0,78,79
 557 435 557 435 580.5 445 c 128,-1,80
 604 455 604 455 615 469 c 1,81,-1
 648 418 l 1,82,83
 635 403 635 403 616 392.5 c 128,-1,84
 597 382 597 382 572.5 376 c 128,-1,85
 548 370 548 370 518 370 c 1,86,-1
 518 370 l 1,64,65
EndSplineSet
Substitution2: "Single Substitution lookup 10 subtable" uni0B16.base
Substitution2: "'aalt' Access All Alternates lookup 0 subtable" uni0B16.base
EndChar

StartChar: uni0B17
Encoding: 2839 2839 22
Width: 741
GlyphClass: 2
Flags: W
AnchorPoint: "Anchor-5" 311 -158 basechar 0
AnchorPoint: "Anchor-4" 679 0 basechar 0
AnchorPoint: "Anchor-3" 601 0 basechar 0
AnchorPoint: "Anchor-1" 640 658 basechar 0
AnchorPoint: "Anchor-0" 336 658 basechar 0
LayerCount: 2
Fore
SplineSet
311 -8 m 1,0,1
 256 -8 256 -8 214.5 15.5 c 128,-1,2
 173 39 173 39 149.5 80 c 128,-1,3
 126 121 126 121 126 174 c 256,4,5
 126 227 126 227 149.5 267.5 c 128,-1,6
 173 308 173 308 214.5 331.5 c 128,-1,7
 256 355 256 355 311 355 c 256,8,9
 366 355 366 355 408 331.5 c 128,-1,10
 450 308 450 308 474.5 267.5 c 128,-1,11
 499 227 499 227 499 174 c 256,12,13
 499 121 499 121 474.5 80 c 128,-1,14
 450 39 450 39 408 15.5 c 128,-1,15
 366 -8 366 -8 311 -8 c 1,16,-1
 311 -8 l 1,0,1
312 57 m 1,17,18
 363 57 363 57 395 89.5 c 128,-1,19
 427 122 427 122 427 174 c 0,20,21
 427 225 427 225 395.5 257 c 128,-1,22
 364 289 364 289 312 289 c 256,23,24
 260 289 260 289 229 257 c 128,-1,25
 198 225 198 225 198 174 c 0,26,27
 198 122 198 122 229.5 89.5 c 128,-1,28
 261 57 261 57 312 57 c 1,29,-1
 312 57 l 1,17,18
601 475 m 1,30,-1
 605 513 l 1,31,-1
 601 658 l 1,32,-1
 679 658 l 1,33,-1
 679 0 l 1,34,-1
 601 0 l 1,35,-1
 601 475 l 1,30,-1
346 593 m 1,36,37
 285 593 285 593 230.5 571 c 128,-1,38
 176 549 176 549 142 506 c 128,-1,39
 108 463 108 463 108 401 c 0,40,41
 108 358 108 358 127 319 c 128,-1,42
 146 280 146 280 180 254 c 1,43,-1
 153 198 l 1,44,45
 91 238 91 238 61.5 293.5 c 128,-1,46
 32 349 32 349 32 410 c 0,47,48
 32 473 32 473 57.5 520.5 c 128,-1,49
 83 568 83 568 126 600.5 c 128,-1,50
 169 633 169 633 223 649.5 c 128,-1,51
 277 666 277 666 335 666 c 0,52,53
 398 666 398 666 458.5 646 c 128,-1,54
 519 626 519 626 567.5 586 c 128,-1,55
 616 546 616 546 644.5 486.5 c 128,-1,56
 673 427 673 427 673 347 c 1,57,-1
 611 344 l 1,58,59
 611 406 611 406 589 452.5 c 128,-1,60
 567 499 567 499 529 530.5 c 128,-1,61
 491 562 491 562 443.5 577.5 c 128,-1,62
 396 593 396 593 346 593 c 1,63,-1
 346 593 l 1,36,37
EndSplineSet
Substitution2: "Single Substitution lookup 10 subtable" uni0B17.base
Substitution2: "'aalt' Access All Alternates lookup 0 subtable" uni0B17.base
EndChar

StartChar: uni0B18
Encoding: 2840 2840 23
Width: 741
GlyphClass: 2
Flags: W
AnchorPoint: "Anchor-5" 355 -158 basechar 0
AnchorPoint: "Anchor-4" 679 0 basechar 0
AnchorPoint: "Anchor-3" 601 0 basechar 0
AnchorPoint: "Anchor-1" 640 658 basechar 0
AnchorPoint: "Anchor-0" 336 658 basechar 0
LayerCount: 2
Fore
SplineSet
153 198 m 1,0,1
 93 236 93 236 62.5 291.5 c 128,-1,2
 32 347 32 347 32 411 c 0,3,4
 32 486 32 486 71 543.5 c 128,-1,5
 110 601 110 601 177.5 633.5 c 128,-1,6
 245 666 245 666 332 666 c 0,7,8
 387 666 387 666 438 652.5 c 128,-1,9
 489 639 489 639 531.5 612.5 c 128,-1,10
 574 586 574 586 606 547 c 128,-1,11
 638 508 638 508 655.5 458 c 128,-1,12
 673 408 673 408 673 347 c 1,13,-1
 611 344 l 1,14,15
 611 406 611 406 589 452.5 c 128,-1,16
 567 499 567 499 529 530 c 128,-1,17
 491 561 491 561 442.5 577 c 128,-1,18
 394 593 394 593 342 593 c 0,19,20
 274 593 274 593 221 568 c 128,-1,21
 168 543 168 543 138 499.5 c 128,-1,22
 108 456 108 456 108 400 c 0,23,24
 108 357 108 357 127 319.5 c 128,-1,25
 146 282 146 282 180 254 c 1,26,-1
 153 198 l 1,27,-1
 153 198 l 1,0,1
283 -8 m 1,28,29
 238 -8 238 -8 202.5 13 c 128,-1,30
 167 34 167 34 146.5 71 c 128,-1,31
 126 108 126 108 126 156 c 0,32,33
 126 203 126 203 146 248.5 c 128,-1,34
 166 294 166 294 205.5 332 c 128,-1,35
 245 370 245 370 303 392 c 1,36,-1
 327 336 l 1,37,38
 283 318 283 318 254.5 288.5 c 128,-1,39
 226 259 226 259 212 226 c 128,-1,40
 198 193 198 193 198 161 c 0,41,42
 198 117 198 117 223.5 87 c 128,-1,43
 249 57 249 57 289 57 c 0,44,45
 327 57 327 57 354 83.5 c 128,-1,46
 381 110 381 110 381 164 c 2,47,-1
 381 234 l 1,48,-1
 445 234 l 1,49,-1
 445 164 l 2,50,51
 445 129 445 129 456.5 105 c 128,-1,52
 468 81 468 81 486.5 69 c 128,-1,53
 505 57 505 57 526 57 c 0,54,55
 556 57 556 57 578.5 80.5 c 128,-1,56
 601 104 601 104 601 149 c 1,57,-1
 632 149 l 1,58,59
 632 96 632 96 614.5 61 c 128,-1,60
 597 26 597 26 569.5 9 c 128,-1,61
 542 -8 542 -8 512 -8 c 0,62,63
 484 -8 484 -8 458 7 c 128,-1,64
 432 22 432 22 415.5 51.5 c 128,-1,65
 399 81 399 81 399 124 c 1,66,-1
 424 124 l 1,67,68
 424 81 424 81 404 51.5 c 128,-1,69
 384 22 384 22 352 7 c 128,-1,70
 320 -8 320 -8 283 -8 c 1,71,-1
 283 -8 l 1,28,29
605 54 m 1,72,-1
 601 81 l 1,73,-1
 601 470 l 1,74,-1
 605 509 l 1,75,-1
 601 658 l 1,76,-1
 679 658 l 1,77,-1
 679 0 l 1,78,-1
 601 0 l 1,79,-1
 605 54 l 1,72,-1
EndSplineSet
Substitution2: "Single Substitution lookup 10 subtable" uni0B18.base
Substitution2: "'aalt' Access All Alternates lookup 0 subtable" uni0B18.base
EndChar

StartChar: uni0B19
Encoding: 2841 2841 24
Width: 750
GlyphClass: 2
Flags: W
AnchorPoint: "Anchor-5" 348 -158 basechar 0
AnchorPoint: "Anchor-4" 632 0 basechar 0
AnchorPoint: "Anchor-3" 335 0 basechar 0
AnchorPoint: "Anchor-1" 591 658 basechar 0
AnchorPoint: "Anchor-0" 347 658 basechar 0
LayerCount: 2
Fore
SplineSet
168 196 m 1,0,1
 99 234 99 234 65.5 293 c 128,-1,2
 32 352 32 352 32 416 c 0,3,4
 32 466 32 466 52.5 510.5 c 128,-1,5
 73 555 73 555 113 590.5 c 128,-1,6
 153 626 153 626 211.5 646 c 128,-1,7
 270 666 270 666 346 666 c 0,8,9
 406 666 406 666 456.5 653.5 c 128,-1,10
 507 641 507 641 550 616 c 1,11,-1
 519 557 l 1,12,13
 482 578 482 578 441.5 589.5 c 128,-1,14
 401 601 401 601 352 601 c 0,15,16
 272 601 272 601 217.5 573.5 c 128,-1,17
 163 546 163 546 135.5 502 c 128,-1,18
 108 458 108 458 108 408 c 0,19,20
 108 365 108 365 129 322 c 128,-1,21
 150 279 150 279 195 253 c 1,22,-1
 168 196 l 1,23,-1
 168 196 l 1,0,1
327 227 m 1,24,-1
 479 386 l 1,25,-1
 520 345 l 1,26,-1
 368 186 l 1,27,-1
 327 227 l 1,24,-1
612 392 m 1,28,29
 557 392 557 392 519 426.5 c 128,-1,30
 481 461 481 461 481 524 c 0,31,32
 481 583 481 583 517 620.5 c 128,-1,33
 553 658 553 658 612 658 c 0,34,35
 654 658 654 658 682.5 640 c 128,-1,36
 711 622 711 622 725.5 591.5 c 128,-1,37
 740 561 740 561 740 525 c 0,38,39
 740 490 740 490 725.5 459.5 c 128,-1,40
 711 429 711 429 682.5 410.5 c 128,-1,41
 654 392 654 392 612 392 c 1,42,-1
 612 392 l 1,28,29
612 448 m 1,43,44
 645 448 645 448 661.5 472 c 128,-1,45
 678 496 678 496 678 525 c 0,46,47
 678 555 678 555 661.5 578.5 c 128,-1,48
 645 602 645 602 612 602 c 0,49,50
 584 602 584 602 563.5 582 c 128,-1,51
 543 562 543 562 543 524 c 0,52,53
 543 487 543 487 563.5 467.5 c 128,-1,54
 584 448 584 448 612 448 c 1,55,-1
 612 448 l 1,43,44
348 -8 m 1,56,57
 293 -8 293 -8 247.5 13.5 c 128,-1,58
 202 35 202 35 175.5 75 c 128,-1,59
 149 115 149 115 149 170 c 0,60,61
 149 207 149 207 163 246.5 c 128,-1,62
 177 286 177 286 208 325 c 128,-1,63
 239 364 239 364 291 398 c 1,64,-1
 326 352 l 1,65,66
 271 308 271 308 248 261.5 c 128,-1,67
 225 215 225 215 225 177 c 0,68,69
 225 122 225 122 263 91.5 c 128,-1,70
 301 61 301 61 353 61 c 0,71,72
 384 61 384 61 412 71.5 c 128,-1,73
 440 82 440 82 458 103.5 c 128,-1,74
 476 125 476 125 476 156 c 256,75,76
 476 187 476 187 456 214.5 c 128,-1,77
 436 242 436 242 393 263 c 1,78,-1
 444 310 l 1,79,80
 481 291 481 291 504 266.5 c 128,-1,81
 527 242 527 242 537.5 214.5 c 128,-1,82
 548 187 548 187 548 157 c 0,83,84
 548 104 548 104 519.5 67 c 128,-1,85
 491 30 491 30 445.5 11 c 128,-1,86
 400 -8 400 -8 348 -8 c 1,87,-1
 348 -8 l 1,56,57
EndSplineSet
Substitution2: "'rclt' Required Contextual Alternates lookup 150 subtable" uni0B19.BRACKET.varAlt01
Substitution2: "Single Substitution lookup 10 subtable" uni0B19.base
Substitution2: "'aalt' Access All Alternates lookup 0 subtable" uni0B19.base
EndChar

StartChar: uni0B1A
Encoding: 2842 2842 25
Width: 698
GlyphClass: 2
Flags: W
AnchorPoint: "Anchor-5" 312 -158 basechar 0
AnchorPoint: "Anchor-4" 631 0 basechar 0
AnchorPoint: "Anchor-3" 297 0 basechar 0
AnchorPoint: "Anchor-1" 570 658 basechar 0
AnchorPoint: "Anchor-0" 343 658 basechar 0
LayerCount: 2
Fore
SplineSet
153 198 m 1,0,1
 89 240 89 240 60.5 295.5 c 128,-1,2
 32 351 32 351 32 413 c 0,3,4
 32 477 32 477 58 524.5 c 128,-1,5
 84 572 84 572 128.5 603.5 c 128,-1,6
 173 635 173 635 228.5 650.5 c 128,-1,7
 284 666 284 666 343 666 c 0,8,9
 403 666 403 666 461 649 c 128,-1,10
 519 632 519 632 565 598 c 128,-1,11
 611 564 611 564 638.5 513 c 128,-1,12
 666 462 666 462 666 394 c 0,13,14
 666 349 666 349 651.5 309 c 128,-1,15
 637 269 637 269 612 237 c 1,16,-1
 542 273 l 1,17,18
 563 299 563 299 574.5 329.5 c 128,-1,19
 586 360 586 360 586 395 c 0,20,21
 586 445 586 445 565.5 482 c 128,-1,22
 545 519 545 519 510.5 544 c 128,-1,23
 476 569 476 569 433 581 c 128,-1,24
 390 593 390 593 344 593 c 0,25,26
 297 593 297 593 254.5 580.5 c 128,-1,27
 212 568 212 568 179 543.5 c 128,-1,28
 146 519 146 519 127 483.5 c 128,-1,29
 108 448 108 448 108 403 c 0,30,31
 108 360 108 360 126 322.5 c 128,-1,32
 144 285 144 285 181 254 c 1,33,-1
 153 198 l 1,34,-1
 153 198 l 1,0,1
312 -8 m 1,35,36
 259 -8 259 -8 217 14.5 c 128,-1,37
 175 37 175 37 150.5 78 c 128,-1,38
 126 119 126 119 126 174 c 256,39,40
 126 229 126 229 150.5 269.5 c 128,-1,41
 175 310 175 310 217 332.5 c 128,-1,42
 259 355 259 355 312 355 c 0,43,44
 364 355 364 355 406 332.5 c 128,-1,45
 448 310 448 310 473.5 269.5 c 128,-1,46
 499 229 499 229 499 174 c 256,47,48
 499 119 499 119 473.5 78 c 128,-1,49
 448 37 448 37 406 14.5 c 128,-1,50
 364 -8 364 -8 312 -8 c 1,51,-1
 312 -8 l 1,35,36
312 57 m 1,52,53
 362 57 362 57 394.5 89 c 128,-1,54
 427 121 427 121 427 174 c 0,55,56
 427 226 427 226 394.5 257.5 c 128,-1,57
 362 289 362 289 312 289 c 256,58,59
 262 289 262 289 230 257.5 c 128,-1,60
 198 226 198 226 198 174 c 0,61,62
 198 121 198 121 230.5 89 c 128,-1,63
 263 57 263 57 312 57 c 1,64,-1
 312 57 l 1,52,53
EndSplineSet
Substitution2: "Single Substitution lookup 10 subtable" uni0B1A.base
Substitution2: "'aalt' Access All Alternates lookup 0 subtable" uni0B1A.base
EndChar

StartChar: uni0B1B
Encoding: 2843 2843 26
Width: 717
GlyphClass: 2
Flags: W
AnchorPoint: "Anchor-5" 358 -158 basechar 0
AnchorPoint: "Anchor-4" 599 0 basechar 0
AnchorPoint: "Anchor-3" 494 0 basechar 0
AnchorPoint: "Anchor-1" 590 658 basechar 0
AnchorPoint: "Anchor-0" 352 658 basechar 0
LayerCount: 2
Fore
SplineSet
188 272 m 1,0,1
 138 285 138 285 103 312 c 128,-1,2
 68 339 68 339 50 376 c 128,-1,3
 32 413 32 413 32 454 c 0,4,5
 32 522 32 522 75 569 c 128,-1,6
 118 616 118 616 190.5 641 c 128,-1,7
 263 666 263 666 352 666 c 0,8,9
 423 666 423 666 483.5 650.5 c 128,-1,10
 544 635 544 635 589.5 605 c 128,-1,11
 635 575 635 575 660 531.5 c 128,-1,12
 685 488 685 488 685 432 c 0,13,14
 685 410 685 410 680.5 385.5 c 128,-1,15
 676 361 676 361 666 337 c 1,16,-1
 595 358 l 1,17,18
 602 373 602 373 605.5 389.5 c 128,-1,19
 609 406 609 406 609 424 c 0,20,21
 609 466 609 466 588.5 498 c 128,-1,22
 568 530 568 530 532 552 c 128,-1,23
 496 574 496 574 449.5 585.5 c 128,-1,24
 403 597 403 597 351 597 c 0,25,26
 280 597 280 597 225 577 c 128,-1,27
 170 557 170 557 139 522 c 128,-1,28
 108 487 108 487 108 441 c 0,29,30
 108 401 108 401 131.5 368.5 c 128,-1,31
 155 336 155 336 197 319 c 1,32,-1
 188 272 l 1,33,-1
 188 272 l 1,0,1
183 49 m 1,34,35
 211 49 211 49 242.5 63.5 c 128,-1,36
 274 78 274 78 305 105 c 1,37,38
 279 129 279 129 248 146 c 128,-1,39
 217 163 217 163 185 163 c 0,40,41
 156 163 156 163 138.5 148 c 128,-1,42
 121 133 121 133 121 107 c 0,43,44
 121 82 121 82 138 65.5 c 128,-1,45
 155 49 155 49 183 49 c 1,46,-1
 183 49 l 1,34,35
173 -8 m 1,47,48
 137 -8 137 -8 111.5 7 c 128,-1,49
 86 22 86 22 72 47.5 c 128,-1,50
 58 73 58 73 58 104 c 0,51,52
 58 133 58 133 70.5 157 c 128,-1,53
 83 181 83 181 110 195.5 c 128,-1,54
 137 210 137 210 180 210 c 1,55,-1
 184 177 l 1,56,57
 167 183 167 183 142.5 188 c 128,-1,58
 118 193 118 193 90 196.5 c 128,-1,59
 62 200 62 200 33 203 c 1,60,-1
 38 258 l 1,61,62
 99 252 99 252 158.5 233 c 128,-1,63
 218 214 218 214 269 188 c 128,-1,64
 320 162 320 162 353 136 c 1,65,66
 394 168 394 168 423.5 185 c 128,-1,67
 453 202 453 202 476.5 209 c 128,-1,68
 500 216 500 216 523 216 c 0,69,70
 564 216 564 216 591.5 201 c 128,-1,71
 619 186 619 186 633 160.5 c 128,-1,72
 647 135 647 135 647 103 c 0,73,74
 647 72 647 72 633 46.5 c 128,-1,75
 619 21 619 21 593 6.5 c 128,-1,76
 567 -8 567 -8 531 -8 c 0,77,78
 494 -8 494 -8 449 11.5 c 128,-1,79
 404 31 404 31 354 75 c 1,80,81
 308 35 308 35 262.5 13.5 c 128,-1,82
 217 -8 217 -8 173 -8 c 1,83,-1
 173 -8 l 1,47,48
521 49 m 1,84,85
 549 49 549 49 566.5 65.5 c 128,-1,86
 584 82 584 82 584 107 c 256,87,88
 584 132 584 132 566.5 147.5 c 128,-1,89
 549 163 549 163 515 163 c 0,90,91
 498 163 498 163 482 158 c 128,-1,92
 466 153 466 153 447 140.5 c 128,-1,93
 428 128 428 128 400 105 c 1,94,95
 435 76 435 76 466.5 62.5 c 128,-1,96
 498 49 498 49 521 49 c 1,97,-1
 521 49 l 1,84,85
351 173 m 1,98,99
 383 173 383 173 409.5 185.5 c 128,-1,100
 436 198 436 198 451.5 222 c 128,-1,101
 467 246 467 246 467 282 c 0,102,103
 467 317 467 317 451.5 342 c 128,-1,104
 436 367 436 367 409.5 380.5 c 128,-1,105
 383 394 383 394 350 394 c 256,106,107
 317 394 317 394 291 380.5 c 128,-1,108
 265 367 265 367 249.5 342.5 c 128,-1,109
 234 318 234 318 234 285 c 0,110,111
 234 249 234 249 249.5 224 c 128,-1,112
 265 199 265 199 292 186 c 128,-1,113
 319 173 319 173 351 173 c 1,114,-1
 351 173 l 1,98,99
353 126 m 1,115,116
 296 126 296 126 254.5 148.5 c 128,-1,117
 213 171 213 171 190 209 c 128,-1,118
 167 247 167 247 167 294 c 0,119,120
 167 343 167 343 190.5 380 c 128,-1,121
 214 417 214 417 255.5 438.5 c 128,-1,122
 297 460 297 460 352 460 c 256,123,124
 407 460 407 460 447.5 438.5 c 128,-1,125
 488 417 488 417 511 379 c 128,-1,126
 534 341 534 341 534 291 c 0,127,128
 534 240 534 240 510.5 203 c 128,-1,129
 487 166 487 166 446.5 146 c 128,-1,130
 406 126 406 126 353 126 c 1,131,-1
 353 126 l 1,115,116
EndSplineSet
Substitution2: "'rclt' Required Contextual Alternates lookup 150 subtable" uni0B1B.BRACKET.varAlt01
Substitution2: "Single Substitution lookup 10 subtable" uni0B1B.base
Substitution2: "'aalt' Access All Alternates lookup 0 subtable" uni0B1B.base
EndChar

StartChar: uni0B1C
Encoding: 2844 2844 27
Width: 752
GlyphClass: 2
Flags: W
AnchorPoint: "Anchor-5" 376 -158 basechar 0
AnchorPoint: "Anchor-4" 574 0 basechar 0
AnchorPoint: "Anchor-3" 496 0 basechar 0
AnchorPoint: "Anchor-1" 624 658 basechar 0
AnchorPoint: "Anchor-0" 367 658 basechar 0
LayerCount: 2
Fore
SplineSet
292 -8 m 1,0,1
 239 -8 239 -8 198.5 10 c 128,-1,2
 158 28 158 28 135 65 c 128,-1,3
 112 102 112 102 112 159 c 0,4,5
 112 235 112 235 152 293 c 128,-1,6
 192 351 192 351 261 397 c 1,7,-1
 291 354 l 1,8,9
 256 325 256 325 232 293 c 128,-1,10
 208 261 208 261 196 228 c 128,-1,11
 184 195 184 195 184 161 c 0,12,13
 184 109 184 109 214 81 c 128,-1,14
 244 53 244 53 294 53 c 0,15,16
 311 53 311 53 328 56.5 c 128,-1,17
 345 60 345 60 361 69 c 1,18,-1
 339 25 l 1,19,20
 325 66 325 66 316 102.5 c 128,-1,21
 307 139 307 139 307 181 c 0,22,23
 307 232 307 232 321.5 271.5 c 128,-1,24
 336 311 336 311 367.5 333 c 128,-1,25
 399 355 399 355 450 355 c 0,26,27
 509 355 509 355 541.5 323.5 c 128,-1,28
 574 292 574 292 574 228 c 2,29,-1
 574 0 l 1,30,-1
 496 0 l 1,31,-1
 496 218 l 2,32,33
 496 257 496 257 481 275.5 c 128,-1,34
 466 294 466 294 440 294 c 0,35,36
 407 294 407 294 391 265 c 128,-1,37
 375 236 375 236 375 180 c 0,38,39
 375 151 375 151 379 121.5 c 128,-1,40
 383 92 383 92 390 64.5 c 128,-1,41
 397 37 397 37 405 12 c 1,42,43
 378 2 378 2 349.5 -3 c 128,-1,44
 321 -8 321 -8 292 -8 c 1,45,-1
 292 -8 l 1,0,1
156 197 m 1,46,47
 92 244 92 244 62 297.5 c 128,-1,48
 32 351 32 351 32 411 c 0,49,50
 32 469 32 469 58 516 c 128,-1,51
 84 563 84 563 130 596.5 c 128,-1,52
 176 630 176 630 236.5 648 c 128,-1,53
 297 666 297 666 367 666 c 0,54,55
 434 666 434 666 497 649 c 128,-1,56
 560 632 560 632 610.5 598 c 128,-1,57
 661 564 661 564 690.5 513.5 c 128,-1,58
 720 463 720 463 720 395 c 0,59,60
 720 353 720 353 707 316.5 c 128,-1,61
 694 280 694 280 671 250 c 1,62,-1
 600 281 l 1,63,64
 619 304 619 304 629.5 333 c 128,-1,65
 640 362 640 362 640 395 c 0,66,67
 640 445 640 445 617 482 c 128,-1,68
 594 519 594 519 555 543.5 c 128,-1,69
 516 568 516 568 467 580.5 c 128,-1,70
 418 593 418 593 367 593 c 0,71,72
 294 593 294 593 235.5 570 c 128,-1,73
 177 547 177 547 142.5 504.5 c 128,-1,74
 108 462 108 462 108 403 c 0,75,76
 108 362 108 362 127 324.5 c 128,-1,77
 146 287 146 287 183 254 c 1,78,-1
 156 197 l 1,79,-1
 156 197 l 1,46,47
EndSplineSet
Substitution2: "'rclt' Required Contextual Alternates lookup 150 subtable" uni0B1C.BRACKET.varAlt01
Substitution2: "Single Substitution lookup 10 subtable" uni0B1C.base
Substitution2: "'aalt' Access All Alternates lookup 0 subtable" uni0B1C.base
EndChar

StartChar: uni0B1D
Encoding: 2845 2845 28
Width: 698
GlyphClass: 2
Flags: W
AnchorPoint: "Anchor-5" 360 -158 basechar 0
AnchorPoint: "Anchor-4" 533 0 basechar 0
AnchorPoint: "Anchor-3" 299 0 basechar 0
AnchorPoint: "Anchor-1" 589 658 basechar 0
AnchorPoint: "Anchor-0" 370 658 basechar 0
LayerCount: 2
Fore
SplineSet
153 198 m 1,0,1
 96 237 96 237 64 291 c 128,-1,2
 32 345 32 345 32 412 c 0,3,4
 32 462 32 462 52.5 507.5 c 128,-1,5
 73 553 73 553 115.5 589 c 128,-1,6
 158 625 158 625 224.5 645.5 c 128,-1,7
 291 666 291 666 383 666 c 0,8,9
 395 666 395 666 401.5 666 c 128,-1,10
 408 666 408 666 421 666 c 1,11,-1
 429 589 l 1,12,13
 416 591 416 591 402 592 c 128,-1,14
 388 593 388 593 365 593 c 0,15,16
 298 593 298 593 249 577 c 128,-1,17
 200 561 200 561 169 534 c 128,-1,18
 138 507 138 507 123 473 c 128,-1,19
 108 439 108 439 108 402 c 0,20,21
 108 359 108 359 127.5 320.5 c 128,-1,22
 147 282 147 282 181 254 c 1,23,-1
 153 198 l 1,24,-1
 153 198 l 1,0,1
448 78 m 1,25,-1
 467 148 l 1,26,-1
 650 65 l 1,27,-1
 618 -8 l 1,28,-1
 448 78 l 1,25,-1
312 -8 m 1,29,30
 262 -8 262 -8 219.5 13 c 128,-1,31
 177 34 177 34 151.5 75 c 128,-1,32
 126 116 126 116 126 174 c 256,33,34
 126 232 126 232 151.5 272.5 c 128,-1,35
 177 313 177 313 219.5 334 c 128,-1,36
 262 355 262 355 312 355 c 0,37,38
 363 355 363 355 405.5 334 c 128,-1,39
 448 313 448 313 473.5 272.5 c 128,-1,40
 499 232 499 232 499 174 c 256,41,42
 499 116 499 116 473.5 75 c 128,-1,43
 448 34 448 34 405.5 13 c 128,-1,44
 363 -8 363 -8 312 -8 c 1,45,-1
 312 -8 l 1,29,30
313 57 m 1,46,47
 343 57 343 57 369 70 c 128,-1,48
 395 83 395 83 411 109.5 c 128,-1,49
 427 136 427 136 427 174 c 256,50,51
 427 212 427 212 411 237.5 c 128,-1,52
 395 263 395 263 369 276 c 128,-1,53
 343 289 343 289 313 289 c 256,54,55
 283 289 283 289 257 276 c 128,-1,56
 231 263 231 263 215 237.5 c 128,-1,57
 199 212 199 212 199 174 c 256,58,59
 199 136 199 136 215 109.5 c 128,-1,60
 231 83 231 83 257 70 c 128,-1,61
 283 57 283 57 313 57 c 1,62,-1
 313 57 l 1,46,47
516 435 m 1,63,64
 568 435 568 435 592.5 460.5 c 128,-1,65
 617 486 617 486 617 523 c 0,66,67
 617 547 617 547 606 574 c 128,-1,68
 595 601 595 601 572 626 c 1,69,-1
 612 666 l 1,70,71
 650 632 650 632 669 591 c 128,-1,72
 688 550 688 550 688 511 c 0,73,74
 688 473 688 473 669.5 441 c 128,-1,75
 651 409 651 409 613 389.5 c 128,-1,76
 575 370 575 370 516 370 c 0,77,78
 458 370 458 370 420 389.5 c 128,-1,79
 382 409 382 409 363.5 441 c 128,-1,80
 345 473 345 473 345 511 c 0,81,82
 345 550 345 550 364.5 591 c 128,-1,83
 384 632 384 632 421 666 c 1,84,-1
 457 626 l 1,85,86
 436 601 436 601 426 573.5 c 128,-1,87
 416 546 416 546 416 523 c 0,88,89
 416 486 416 486 440.5 460.5 c 128,-1,90
 465 435 465 435 516 435 c 1,91,-1
 516 435 l 1,63,64
EndSplineSet
Substitution2: "Single Substitution lookup 10 subtable" uni0B1D.base
Substitution2: "'aalt' Access All Alternates lookup 0 subtable" uni0B1D.base
EndChar

StartChar: uni0B1E
Encoding: 2846 2846 29
Width: 738
GlyphClass: 2
Flags: W
AnchorPoint: "Anchor-5" 369 -158 basechar 0
AnchorPoint: "Anchor-4" 677 0 basechar 0
AnchorPoint: "Anchor-3" 404 0 basechar 0
AnchorPoint: "Anchor-1" 601 658 basechar 0
AnchorPoint: "Anchor-0" 368 658 basechar 0
LayerCount: 2
Fore
SplineSet
373 -8 m 1,0,1
 257 -8 257 -8 182.5 23 c 128,-1,2
 108 54 108 54 72 110.5 c 128,-1,3
 36 167 36 167 36 243 c 0,4,5
 36 279 36 279 46 314.5 c 128,-1,6
 56 350 56 350 76 383.5 c 128,-1,7
 96 417 96 417 125 446 c 1,8,-1
 166 391 l 1,9,10
 143 359 143 359 127.5 323.5 c 128,-1,11
 112 288 112 288 112 243 c 0,12,13
 112 182 112 182 141.5 141 c 128,-1,14
 171 100 171 100 230 79 c 128,-1,15
 289 58 289 58 376 58 c 0,16,17
 458 58 458 58 513.5 77.5 c 128,-1,18
 569 97 569 97 597.5 133 c 128,-1,19
 626 169 626 169 626 220 c 0,20,21
 626 267 626 267 606 295 c 128,-1,22
 586 323 586 323 551 323 c 0,23,24
 522 323 522 323 500 301 c 128,-1,25
 478 279 478 279 478 233 c 2,26,-1
 478 160 l 1,27,-1
 413 160 l 1,28,-1
 413 231 l 2,29,30
 413 273 413 273 392.5 291.5 c 128,-1,31
 372 310 372 310 342 310 c 0,32,33
 308 310 308 310 292 290 c 128,-1,34
 276 270 276 270 276 241 c 0,35,36
 276 224 276 224 281.5 204.5 c 128,-1,37
 287 185 287 185 297 165 c 1,38,-1
 234 149 l 1,39,40
 220 178 220 178 213.5 202.5 c 128,-1,41
 207 227 207 227 207 249 c 0,42,43
 207 286 207 286 222 312 c 128,-1,44
 237 338 237 338 264.5 352 c 128,-1,45
 292 366 292 366 329 366 c 0,46,47
 363 366 363 366 392.5 353.5 c 128,-1,48
 422 341 422 341 440 315 c 128,-1,49
 458 289 458 289 458 247 c 1,50,-1
 428 256 l 1,51,52
 428 299 428 299 447 326.5 c 128,-1,53
 466 354 466 354 497 368 c 128,-1,54
 528 382 528 382 562 382 c 0,55,56
 602 382 602 382 633.5 363 c 128,-1,57
 665 344 665 344 683.5 308.5 c 128,-1,58
 702 273 702 273 702 221 c 0,59,60
 702 154 702 154 666 102.5 c 128,-1,61
 630 51 630 51 557.5 21.5 c 128,-1,62
 485 -8 485 -8 373 -8 c 1,63,-1
 373 -8 l 1,0,1
379 310 m 1,64,65
 284 310 284 310 210.5 334.5 c 128,-1,66
 137 359 137 359 95.5 409 c 128,-1,67
 54 459 54 459 54 533 c 0,68,69
 54 568 54 568 63.5 601 c 128,-1,70
 73 634 73 634 89 662 c 1,71,-1
 157 640 l 1,72,73
 146 616 146 616 138 591 c 128,-1,74
 130 566 130 566 130 537 c 0,75,76
 130 458 130 458 192.5 414.5 c 128,-1,77
 255 371 255 371 378 371 c 0,78,79
 493 371 493 371 550.5 409.5 c 128,-1,80
 608 448 608 448 608 520 c 0,81,82
 608 563 608 563 589.5 585 c 128,-1,83
 571 607 571 607 540 607 c 0,84,85
 512 607 512 607 493 588.5 c 128,-1,86
 474 570 474 570 474 535 c 2,87,-1
 474 453 l 1,88,-1
 409 453 l 1,89,-1
 409 530 l 2,90,91
 409 570 409 570 389.5 588.5 c 128,-1,92
 370 607 370 607 343 607 c 0,93,94
 311 607 311 607 294 587.5 c 128,-1,95
 277 568 277 568 277 538 c 0,96,97
 277 519 277 519 282.5 499.5 c 128,-1,98
 288 480 288 480 298 459 c 1,99,-1
 235 443 l 1,100,101
 221 472 221 472 214.5 498.5 c 128,-1,102
 208 525 208 525 208 546 c 0,103,104
 208 600 208 600 240 633 c 128,-1,105
 272 666 272 666 333 666 c 0,106,107
 367 666 367 666 395 653 c 128,-1,108
 423 640 423 640 439.5 611.5 c 128,-1,109
 456 583 456 583 456 538 c 1,110,-1
 424 538 l 1,111,112
 424 584 424 584 442 612 c 128,-1,113
 460 640 460 640 489.5 653 c 128,-1,114
 519 666 519 666 553 666 c 0,115,116
 596 666 596 666 625 648.5 c 128,-1,117
 654 631 654 631 669 599 c 128,-1,118
 684 567 684 567 684 524 c 0,119,120
 684 480 684 480 667 441 c 128,-1,121
 650 402 650 402 613.5 372.5 c 128,-1,122
 577 343 577 343 519 326.5 c 128,-1,123
 461 310 461 310 379 310 c 1,124,-1
 379 310 l 1,64,65
EndSplineSet
Substitution2: "Single Substitution lookup 10 subtable" uni0B1E.base
Substitution2: "'aalt' Access All Alternates lookup 0 subtable" uni0B1E.base
EndChar

StartChar: uni0B1F
Encoding: 2847 2847 30
Width: 701
GlyphClass: 2
Flags: W
AnchorPoint: "Anchor-5" 311 -158 basechar 0
AnchorPoint: "Anchor-4" 639 0 basechar 0
AnchorPoint: "Anchor-3" 296 0 basechar 0
AnchorPoint: "Anchor-1" 600 658 basechar 0
AnchorPoint: "Anchor-0" 323 658 basechar 0
LayerCount: 2
Fore
SplineSet
153 198 m 1,0,1
 92 238 92 238 62 292.5 c 128,-1,2
 32 347 32 347 32 412 c 0,3,4
 32 475 32 475 56 522.5 c 128,-1,5
 80 570 80 570 120.5 602 c 128,-1,6
 161 634 161 634 213.5 650 c 128,-1,7
 266 666 266 666 323 666 c 0,8,9
 384 666 384 666 439.5 646.5 c 128,-1,10
 495 627 495 627 538.5 587.5 c 128,-1,11
 582 548 582 548 607 488.5 c 128,-1,12
 632 429 632 429 632 348 c 1,13,-1
 575 348 l 1,14,15
 575 410 575 410 555 456 c 128,-1,16
 535 502 535 502 500.5 532.5 c 128,-1,17
 466 563 466 563 422 578 c 128,-1,18
 378 593 378 593 330 593 c 0,19,20
 272 593 272 593 221.5 571.5 c 128,-1,21
 171 550 171 550 139.5 508 c 128,-1,22
 108 466 108 466 108 404 c 0,23,24
 108 358 108 358 127.5 319.5 c 128,-1,25
 147 281 147 281 181 254 c 1,26,-1
 153 198 l 1,27,-1
 153 198 l 1,0,1
561 475 m 1,28,-1
 565 513 l 1,29,-1
 561 658 l 1,30,-1
 639 658 l 1,31,-1
 639 313 l 1,32,-1
 561 313 l 1,33,-1
 561 475 l 1,28,-1
311 -8 m 1,34,35
 259 -8 259 -8 217 14.5 c 128,-1,36
 175 37 175 37 150.5 78 c 128,-1,37
 126 119 126 119 126 174 c 256,38,39
 126 229 126 229 150.5 269.5 c 128,-1,40
 175 310 175 310 217 332.5 c 128,-1,41
 259 355 259 355 311 355 c 256,42,43
 363 355 363 355 405.5 332.5 c 128,-1,44
 448 310 448 310 473.5 269.5 c 128,-1,45
 499 229 499 229 499 174 c 256,46,47
 499 119 499 119 473.5 78 c 128,-1,48
 448 37 448 37 405.5 14.5 c 128,-1,49
 363 -8 363 -8 311 -8 c 1,50,-1
 311 -8 l 1,34,35
312 57 m 1,51,52
 362 57 362 57 394.5 89 c 128,-1,53
 427 121 427 121 427 174 c 0,54,55
 427 226 427 226 394.5 257.5 c 128,-1,56
 362 289 362 289 312 289 c 256,57,58
 262 289 262 289 230 257.5 c 128,-1,59
 198 226 198 226 198 174 c 256,60,61
 198 122 198 122 230.5 89.5 c 128,-1,62
 263 57 263 57 312 57 c 1,63,-1
 312 57 l 1,51,52
EndSplineSet
Substitution2: "Single Substitution lookup 10 subtable" uni0B1F.base
Substitution2: "'aalt' Access All Alternates lookup 0 subtable" uni0B1F.base
EndChar

StartChar: uni0B20
Encoding: 2848 2848 31
Width: 754
GlyphClass: 2
Flags: W
AnchorPoint: "Anchor-5" 377 -157 basechar 0
AnchorPoint: "Anchor-4" 658 0 basechar 0
AnchorPoint: "Anchor-3" 375 0 basechar 0
AnchorPoint: "Anchor-1" 623 658 basechar 0
AnchorPoint: "Anchor-0" 379 658 basechar 0
LayerCount: 2
Fore
SplineSet
378 -7 m 1,0,1
 274 -7 274 -7 196 35 c 128,-1,2
 118 77 118 77 75 152.5 c 128,-1,3
 32 228 32 228 32 328 c 0,4,5
 32 429 32 429 75.5 505 c 128,-1,6
 119 581 119 581 197 623.5 c 128,-1,7
 275 666 275 666 379 666 c 0,8,9
 482 666 482 666 559 623.5 c 128,-1,10
 636 581 636 581 679 505 c 128,-1,11
 722 429 722 429 722 328 c 0,12,13
 722 228 722 228 679 152.5 c 128,-1,14
 636 77 636 77 558.5 35 c 128,-1,15
 481 -7 481 -7 378 -7 c 1,16,-1
 378 -7 l 1,0,1
378 66 m 1,17,18
 457 66 457 66 516.5 99 c 128,-1,19
 576 132 576 132 609 192 c 128,-1,20
 642 252 642 252 642 331 c 256,21,22
 642 410 642 410 609.5 468.5 c 128,-1,23
 577 527 577 527 518 560 c 128,-1,24
 459 593 459 593 380 593 c 0,25,26
 300 593 300 593 239.5 560 c 128,-1,27
 179 527 179 527 145.5 467.5 c 128,-1,28
 112 408 112 408 112 328 c 0,29,30
 112 250 112 250 145.5 191 c 128,-1,31
 179 132 179 132 239 99 c 128,-1,32
 299 66 299 66 378 66 c 1,33,-1
 378 66 l 1,17,18
EndSplineSet
Substitution2: "Single Substitution lookup 10 subtable" uni0B20.base
Substitution2: "'aalt' Access All Alternates lookup 0 subtable" uni0B20.base
EndChar

StartChar: uni0B21
Encoding: 2849 2849 32
Width: 734
GlyphClass: 2
Flags: W
AnchorPoint: "Anchor-5" 354 -151 basechar 0
AnchorPoint: "Anchor-4" 630 0 basechar 0
AnchorPoint: "Anchor-3" 337 0 basechar 0
AnchorPoint: "Anchor-1" 606 658 basechar 0
AnchorPoint: "Anchor-0" 364 658 basechar 0
LayerCount: 2
Fore
SplineSet
168 196 m 1,0,1
 102 231 102 231 67 289.5 c 128,-1,2
 32 348 32 348 32 414 c 0,3,4
 32 467 32 467 54.5 513 c 128,-1,5
 77 559 77 559 120 593.5 c 128,-1,6
 163 628 163 628 224.5 647 c 128,-1,7
 286 666 286 666 364 666 c 0,8,9
 428 666 428 666 488.5 649 c 128,-1,10
 549 632 549 632 597 598.5 c 128,-1,11
 645 565 645 565 673.5 514.5 c 128,-1,12
 702 464 702 464 702 396 c 0,13,14
 702 348 702 348 686.5 306.5 c 128,-1,15
 671 265 671 265 642 232 c 1,16,-1
 574 268 l 1,17,18
 598 295 598 295 610 326.5 c 128,-1,19
 622 358 622 358 622 395 c 0,20,21
 622 445 622 445 600.5 482 c 128,-1,22
 579 519 579 519 543 543.5 c 128,-1,23
 507 568 507 568 461 580.5 c 128,-1,24
 415 593 415 593 365 593 c 0,25,26
 279 593 279 593 222 566.5 c 128,-1,27
 165 540 165 540 136.5 497.5 c 128,-1,28
 108 455 108 455 108 406 c 0,29,30
 108 361 108 361 131.5 318.5 c 128,-1,31
 155 276 155 276 195 253 c 1,32,-1
 168 196 l 1,33,-1
 168 196 l 1,0,1
149 170 m 1,34,35
 149 207 149 207 163 246.5 c 128,-1,36
 177 286 177 286 208 325 c 128,-1,37
 239 364 239 364 291 398 c 1,38,-1
 326 352 l 1,39,40
 271 308 271 308 248 261.5 c 128,-1,41
 225 215 225 215 225 177 c 0,42,43
 225 141 225 141 242.5 115 c 128,-1,44
 260 89 260 89 289 75 c 128,-1,45
 318 61 318 61 353 61 c 0,46,47
 384 61 384 61 412 71.5 c 128,-1,48
 440 82 440 82 458 103.5 c 128,-1,49
 476 125 476 125 476 156 c 256,50,51
 476 187 476 187 456 214.5 c 128,-1,52
 436 242 436 242 393 263 c 1,53,-1
 444 310 l 1,54,55
 500 282 500 282 524 241.5 c 128,-1,56
 548 201 548 201 548 157 c 0,57,58
 548 104 548 104 519.5 67 c 128,-1,59
 491 30 491 30 445.5 11 c 128,-1,60
 400 -8 400 -8 348 -8 c 0,61,62
 293 -8 293 -8 247.5 13.5 c 128,-1,63
 202 35 202 35 175.5 75 c 128,-1,64
 149 115 149 115 149 170 c 1,65,-1
 149 170 l 1,34,35
327 227 m 1,66,-1
 479 386 l 1,67,-1
 520 345 l 1,68,-1
 368 186 l 1,69,-1
 327 227 l 1,66,-1
EndSplineSet
Substitution2: "'rclt' Required Contextual Alternates lookup 150 subtable" uni0B21.BRACKET.varAlt01
Substitution2: "Single Substitution lookup 10 subtable" uni0B21.base
Substitution2: "'aalt' Access All Alternates lookup 0 subtable" uni0B21.base
EndChar

StartChar: uni0B22
Encoding: 2850 2850 33
Width: 734
GlyphClass: 2
Flags: W
AnchorPoint: "Anchor-5" 361 -151 basechar 0
AnchorPoint: "Anchor-4" 644 0 basechar 0
AnchorPoint: "Anchor-3" 279 0 basechar 0
AnchorPoint: "Anchor-1" 606 658 basechar 0
AnchorPoint: "Anchor-0" 365 658 basechar 0
LayerCount: 2
Fore
SplineSet
126 164 m 1,0,1
 126 229 126 229 164.5 291 c 128,-1,2
 203 353 203 353 275 401 c 1,3,-1
 308 358 l 1,4,5
 259 319 259 319 228.5 270 c 128,-1,6
 198 221 198 221 198 171 c 0,7,8
 198 142 198 142 209.5 115.5 c 128,-1,9
 221 89 221 89 246.5 73 c 128,-1,10
 272 57 272 57 314 57 c 0,11,12
 352 57 352 57 382.5 69.5 c 128,-1,13
 413 82 413 82 434.5 103.5 c 128,-1,14
 456 125 456 125 467.5 150.5 c 128,-1,15
 479 176 479 176 479 201 c 0,16,17
 479 229 479 229 465.5 247 c 128,-1,18
 452 265 452 265 423 265 c 0,19,20
 397 265 397 265 381.5 246.5 c 128,-1,21
 366 228 366 228 366 201 c 0,22,23
 366 154 366 154 415 105 c 128,-1,24
 464 56 464 56 573 21 c 1,25,-1
 555 -38 l 1,26,27
 469 -9 469 -9 412 28 c 128,-1,28
 355 65 355 65 327 110 c 128,-1,29
 299 155 299 155 299 206 c 0,30,31
 299 242 299 242 314.5 268.5 c 128,-1,32
 330 295 330 295 358 310 c 128,-1,33
 386 325 386 325 421 325 c 0,34,35
 460 325 460 325 488.5 309.5 c 128,-1,36
 517 294 517 294 532 267 c 128,-1,37
 547 240 547 240 547 205 c 0,38,39
 547 171 547 171 530.5 133.5 c 128,-1,40
 514 96 514 96 482 64 c 128,-1,41
 450 32 450 32 404.5 12 c 128,-1,42
 359 -8 359 -8 300 -8 c 0,43,44
 240 -8 240 -8 201.5 16.5 c 128,-1,45
 163 41 163 41 144.5 80 c 128,-1,46
 126 119 126 119 126 164 c 1,47,-1
 126 164 l 1,0,1
168 196 m 1,48,49
 102 231 102 231 67 289.5 c 128,-1,50
 32 348 32 348 32 415 c 0,51,52
 32 473 32 473 57 519.5 c 128,-1,53
 82 566 82 566 126.5 598.5 c 128,-1,54
 171 631 171 631 231 648.5 c 128,-1,55
 291 666 291 666 360 666 c 0,56,57
 432 666 432 666 494.5 647.5 c 128,-1,58
 557 629 557 629 603.5 593.5 c 128,-1,59
 650 558 650 558 676 508.5 c 128,-1,60
 702 459 702 459 702 396 c 0,61,62
 702 349 702 349 686.5 307.5 c 128,-1,63
 671 266 671 266 643 233 c 1,64,-1
 576 270 l 1,65,66
 599 297 599 297 610.5 328 c 128,-1,67
 622 359 622 359 622 394 c 0,68,69
 622 444 622 444 601 481.5 c 128,-1,70
 580 519 580 519 543.5 543.5 c 128,-1,71
 507 568 507 568 460 580.5 c 128,-1,72
 413 593 413 593 361 593 c 0,73,74
 287 593 287 593 230 570 c 128,-1,75
 173 547 173 547 140.5 505 c 128,-1,76
 108 463 108 463 108 407 c 0,77,78
 108 361 108 361 131.5 318.5 c 128,-1,79
 155 276 155 276 195 253 c 1,80,-1
 168 196 l 1,81,-1
 168 196 l 1,48,49
EndSplineSet
Substitution2: "'rclt' Required Contextual Alternates lookup 150 subtable" uni0B22.BRACKET.varAlt01
Substitution2: "Single Substitution lookup 10 subtable" uni0B22.base
Substitution2: "'aalt' Access All Alternates lookup 0 subtable" uni0B22.base
EndChar

StartChar: uni0B23
Encoding: 2851 2851 34
Width: 741
GlyphClass: 2
Flags: W
AnchorPoint: "Anchor-5" 355 -158 basechar 0
AnchorPoint: "Anchor-4" 679 0 basechar 0
AnchorPoint: "Anchor-3" 601 0 basechar 0
AnchorPoint: "Anchor-1" 640 658 basechar 0
AnchorPoint: "Anchor-0" 370 658 basechar 0
LayerCount: 2
Fore
SplineSet
32 234 m 1,0,1
 32 300 32 300 62 352 c 128,-1,2
 92 404 92 404 148.5 434.5 c 128,-1,3
 205 465 205 465 284 465 c 0,4,5
 316 465 316 465 351 459 c 128,-1,6
 386 453 386 453 420 440 c 1,7,-1
 401 383 l 1,8,9
 374 393 374 393 345 398.5 c 128,-1,10
 316 404 316 404 290 404 c 0,11,12
 232 404 232 404 192 381.5 c 128,-1,13
 152 359 152 359 132 321 c 128,-1,14
 112 283 112 283 112 235 c 256,15,16
 112 187 112 187 129 152.5 c 128,-1,17
 146 118 146 118 173.5 96 c 128,-1,18
 201 74 201 74 234 64 c 128,-1,19
 267 54 267 54 299 54 c 0,20,21
 332 54 332 54 359.5 63.5 c 128,-1,22
 387 73 387 73 403.5 92 c 128,-1,23
 420 111 420 111 420 138 c 0,24,25
 420 166 420 166 402.5 186 c 128,-1,26
 385 206 385 206 353 216.5 c 128,-1,27
 321 227 321 227 275 227 c 0,28,29
 231 227 231 227 184 217.5 c 128,-1,30
 137 208 137 208 101 192 c 1,31,-1
 97 250 l 1,32,33
 138 267 138 267 185 276 c 128,-1,34
 232 285 232 285 279 285 c 0,35,36
 348 285 348 285 397.5 267 c 128,-1,37
 447 249 447 249 473.5 216 c 128,-1,38
 500 183 500 183 500 136 c 0,39,40
 500 90 500 90 473.5 58 c 128,-1,41
 447 26 447 26 402 9 c 128,-1,42
 357 -8 357 -8 302 -8 c 0,43,44
 253 -8 253 -8 205 6 c 128,-1,45
 157 20 157 20 118 49.5 c 128,-1,46
 79 79 79 79 55.5 125 c 128,-1,47
 32 171 32 171 32 234 c 1,48,-1
 32 234 l 1,0,1
601 475 m 1,49,-1
 605 513 l 1,50,-1
 601 658 l 1,51,-1
 679 658 l 1,52,-1
 679 0 l 1,53,-1
 601 0 l 1,54,-1
 601 475 l 1,49,-1
355 601 m 1,55,56
 303 601 303 601 272.5 578 c 128,-1,57
 242 555 242 555 242 514 c 0,58,59
 242 498 242 498 247 480 c 128,-1,60
 252 462 252 462 260 445 c 1,61,-1
 198 424 l 1,62,63
 185 449 185 449 177.5 474.5 c 128,-1,64
 170 500 170 500 170 525 c 0,65,66
 170 567 170 567 191 599 c 128,-1,67
 212 631 212 631 251.5 648.5 c 128,-1,68
 291 666 291 666 346 666 c 256,69,70
 401 666 401 666 458.5 646.5 c 128,-1,71
 516 627 516 627 564.5 587.5 c 128,-1,72
 613 548 613 548 643 488 c 128,-1,73
 673 428 673 428 673 347 c 1,74,-1
 611 344 l 1,75,76
 611 408 611 408 587.5 456 c 128,-1,77
 564 504 564 504 525.5 536.5 c 128,-1,78
 487 569 487 569 442 585 c 128,-1,79
 397 601 397 601 355 601 c 1,80,-1
 355 601 l 1,55,56
EndSplineSet
Substitution2: "Single Substitution lookup 10 subtable" uni0B23.base
Substitution2: "'aalt' Access All Alternates lookup 0 subtable" uni0B23.base
EndChar

StartChar: uni0B24
Encoding: 2852 2852 35
Width: 734
GlyphClass: 2
Flags: W
AnchorPoint: "Anchor-5" 367 -158 basechar 0
AnchorPoint: "Anchor-4" 634 0 basechar 0
AnchorPoint: "Anchor-3" 338 0 basechar 0
AnchorPoint: "Anchor-1" 606 658 basechar 0
AnchorPoint: "Anchor-0" 364 658 basechar 0
LayerCount: 2
Fore
SplineSet
32 414 m 1,0,1
 32 474 32 474 58 520.5 c 128,-1,2
 84 567 84 567 130.5 599.5 c 128,-1,3
 177 632 177 632 237 649 c 128,-1,4
 297 666 297 666 364 666 c 0,5,6
 433 666 433 666 494 648.5 c 128,-1,7
 555 631 555 631 602 598 c 128,-1,8
 649 565 649 565 675.5 517.5 c 128,-1,9
 702 470 702 470 702 409 c 0,10,11
 702 360 702 360 686.5 317 c 128,-1,12
 671 274 671 274 642 240 c 1,13,-1
 575 276 l 1,14,15
 598 304 598 304 610 337 c 128,-1,16
 622 370 622 370 622 408 c 0,17,18
 622 454 622 454 601 488.5 c 128,-1,19
 580 523 580 523 544 546.5 c 128,-1,20
 508 570 508 570 461 581.5 c 128,-1,21
 414 593 414 593 362 593 c 0,22,23
 291 593 291 593 233 570 c 128,-1,24
 175 547 175 547 141.5 505 c 128,-1,25
 108 463 108 463 108 406 c 0,26,27
 108 382 108 382 116.5 353 c 128,-1,28
 125 324 125 324 144 297.5 c 128,-1,29
 163 271 163 271 195 253 c 1,30,-1
 168 196 l 1,31,32
 99 235 99 235 65.5 292 c 128,-1,33
 32 349 32 349 32 414 c 1,34,-1
 32 414 l 1,0,1
149 179 m 1,35,36
 149 240 149 240 183.5 295.5 c 128,-1,37
 218 351 218 351 280 398 c 1,38,-1
 315 352 l 1,39,40
 272 313 272 313 248.5 270.5 c 128,-1,41
 225 228 225 228 225 183 c 0,42,43
 225 144 225 144 242.5 116.5 c 128,-1,44
 260 89 260 89 289.5 75 c 128,-1,45
 319 61 319 61 355 61 c 0,46,47
 392 61 392 61 419 75.5 c 128,-1,48
 446 90 446 90 461 114.5 c 128,-1,49
 476 139 476 139 476 169 c 0,50,51
 476 194 476 194 467 214 c 128,-1,52
 458 234 458 234 442 246 c 128,-1,53
 426 258 426 258 404 258 c 1,54,-1
 403 303 l 1,55,56
 419 303 419 303 431 296 c 128,-1,57
 443 289 443 289 449.5 277.5 c 128,-1,58
 456 266 456 266 456 251 c 0,59,60
 456 226 456 226 439.5 212.5 c 128,-1,61
 423 199 423 199 401 199 c 0,62,63
 377 199 377 199 360.5 215 c 128,-1,64
 344 231 344 231 344 257 c 0,65,66
 344 288 344 288 366 304.5 c 128,-1,67
 388 321 388 321 418 321 c 0,68,69
 447 321 447 321 477 305 c 128,-1,70
 507 289 507 289 527.5 256 c 128,-1,71
 548 223 548 223 548 172 c 0,72,73
 548 129 548 129 527 87.5 c 128,-1,74
 506 46 506 46 463 19 c 128,-1,75
 420 -8 420 -8 352 -8 c 0,76,77
 294 -8 294 -8 248 14 c 128,-1,78
 202 36 202 36 175.5 78 c 128,-1,79
 149 120 149 120 149 179 c 1,80,-1
 149 179 l 1,35,36
EndSplineSet
Substitution2: "'rclt' Required Contextual Alternates lookup 150 subtable" uni0B24.BRACKET.varAlt01
Substitution2: "Single Substitution lookup 10 subtable" uni0B24.base
Substitution2: "'aalt' Access All Alternates lookup 0 subtable" uni0B24.base
EndChar

StartChar: uni0B25
Encoding: 2853 2853 36
Width: 690
GlyphClass: 2
Flags: W
AnchorPoint: "Anchor-5" 330 -158 basechar 0
AnchorPoint: "Anchor-4" 628 0 basechar 0
AnchorPoint: "Anchor-3" 550 0 basechar 0
AnchorPoint: "Anchor-1" 589 658 basechar 0
AnchorPoint: "Anchor-0" 275 658 basechar 0
LayerCount: 2
Fore
SplineSet
379 501 m 1,0,1
 379 546 379 546 351.5 573 c 128,-1,2
 324 600 324 600 273 600 c 256,3,4
 222 600 222 600 192.5 572.5 c 128,-1,5
 163 545 163 545 163 498 c 0,6,7
 163 483 163 483 166.5 466 c 128,-1,8
 170 449 170 449 179 430 c 1,9,-1
 104 408 l 1,10,11
 95 429 95 429 89 453 c 128,-1,12
 83 477 83 477 83 502 c 0,13,14
 83 578 83 578 134.5 622 c 128,-1,15
 186 666 186 666 275 666 c 0,16,17
 362 666 362 666 410.5 623 c 128,-1,18
 459 580 459 580 459 503 c 0,19,20
 459 462 459 462 445.5 432 c 128,-1,21
 432 402 432 402 409.5 381 c 128,-1,22
 387 360 387 360 358.5 345.5 c 128,-1,23
 330 331 330 331 300 321 c 2,24,-1
 232 297 l 2,25,26
 201 287 201 287 173.5 274 c 128,-1,27
 146 261 146 261 129 239.5 c 128,-1,28
 112 218 112 218 112 182 c 0,29,30
 112 133 112 133 148.5 99 c 128,-1,31
 185 65 185 65 261 65 c 0,32,33
 303 65 303 65 346.5 76 c 128,-1,34
 390 87 390 87 432 109 c 128,-1,35
 474 131 474 131 511 164 c 128,-1,36
 548 197 548 197 578 242 c 1,37,-1
 584 145 l 1,38,39
 532 75 532 75 446 33.5 c 128,-1,40
 360 -8 360 -8 259 -8 c 0,41,42
 182 -8 182 -8 131.5 16 c 128,-1,43
 81 40 81 40 56.5 82.5 c 128,-1,44
 32 125 32 125 32 178 c 0,45,46
 32 229 32 229 51 261.5 c 128,-1,47
 70 294 70 294 100 314 c 128,-1,48
 130 334 130 334 165.5 346.5 c 128,-1,49
 201 359 201 359 234 369 c 2,50,-1
 254 376 l 2,51,52
 273 382 273 382 294.5 390.5 c 128,-1,53
 316 399 316 399 335.5 413 c 128,-1,54
 355 427 355 427 367 448.5 c 128,-1,55
 379 470 379 470 379 501 c 1,56,-1
 379 501 l 1,0,1
558 145 m 1,57,-1
 550 175 l 1,58,-1
 550 658 l 1,59,-1
 628 658 l 1,60,-1
 628 0 l 1,61,-1
 550 0 l 1,62,-1
 558 145 l 1,57,-1
EndSplineSet
Substitution2: "Single Substitution lookup 10 subtable" uni0B25.base
Substitution2: "'aalt' Access All Alternates lookup 0 subtable" uni0B25.base
EndChar

StartChar: uni0B26
Encoding: 2854 2854 37
Width: 752
GlyphClass: 2
Flags: W
AnchorPoint: "Anchor-5" 376 -150 basechar 0
AnchorPoint: "Anchor-4" 638 0 basechar 0
AnchorPoint: "Anchor-3" 440 0 basechar 0
AnchorPoint: "Anchor-1" 624 658 basechar 0
AnchorPoint: "Anchor-0" 367 658 basechar 0
LayerCount: 2
Fore
SplineSet
323 64 m 1,0,1
 266 64 266 64 227.5 84.5 c 128,-1,2
 189 105 189 105 170 138.5 c 128,-1,3
 151 172 151 172 151 210 c 0,4,5
 151 259 151 259 183 307.5 c 128,-1,6
 215 356 215 356 280 385 c 1,7,-1
 312 341 l 1,8,9
 273 319 273 319 252 284.5 c 128,-1,10
 231 250 231 250 231 217 c 0,11,12
 231 180 231 180 257 153 c 128,-1,13
 283 126 283 126 336 126 c 0,14,15
 375 126 375 126 409 142.5 c 128,-1,16
 443 159 443 159 460 195 c 1,17,-1
 504 177 l 1,18,19
 491 139 491 139 464.5 113.5 c 128,-1,20
 438 88 438 88 402 76 c 128,-1,21
 366 64 366 64 323 64 c 1,22,-1
 323 64 l 1,0,1
447 130 m 1,23,-1
 440 143 l 1,24,-1
 440 320 l 1,25,-1
 518 320 l 1,26,-1
 518 0 l 1,27,-1
 440 0 l 1,28,-1
 447 130 l 1,23,-1
174 188 m 1,29,30
 126 215 126 215 94.5 249.5 c 128,-1,31
 63 284 63 284 47.5 325 c 128,-1,32
 32 366 32 366 32 411 c 0,33,34
 32 469 32 469 58 516 c 128,-1,35
 84 563 84 563 130 596.5 c 128,-1,36
 176 630 176 630 236.5 648 c 128,-1,37
 297 666 297 666 367 666 c 0,38,39
 434 666 434 666 497 649 c 128,-1,40
 560 632 560 632 610.5 598 c 128,-1,41
 661 564 661 564 690.5 513.5 c 128,-1,42
 720 463 720 463 720 395 c 0,43,44
 720 350 720 350 705.5 310.5 c 128,-1,45
 691 271 691 271 664 237 c 1,46,-1
 596 273 l 1,47,48
 617 299 617 299 628.5 329.5 c 128,-1,49
 640 360 640 360 640 395 c 0,50,51
 640 445 640 445 617 482 c 128,-1,52
 594 519 594 519 555 543.5 c 128,-1,53
 516 568 516 568 467 580.5 c 128,-1,54
 418 593 418 593 367 593 c 0,55,56
 294 593 294 593 235.5 570 c 128,-1,57
 177 547 177 547 142.5 504.5 c 128,-1,58
 108 462 108 462 108 403 c 0,59,60
 108 372 108 372 118.5 342 c 128,-1,61
 129 312 129 312 149.5 287 c 128,-1,62
 170 262 170 262 200 244 c 1,63,-1
 174 188 l 1,64,-1
 174 188 l 1,29,30
EndSplineSet
Substitution2: "Single Substitution lookup 10 subtable" uni0B26.base
Substitution2: "'aalt' Access All Alternates lookup 0 subtable" uni0B26.base
EndChar

StartChar: uni0B27
Encoding: 2855 2855 38
Width: 691
GlyphClass: 2
Flags: W
AnchorPoint: "Anchor-5" 330 -158 basechar 0
AnchorPoint: "Anchor-4" 629 0 basechar 0
AnchorPoint: "Anchor-3" 551 0 basechar 0
AnchorPoint: "Anchor-1" 590 658 basechar 0
AnchorPoint: "Anchor-0" 338 658 basechar 0
LayerCount: 2
Fore
SplineSet
77 613 m 1,0,-1
 130 665 l 1,1,-1
 447 304 l 1,2,-1
 395 253 l 1,3,-1
 77 613 l 1,0,-1
558 122 m 1,4,-1
 550 150 l 1,5,-1
 551 658 l 1,6,-1
 629 658 l 1,7,-1
 629 0 l 1,8,-1
 551 0 l 1,9,-1
 558 122 l 1,4,-1
32 221 m 1,10,11
 32 279 32 279 61.5 330.5 c 128,-1,12
 91 382 91 382 149.5 419.5 c 128,-1,13
 208 457 208 457 294 474 c 1,14,-1
 303 408 l 1,15,16
 240 395 240 395 197.5 366.5 c 128,-1,17
 155 338 155 338 133.5 301 c 128,-1,18
 112 264 112 264 112 222 c 0,19,20
 112 179 112 179 132.5 143.5 c 128,-1,21
 153 108 153 108 193 86.5 c 128,-1,22
 233 65 233 65 291 65 c 0,23,24
 362 65 362 65 433.5 100.5 c 128,-1,25
 505 136 505 136 563 212 c 1,26,-1
 596 150 l 1,27,28
 558 98 558 98 509 62.5 c 128,-1,29
 460 27 460 27 404.5 9.5 c 128,-1,30
 349 -8 349 -8 290 -8 c 0,31,32
 211 -8 211 -8 153 21 c 128,-1,33
 95 50 95 50 63.5 102 c 128,-1,34
 32 154 32 154 32 221 c 1,35,-1
 32 221 l 1,10,11
EndSplineSet
Substitution2: "Single Substitution lookup 10 subtable" uni0B27.base
Substitution2: "'aalt' Access All Alternates lookup 0 subtable" uni0B27.base
EndChar

StartChar: uni0B28
Encoding: 2856 2856 39
Width: 712
GlyphClass: 2
Flags: W
AnchorPoint: "Anchor-5" 355 -158 basechar 0
AnchorPoint: "Anchor-4" 496 0 basechar 0
AnchorPoint: "Anchor-3" 418 0 basechar 0
AnchorPoint: "Anchor-1" 584 658 basechar 0
AnchorPoint: "Anchor-0" 348 658 basechar 0
LayerCount: 2
Fore
SplineSet
167 182 m 1,0,1
 102 217 102 217 67 277.5 c 128,-1,2
 32 338 32 338 32 409 c 0,3,4
 32 472 32 472 58 520 c 128,-1,5
 84 568 84 568 128.5 600.5 c 128,-1,6
 173 633 173 633 230 649.5 c 128,-1,7
 287 666 287 666 350 666 c 0,8,9
 415 666 415 666 474.5 649 c 128,-1,10
 534 632 534 632 580 598.5 c 128,-1,11
 626 565 626 565 652.5 515.5 c 128,-1,12
 679 466 679 466 679 401 c 0,13,14
 679 355 679 355 667 315 c 128,-1,15
 655 275 655 275 632 241 c 1,16,-1
 563 276 l 1,17,18
 580 302 580 302 590 333 c 128,-1,19
 600 364 600 364 600 399 c 0,20,21
 600 447 600 447 579 483.5 c 128,-1,22
 558 520 558 520 522.5 544.5 c 128,-1,23
 487 569 487 569 442 581 c 128,-1,24
 397 593 397 593 349 593 c 256,25,26
 301 593 301 593 258 581 c 128,-1,27
 215 569 215 569 182.5 545 c 128,-1,28
 150 521 150 521 131 485.5 c 128,-1,29
 112 450 112 450 112 404 c 0,30,31
 112 355 112 355 135 312 c 128,-1,32
 158 269 158 269 201 243 c 1,33,-1
 167 182 l 1,34,-1
 167 182 l 1,0,1
192 -8 m 1,35,36
 170 -8 170 -8 152 4 c 128,-1,37
 134 16 134 16 123.5 38.5 c 128,-1,38
 113 61 113 61 113 92 c 0,39,40
 113 136 113 136 133 182 c 128,-1,41
 153 228 153 228 190.5 267 c 128,-1,42
 228 306 228 306 282.5 330 c 128,-1,43
 337 354 337 354 406 354 c 0,44,45
 428 354 428 354 452.5 352 c 128,-1,46
 477 350 477 350 496 346 c 1,47,-1
 496 0 l 1,48,-1
 418 0 l 1,49,-1
 418 310 l 1,50,-1
 463 283 l 1,51,52
 448 286 448 286 434.5 287 c 128,-1,53
 421 288 421 288 409 288 c 0,54,55
 359 288 359 288 317.5 270 c 128,-1,56
 276 252 276 252 246.5 222.5 c 128,-1,57
 217 193 217 193 201 156.5 c 128,-1,58
 185 120 185 120 185 84 c 0,59,60
 185 69 185 69 192 56.5 c 128,-1,61
 199 44 199 44 207 33 c 1,62,-1
 149 96 l 1,63,64
 151 106 151 106 157.5 112 c 128,-1,65
 164 118 164 118 173 121 c 128,-1,66
 182 124 182 124 191 124 c 0,67,68
 213 124 213 124 228.5 114.5 c 128,-1,69
 244 105 244 105 252.5 89.5 c 128,-1,70
 261 74 261 74 261 57 c 0,71,72
 261 38 261 38 252 23.5 c 128,-1,73
 243 9 243 9 227.5 0.5 c 128,-1,74
 212 -8 212 -8 192 -8 c 1,75,-1
 192 -8 l 1,35,36
EndSplineSet
Substitution2: "Single Substitution lookup 10 subtable" uni0B28.base
Substitution2: "'aalt' Access All Alternates lookup 0 subtable" uni0B28.base
EndChar

StartChar: uni0B2A
Encoding: 2858 2858 40
Width: 741
GlyphClass: 2
Flags: W
AnchorPoint: "Anchor-5" 355 -157 basechar 0
AnchorPoint: "Anchor-4" 679 0 basechar 0
AnchorPoint: "Anchor-3" 601 0 basechar 0
AnchorPoint: "Anchor-1" 640 658 basechar 0
AnchorPoint: "Anchor-0" 329 658 basechar 0
LayerCount: 2
Fore
SplineSet
179 185 m 1,0,1
 130 210 130 210 97.5 245 c 128,-1,2
 65 280 65 280 48.5 323.5 c 128,-1,3
 32 367 32 367 32 416 c 0,4,5
 32 476 32 476 56.5 522.5 c 128,-1,6
 81 569 81 569 123 601 c 128,-1,7
 165 633 165 633 218 649.5 c 128,-1,8
 271 666 271 666 329 666 c 0,9,10
 394 666 394 666 455.5 646 c 128,-1,11
 517 626 517 626 566 586.5 c 128,-1,12
 615 547 615 547 644 487 c 128,-1,13
 673 427 673 427 673 347 c 1,14,-1
 611 344 l 1,15,16
 611 405 611 405 589 451.5 c 128,-1,17
 567 498 567 498 528.5 529.5 c 128,-1,18
 490 561 490 561 440.5 577 c 128,-1,19
 391 593 391 593 337 593 c 0,20,21
 277 593 277 593 225.5 571 c 128,-1,22
 174 549 174 549 143 506.5 c 128,-1,23
 112 464 112 464 112 402 c 0,24,25
 112 356 112 356 135.5 313.5 c 128,-1,26
 159 271 159 271 208 243 c 1,27,-1
 179 185 l 1,28,-1
 179 185 l 1,0,1
373 -7 m 1,29,30
 317 -7 317 -7 269.5 15.5 c 128,-1,31
 222 38 222 38 193.5 79 c 128,-1,32
 165 120 165 120 165 178 c 0,33,34
 165 227 165 227 187 269.5 c 128,-1,35
 209 312 209 312 249.5 344.5 c 128,-1,36
 290 377 290 377 345 395 c 1,37,-1
 372 333 l 1,38,39
 317 314 317 314 280.5 275.5 c 128,-1,40
 244 237 244 237 244 187 c 0,41,42
 244 148 244 148 264.5 121 c 128,-1,43
 285 94 285 94 316.5 80 c 128,-1,44
 348 66 348 66 381 66 c 0,45,46
 424 66 424 66 469.5 84 c 128,-1,47
 515 102 515 102 553 137 c 128,-1,48
 591 172 591 172 612 224 c 1,49,-1
 650 180 l 1,50,51
 626 116 626 116 581.5 74.5 c 128,-1,52
 537 33 537 33 482.5 13 c 128,-1,53
 428 -7 428 -7 373 -7 c 1,54,-1
 373 -7 l 1,29,30
606 106 m 1,55,-1
 601 144 l 1,56,-1
 601 471 l 1,57,-1
 605 511 l 1,58,-1
 601 658 l 1,59,-1
 679 658 l 1,60,-1
 679 0 l 1,61,-1
 601 0 l 1,62,-1
 606 106 l 1,55,-1
EndSplineSet
Substitution2: "Single Substitution lookup 10 subtable" uni0B2A.base
Substitution2: "'aalt' Access All Alternates lookup 0 subtable" uni0B2A.base
EndChar

StartChar: uni0B2B
Encoding: 2859 2859 41
Width: 899
GlyphClass: 2
Flags: W
AnchorPoint: "Anchor-5" 460 -157 basechar 0
AnchorPoint: "Anchor-4" 679 0 basechar 0
AnchorPoint: "Anchor-3" 601 0 basechar 0
AnchorPoint: "Anchor-1" 758 658 basechar 0
AnchorPoint: "Anchor-0" 329 658 basechar 0
LayerCount: 2
Fore
SplineSet
762 606 m 1,0,1
 800 606 800 606 828.5 588 c 128,-1,2
 857 570 857 570 873 539 c 128,-1,3
 889 508 889 508 889 469 c 0,4,5
 889 431 889 431 873.5 400 c 128,-1,6
 858 369 858 369 829.5 351 c 128,-1,7
 801 333 801 333 763 333 c 0,8,9
 730 333 730 333 700 348 c 128,-1,10
 670 363 670 363 651 393 c 128,-1,11
 632 423 632 423 632 468 c 0,12,13
 632 511 632 511 649.5 542 c 128,-1,14
 667 573 667 573 697 589.5 c 128,-1,15
 727 606 727 606 762 606 c 1,16,-1
 762 606 l 1,0,1
753 551 m 1,17,18
 723 551 723 551 701 530 c 128,-1,19
 679 509 679 509 679 468 c 0,20,21
 679 428 679 428 701 408 c 128,-1,22
 723 388 723 388 753 388 c 0,23,24
 788 388 788 388 806.5 412.5 c 128,-1,25
 825 437 825 437 825 469 c 256,26,27
 825 501 825 501 806.5 526 c 128,-1,28
 788 551 788 551 753 551 c 1,29,-1
 753 551 l 1,17,18
179 185 m 1,30,31
 130 210 130 210 97.5 245 c 128,-1,32
 65 280 65 280 48.5 323.5 c 128,-1,33
 32 367 32 367 32 416 c 0,34,35
 32 476 32 476 56.5 522.5 c 128,-1,36
 81 569 81 569 123 601 c 128,-1,37
 165 633 165 633 218 649.5 c 128,-1,38
 271 666 271 666 329 666 c 0,39,40
 394 666 394 666 455.5 646 c 128,-1,41
 517 626 517 626 566 586.5 c 128,-1,42
 615 547 615 547 644 487 c 128,-1,43
 673 427 673 427 673 347 c 1,44,-1
 611 344 l 1,45,46
 611 405 611 405 589 451.5 c 128,-1,47
 567 498 567 498 528.5 529.5 c 128,-1,48
 490 561 490 561 440.5 577 c 128,-1,49
 391 593 391 593 337 593 c 0,50,51
 277 593 277 593 225.5 571 c 128,-1,52
 174 549 174 549 143 506.5 c 128,-1,53
 112 464 112 464 112 402 c 0,54,55
 112 356 112 356 135.5 313.5 c 128,-1,56
 159 271 159 271 208 243 c 1,57,-1
 179 185 l 1,58,-1
 179 185 l 1,30,31
373 -7 m 1,59,60
 317 -7 317 -7 269.5 15.5 c 128,-1,61
 222 38 222 38 193.5 79 c 128,-1,62
 165 120 165 120 165 178 c 0,63,64
 165 227 165 227 187 269.5 c 128,-1,65
 209 312 209 312 249.5 344.5 c 128,-1,66
 290 377 290 377 345 395 c 1,67,-1
 372 333 l 1,68,69
 317 314 317 314 280.5 275.5 c 128,-1,70
 244 237 244 237 244 187 c 0,71,72
 244 148 244 148 264.5 121 c 128,-1,73
 285 94 285 94 316.5 80 c 128,-1,74
 348 66 348 66 381 66 c 0,75,76
 424 66 424 66 469.5 84 c 128,-1,77
 515 102 515 102 553 137 c 128,-1,78
 591 172 591 172 612 224 c 1,79,-1
 650 180 l 1,80,81
 626 116 626 116 581.5 74.5 c 128,-1,82
 537 33 537 33 482.5 13 c 128,-1,83
 428 -7 428 -7 373 -7 c 1,84,-1
 373 -7 l 1,59,60
606 115 m 1,85,-1
 601 153 l 1,86,-1
 601 462 l 1,87,-1
 605 501 l 1,88,-1
 601 658 l 1,89,-1
 679 658 l 1,90,-1
 679 0 l 1,91,-1
 601 0 l 1,92,-1
 606 115 l 1,85,-1
EndSplineSet
Substitution2: "Single Substitution lookup 10 subtable" uni0B2B.base
Substitution2: "'aalt' Access All Alternates lookup 0 subtable" uni0B2B.base
EndChar

StartChar: uni0B2C
Encoding: 2860 2860 42
Width: 718
GlyphClass: 2
Flags: W
AnchorPoint: "Anchor-5" 359 -150 basechar 0
AnchorPoint: "Anchor-4" 628 0 basechar 0
AnchorPoint: "Anchor-3" 430 0 basechar 0
AnchorPoint: "Anchor-1" 590 658 basechar 0
AnchorPoint: "Anchor-0" 353 658 basechar 0
LayerCount: 2
Fore
SplineSet
328 49 m 1,0,1
 275 49 275 49 234.5 70.5 c 128,-1,2
 194 92 194 92 171.5 130.5 c 128,-1,3
 149 169 149 169 149 220 c 256,4,5
 149 271 149 271 172 309.5 c 128,-1,6
 195 348 195 348 235.5 369.5 c 128,-1,7
 276 391 276 391 330 391 c 0,8,9
 383 391 383 391 423 369.5 c 128,-1,10
 463 348 463 348 485.5 310 c 128,-1,11
 508 272 508 272 508 222 c 0,12,13
 508 171 508 171 485.5 132 c 128,-1,14
 463 93 463 93 422.5 71 c 128,-1,15
 382 49 382 49 328 49 c 1,16,-1
 328 49 l 1,0,1
329 110 m 1,17,18
 376 110 376 110 406.5 141 c 128,-1,19
 437 172 437 172 437 221 c 256,20,21
 437 270 437 270 406.5 299.5 c 128,-1,22
 376 329 376 329 329 329 c 256,23,24
 282 329 282 329 251 299.5 c 128,-1,25
 220 270 220 270 220 221 c 256,26,27
 220 172 220 172 251 141 c 128,-1,28
 282 110 282 110 329 110 c 1,29,-1
 329 110 l 1,17,18
161 198 m 1,30,31
 97 233 97 233 64.5 290.5 c 128,-1,32
 32 348 32 348 32 412 c 0,33,34
 32 465 32 465 54 511.5 c 128,-1,35
 76 558 76 558 117.5 592.5 c 128,-1,36
 159 627 159 627 218.5 646.5 c 128,-1,37
 278 666 278 666 353 666 c 0,38,39
 415 666 415 666 474.5 649 c 128,-1,40
 534 632 534 632 581.5 598.5 c 128,-1,41
 629 565 629 565 657.5 514.5 c 128,-1,42
 686 464 686 464 686 396 c 0,43,44
 686 351 686 351 672.5 313.5 c 128,-1,45
 659 276 659 276 636 247 c 1,46,-1
 565 278 l 1,47,48
 585 303 585 303 595.5 332.5 c 128,-1,49
 606 362 606 362 606 396 c 0,50,51
 606 446 606 446 584.5 482.5 c 128,-1,52
 563 519 563 519 527 544 c 128,-1,53
 491 569 491 569 446 581 c 128,-1,54
 401 593 401 593 354 593 c 0,55,56
 294 593 294 593 248.5 577.5 c 128,-1,57
 203 562 203 562 171.5 535.5 c 128,-1,58
 140 509 140 509 124 474.5 c 128,-1,59
 108 440 108 440 108 402 c 0,60,61
 108 358 108 358 128 318.5 c 128,-1,62
 148 279 148 279 185 256 c 1,63,-1
 161 198 l 1,64,-1
 161 198 l 1,30,31
434 187 m 1,65,-1
 508 222 l 1,66,-1
 508 0 l 1,67,-1
 430 0 l 1,68,-1
 434 187 l 1,65,-1
EndSplineSet
Substitution2: "Single Substitution lookup 10 subtable" uni0B2C.base
Substitution2: "'aalt' Access All Alternates lookup 0 subtable" uni0B2C.base
EndChar

StartChar: uni0B2D
Encoding: 2861 2861 43
Width: 833
GlyphClass: 2
Flags: W
AnchorPoint: "Anchor-5" 423 -159 basechar 0
AnchorPoint: "Anchor-4" 667 0 basechar 0
AnchorPoint: "Anchor-3" 351 0 basechar 0
AnchorPoint: "Anchor-1" 691 658 basechar 0
AnchorPoint: "Anchor-0" 398 658 basechar 0
LayerCount: 2
Fore
SplineSet
631 154 m 1,0,1
 676 197 676 197 695 244.5 c 128,-1,2
 714 292 714 292 714 344 c 0,3,4
 714 426 714 426 674 481 c 128,-1,5
 634 536 634 536 562.5 564.5 c 128,-1,6
 491 593 491 593 396 593 c 0,7,8
 308 593 308 593 243.5 568.5 c 128,-1,9
 179 544 179 544 143.5 501 c 128,-1,10
 108 458 108 458 108 400 c 0,11,12
 108 365 108 365 124.5 326.5 c 128,-1,13
 141 288 141 288 183 254 c 1,14,-1
 158 195 l 1,15,16
 90 242 90 242 61 296.5 c 128,-1,17
 32 351 32 351 32 408 c 0,18,19
 32 466 32 466 57.5 513.5 c 128,-1,20
 83 561 83 561 131 595 c 128,-1,21
 179 629 179 629 247 647.5 c 128,-1,22
 315 666 315 666 400 666 c 0,23,24
 523 666 523 666 611 628.5 c 128,-1,25
 699 591 699 591 746 523 c 128,-1,26
 793 455 793 455 793 363 c 0,27,28
 793 299 793 299 767.5 238.5 c 128,-1,29
 742 178 742 178 686 123 c 1,30,-1
 700 184 l 1,31,-1
 815 39 l 1,32,-1
 751 -9 l 1,33,-1
 631 154 l 1,0,1
365 -8 m 1,34,35
 291 -8 291 -8 239 16.5 c 128,-1,36
 187 41 187 41 160 85.5 c 128,-1,37
 133 130 133 130 133 190 c 0,38,39
 133 228 133 228 144.5 266 c 128,-1,40
 156 304 156 304 179.5 341 c 128,-1,41
 203 378 203 378 239 412 c 1,42,-1
 284 371 l 1,43,44
 244 324 244 324 226.5 278.5 c 128,-1,45
 209 233 209 233 209 193 c 0,46,47
 209 152 209 152 227.5 120 c 128,-1,48
 246 88 246 88 281 70 c 128,-1,49
 316 52 316 52 367 52 c 0,50,51
 404 52 404 52 431.5 61 c 128,-1,52
 459 70 459 70 477 87.5 c 128,-1,53
 495 105 495 105 504 130 c 128,-1,54
 513 155 513 155 513 187 c 2,55,-1
 513 320 l 1,56,-1
 591 320 l 1,57,-1
 591 193 l 2,58,59
 591 152 591 152 580.5 119.5 c 128,-1,60
 570 87 570 87 550.5 63 c 128,-1,61
 531 39 531 39 503.5 23.5 c 128,-1,62
 476 8 476 8 441 0 c 128,-1,63
 406 -8 406 -8 365 -8 c 1,64,-1
 365 -8 l 1,34,35
440 131 m 1,65,66
 386 131 386 131 354.5 158.5 c 128,-1,67
 323 186 323 186 323 233 c 0,68,69
 323 264 323 264 337.5 296 c 128,-1,70
 352 328 352 328 379 359 c 1,71,-1
 421 321 l 1,72,73
 408 299 408 299 401.5 278 c 128,-1,74
 395 257 395 257 395 240 c 0,75,76
 395 215 395 215 409.5 198.5 c 128,-1,77
 424 182 424 182 458 182 c 0,78,79
 486 182 486 182 511.5 193.5 c 128,-1,80
 537 205 537 205 553 229 c 1,81,-1
 570 184 l 1,82,83
 546 158 546 158 511.5 144.5 c 128,-1,84
 477 131 477 131 440 131 c 1,85,-1
 440 131 l 1,65,66
EndSplineSet
Substitution2: "'rclt' Required Contextual Alternates lookup 150 subtable" uni0B2D.BRACKET.varAlt01
Substitution2: "Single Substitution lookup 10 subtable" uni0B2D.base
Substitution2: "'aalt' Access All Alternates lookup 0 subtable" uni0B2D.base
EndChar

StartChar: uni0B2E
Encoding: 2862 2862 44
Width: 741
GlyphClass: 2
Flags: W
AnchorPoint: "Anchor-5" 355 -158 basechar 0
AnchorPoint: "Anchor-4" 679 0 basechar 0
AnchorPoint: "Anchor-3" 601 0 basechar 0
AnchorPoint: "Anchor-1" 640 658 basechar 0
AnchorPoint: "Anchor-0" 331 658 basechar 0
LayerCount: 2
Fore
SplineSet
170 186 m 1,0,1
 126 209 126 209 95 243.5 c 128,-1,2
 64 278 64 278 48 321 c 128,-1,3
 32 364 32 364 32 412 c 0,4,5
 32 465 32 465 52 511 c 128,-1,6
 72 557 72 557 111 591.5 c 128,-1,7
 150 626 150 626 205.5 646 c 128,-1,8
 261 666 261 666 331 666 c 0,9,10
 382 666 382 666 431.5 653.5 c 128,-1,11
 481 641 481 641 524.5 616 c 128,-1,12
 568 591 568 591 601.5 552.5 c 128,-1,13
 635 514 635 514 654 463 c 128,-1,14
 673 412 673 412 673 347 c 1,15,-1
 611 344 l 1,16,17
 611 404 611 404 589.5 450.5 c 128,-1,18
 568 497 568 497 530.5 528.5 c 128,-1,19
 493 560 493 560 444 576.5 c 128,-1,20
 395 593 395 593 340 593 c 0,21,22
 263 593 263 593 212.5 566.5 c 128,-1,23
 162 540 162 540 137 497 c 128,-1,24
 112 454 112 454 112 404 c 0,25,26
 112 355 112 355 135 312 c 128,-1,27
 158 269 158 269 201 243 c 1,28,-1
 170 186 l 1,29,-1
 170 186 l 1,0,1
601 471 m 1,30,-1
 605 511 l 1,31,-1
 601 658 l 1,32,-1
 679 658 l 1,33,-1
 679 0 l 1,34,-1
 601 0 l 1,35,-1
 601 471 l 1,30,-1
192 -8 m 1,36,37
 170 -8 170 -8 152 4 c 128,-1,38
 134 16 134 16 123.5 38.5 c 128,-1,39
 113 61 113 61 113 91 c 0,40,41
 113 143 113 143 137 189.5 c 128,-1,42
 161 236 161 236 204 273.5 c 128,-1,43
 247 311 247 311 304 335.5 c 128,-1,44
 361 360 361 360 426 369 c 1,45,-1
 437 301 l 1,46,47
 350 288 350 288 294 255 c 128,-1,48
 238 222 238 222 211.5 177.5 c 128,-1,49
 185 133 185 133 185 84 c 0,50,51
 185 70 185 70 191.5 56 c 128,-1,52
 198 42 198 42 206 30 c 1,53,-1
 127 64 l 1,54,55
 127 93 127 93 145.5 108.5 c 128,-1,56
 164 124 164 124 191 124 c 0,57,58
 213 124 213 124 228.5 114.5 c 128,-1,59
 244 105 244 105 252.5 89.5 c 128,-1,60
 261 74 261 74 261 57 c 0,61,62
 261 29 261 29 241.5 10.5 c 128,-1,63
 222 -8 222 -8 192 -8 c 1,64,-1
 192 -8 l 1,36,37
EndSplineSet
Substitution2: "Single Substitution lookup 10 subtable" uni0B2E.base
Substitution2: "'aalt' Access All Alternates lookup 0 subtable" uni0B2E.base
EndChar

StartChar: uni0B2F
Encoding: 2863 2863 45
Width: 785
GlyphClass: 2
Flags: W
AnchorPoint: "Anchor-5" 373 -158 basechar 0
AnchorPoint: "Anchor-4" 723 0 basechar 0
AnchorPoint: "Anchor-3" 645 0 basechar 0
AnchorPoint: "Anchor-1" 684 658 basechar 0
AnchorPoint: "Anchor-0" 375 658 basechar 0
LayerCount: 2
Fore
SplineSet
421 -8 m 1,0,1
 364 -8 364 -8 318 14 c 128,-1,2
 272 36 272 36 245 78.5 c 128,-1,3
 218 121 218 121 218 180 c 0,4,5
 218 203 218 203 224 230 c 128,-1,6
 230 257 230 257 247.5 285.5 c 128,-1,7
 265 314 265 314 299 340 c 128,-1,8
 333 366 333 366 388 386 c 1,9,-1
 409 336 l 1,10,11
 366 321 366 321 320 297 c 128,-1,12
 274 273 274 273 231.5 244.5 c 128,-1,13
 189 216 189 216 155 186 c 128,-1,14
 121 156 121 156 101 128 c 128,-1,15
 81 100 81 100 81 78 c 1,16,-1
 67 144 l 1,17,18
 108 144 108 144 125.5 125 c 128,-1,19
 143 106 143 106 143 83 c 0,20,21
 143 58 143 58 126 43.5 c 128,-1,22
 109 29 109 29 86 29 c 0,23,24
 61 29 61 29 42.5 45.5 c 128,-1,25
 24 62 24 62 24 91 c 0,26,27
 24 119 24 119 48 157.5 c 128,-1,28
 72 196 72 196 118.5 239 c 128,-1,29
 165 282 165 282 233.5 323 c 128,-1,30
 302 364 302 364 392 397 c 1,31,-1
 420 333 l 1,32,33
 376 317 376 317 348 292 c 128,-1,34
 320 267 320 267 307 238 c 128,-1,35
 294 209 294 209 294 180 c 0,36,37
 294 143 294 143 312.5 117 c 128,-1,38
 331 91 331 91 361.5 78 c 128,-1,39
 392 65 392 65 428 65 c 0,40,41
 466 65 466 65 510.5 82 c 128,-1,42
 555 99 555 99 594.5 134.5 c 128,-1,43
 634 170 634 170 655 224 c 1,44,-1
 694 180 l 1,45,46
 670 116 670 116 625 74 c 128,-1,47
 580 32 580 32 526 12 c 128,-1,48
 472 -8 472 -8 421 -8 c 1,49,-1
 421 -8 l 1,0,1
197 234 m 1,50,51
 137 267 137 267 106.5 318.5 c 128,-1,52
 76 370 76 370 76 427 c 0,53,54
 76 486 76 486 100 530.5 c 128,-1,55
 124 575 124 575 165.5 605 c 128,-1,56
 207 635 207 635 259 650.5 c 128,-1,57
 311 666 311 666 367 666 c 0,58,59
 432 666 432 666 494.5 646.5 c 128,-1,60
 557 627 557 627 607 587.5 c 128,-1,61
 657 548 657 548 686.5 488 c 128,-1,62
 716 428 716 428 716 347 c 1,63,-1
 655 345 l 1,64,65
 655 408 655 408 630.5 455 c 128,-1,66
 606 502 606 502 566 532.5 c 128,-1,67
 526 563 526 563 477 578 c 128,-1,68
 428 593 428 593 379 593 c 0,69,70
 321 593 321 593 270 572 c 128,-1,71
 219 551 219 551 187 511.5 c 128,-1,72
 155 472 155 472 155 414 c 0,73,74
 155 372 155 372 177.5 334.5 c 128,-1,75
 200 297 200 297 240 273 c 1,76,-1
 197 234 l 1,77,-1
 197 234 l 1,50,51
650 106 m 1,78,-1
 645 144 l 1,79,-1
 645 471 l 1,80,-1
 648 511 l 1,81,-1
 645 658 l 1,82,-1
 723 658 l 1,83,-1
 723 0 l 1,84,-1
 645 0 l 1,85,-1
 650 106 l 1,78,-1
EndSplineSet
Substitution2: "Single Substitution lookup 10 subtable" uni0B2F.base
Substitution2: "'aalt' Access All Alternates lookup 0 subtable" uni0B2F.base
EndChar

StartChar: uni0B30
Encoding: 2864 2864 46
Width: 744
GlyphClass: 2
Flags: W
AnchorPoint: "Anchor-5" 379 -159 basechar 0
AnchorPoint: "Anchor-4" 603 0 basechar 0
AnchorPoint: "Anchor-3" 292 0 basechar 0
AnchorPoint: "Anchor-1" 630 658 basechar 0
AnchorPoint: "Anchor-0" 367 658 basechar 0
LayerCount: 2
Fore
SplineSet
539 154 m 1,0,1
 592 198 592 198 619 255 c 128,-1,2
 646 312 646 312 646 369 c 0,3,4
 646 423 646 423 623 465 c 128,-1,5
 600 507 600 507 561 535.5 c 128,-1,6
 522 564 522 564 471.5 578.5 c 128,-1,7
 421 593 421 593 365 593 c 0,8,9
 313 593 313 593 267 580.5 c 128,-1,10
 221 568 221 568 185 544 c 128,-1,11
 149 520 149 520 128.5 485 c 128,-1,12
 108 450 108 450 108 405 c 0,13,14
 108 362 108 362 127.5 321.5 c 128,-1,15
 147 281 147 281 181 254 c 1,16,-1
 153 198 l 1,17,18
 92 238 92 238 62 294.5 c 128,-1,19
 32 351 32 351 32 412 c 0,20,21
 32 475 32 475 60 522.5 c 128,-1,22
 88 570 88 570 135.5 602 c 128,-1,23
 183 634 183 634 243 650 c 128,-1,24
 303 666 303 666 367 666 c 0,25,26
 435 666 435 666 499 648 c 128,-1,27
 563 630 563 630 614 595 c 128,-1,28
 665 560 665 560 695.5 507 c 128,-1,29
 726 454 726 454 726 384 c 0,30,31
 726 335 726 335 710 287 c 128,-1,32
 694 239 694 239 664 197 c 128,-1,33
 634 155 634 155 592 123 c 1,34,-1
 608 184 l 1,35,-1
 723 38 l 1,36,-1
 659 -9 l 1,37,-1
 539 154 l 1,0,1
311 -8 m 1,38,39
 259 -8 259 -8 217 14.5 c 128,-1,40
 175 37 175 37 150.5 78 c 128,-1,41
 126 119 126 119 126 174 c 256,42,43
 126 229 126 229 150.5 269.5 c 128,-1,44
 175 310 175 310 217 332.5 c 128,-1,45
 259 355 259 355 311 355 c 256,46,47
 363 355 363 355 405.5 332.5 c 128,-1,48
 448 310 448 310 473.5 269.5 c 128,-1,49
 499 229 499 229 499 174 c 256,50,51
 499 119 499 119 473.5 78 c 128,-1,52
 448 37 448 37 405.5 14.5 c 128,-1,53
 363 -8 363 -8 311 -8 c 1,54,-1
 311 -8 l 1,38,39
312 57 m 1,55,56
 362 57 362 57 394.5 89 c 128,-1,57
 427 121 427 121 427 174 c 0,58,59
 427 226 427 226 394.5 257.5 c 128,-1,60
 362 289 362 289 312 289 c 256,61,62
 262 289 262 289 230 257.5 c 128,-1,63
 198 226 198 226 198 174 c 256,64,65
 198 122 198 122 230.5 89.5 c 128,-1,66
 263 57 263 57 312 57 c 1,67,-1
 312 57 l 1,55,56
EndSplineSet
Substitution2: "Single Substitution lookup 10 subtable" uni0B30.base
Substitution2: "'aalt' Access All Alternates lookup 0 subtable" uni0B30.base
EndChar

StartChar: uni0B32
Encoding: 2866 2866 47
Width: 833
GlyphClass: 2
Flags: W
AnchorPoint: "Anchor-5" 423 -159 basechar 0
AnchorPoint: "Anchor-4" 591 0 basechar 0
AnchorPoint: "Anchor-3" 513 0 basechar 0
AnchorPoint: "Anchor-1" 688 658 basechar 0
AnchorPoint: "Anchor-0" 420 658 basechar 0
LayerCount: 2
Fore
SplineSet
631 154 m 1,0,1
 676 197 676 197 695 244.5 c 128,-1,2
 714 292 714 292 714 341 c 0,3,4
 714 404 714 404 689 451.5 c 128,-1,5
 664 499 664 499 620 530.5 c 128,-1,6
 576 562 576 562 518 577.5 c 128,-1,7
 460 593 460 593 394 593 c 0,8,9
 334 593 334 593 282.5 581 c 128,-1,10
 231 569 231 569 191.5 544.5 c 128,-1,11
 152 520 152 520 130 484.5 c 128,-1,12
 108 449 108 449 108 402 c 0,13,14
 108 365 108 365 124.5 329 c 128,-1,15
 141 293 141 293 178 258 c 1,16,-1
 152 201 l 1,17,18
 89 248 89 248 60.5 300.5 c 128,-1,19
 32 353 32 353 32 409 c 0,20,21
 32 471 32 471 59.5 519 c 128,-1,22
 87 567 87 567 136.5 599.5 c 128,-1,23
 186 632 186 632 253 649 c 128,-1,24
 320 666 320 666 399 666 c 0,25,26
 480 666 480 666 551.5 646 c 128,-1,27
 623 626 623 626 677.5 587.5 c 128,-1,28
 732 549 732 549 762.5 492.5 c 128,-1,29
 793 436 793 436 793 362 c 0,30,31
 793 298 793 298 767.5 238 c 128,-1,32
 742 178 742 178 686 123 c 1,33,-1
 700 184 l 1,34,-1
 815 39 l 1,35,-1
 751 -9 l 1,36,-1
 631 154 l 1,0,1
157 -9 m 1,37,38
 142 35 142 35 132.5 84.5 c 128,-1,39
 123 134 123 134 123 179 c 0,40,41
 123 235 123 235 139.5 274.5 c 128,-1,42
 156 314 156 314 186 334.5 c 128,-1,43
 216 355 216 355 256 355 c 0,44,45
 303 355 303 355 336 327 c 128,-1,46
 369 299 369 299 374 243 c 1,47,-1
 352 243 l 1,48,49
 356 286 356 286 372.5 310.5 c 128,-1,50
 389 335 389 335 414.5 345 c 128,-1,51
 440 355 440 355 469 355 c 0,52,53
 525 355 525 355 558 321 c 128,-1,54
 591 287 591 287 591 227 c 2,55,-1
 591 0 l 1,56,-1
 513 0 l 1,57,-1
 513 220 l 2,58,59
 513 227 513 227 511.5 239 c 128,-1,60
 510 251 510 251 504.5 263.5 c 128,-1,61
 499 276 499 276 487.5 285 c 128,-1,62
 476 294 476 294 456 294 c 0,63,64
 428 294 428 294 413.5 273 c 128,-1,65
 399 252 399 252 399 214 c 2,66,-1
 399 0 l 1,67,-1
 325 0 l 1,68,-1
 325 210 l 2,69,70
 325 253 325 253 309.5 273.5 c 128,-1,71
 294 294 294 294 267 294 c 0,72,73
 237 294 237 294 219 264.5 c 128,-1,74
 201 235 201 235 201 175 c 0,75,76
 201 150 201 150 204.5 121.5 c 128,-1,77
 208 93 208 93 214.5 64.5 c 128,-1,78
 221 36 221 36 229 9 c 1,79,-1
 157 -9 l 1,80,-1
 157 -9 l 1,37,38
EndSplineSet
Substitution2: "Single Substitution lookup 10 subtable" uni0B32.base
Substitution2: "'aalt' Access All Alternates lookup 0 subtable" uni0B32.base
EndChar

StartChar: uni0B33
Encoding: 2867 2867 48
Width: 776
GlyphClass: 2
Flags: W
AnchorPoint: "Anchor-5" 387 -159 basechar 0
AnchorPoint: "Anchor-4" 591 0 basechar 0
AnchorPoint: "Anchor-3" 513 0 basechar 0
AnchorPoint: "Anchor-1" 648 658 basechar 0
AnchorPoint: "Anchor-0" 384 658 basechar 0
LayerCount: 2
Fore
SplineSet
471 355 m 1,0,1
 525 355 525 355 558 321 c 128,-1,2
 591 287 591 287 591 227 c 2,3,-1
 591 0 l 1,4,-1
 513 0 l 1,5,-1
 513 220 l 2,6,7
 513 227 513 227 511.5 239 c 128,-1,8
 510 251 510 251 504.5 263.5 c 128,-1,9
 499 276 499 276 487.5 285 c 128,-1,10
 476 294 476 294 456 294 c 0,11,12
 428 294 428 294 413.5 273 c 128,-1,13
 399 252 399 252 399 214 c 2,14,-1
 399 0 l 1,15,-1
 325 0 l 1,16,-1
 325 210 l 2,17,18
 325 253 325 253 309.5 273.5 c 128,-1,19
 294 294 294 294 267 294 c 0,20,21
 237 294 237 294 219 264.5 c 128,-1,22
 201 235 201 235 201 175 c 0,23,24
 201 137 201 137 208.5 93 c 128,-1,25
 216 49 216 49 229 9 c 1,26,-1
 157 -9 l 1,27,28
 142 35 142 35 132.5 84.5 c 128,-1,29
 123 134 123 134 123 179 c 0,30,31
 123 235 123 235 139.5 274.5 c 128,-1,32
 156 314 156 314 186 334.5 c 128,-1,33
 216 355 216 355 256 355 c 0,34,35
 287 355 287 355 312.5 342.5 c 128,-1,36
 338 330 338 330 354.5 305.5 c 128,-1,37
 371 281 371 281 374 243 c 1,38,-1
 352 243 l 1,39,40
 356 286 356 286 372.5 310.5 c 128,-1,41
 389 335 389 335 414.5 345 c 128,-1,42
 440 355 440 355 471 355 c 1,43,-1
 471 355 l 1,0,1
32 410 m 1,44,45
 32 469 32 469 58 516 c 128,-1,46
 84 563 84 563 131.5 596.5 c 128,-1,47
 179 630 179 630 243.5 648 c 128,-1,48
 308 666 308 666 384 666 c 0,49,50
 458 666 458 666 523 648.5 c 128,-1,51
 588 631 588 631 637.5 596.5 c 128,-1,52
 687 562 687 562 715 511 c 128,-1,53
 743 460 743 460 743 394 c 0,54,55
 743 351 743 351 730 314 c 128,-1,56
 717 277 717 277 693 247 c 1,57,-1
 621 277 l 1,58,59
 641 303 641 303 652 332 c 128,-1,60
 663 361 663 361 663 395 c 0,61,62
 663 444 663 444 641 481 c 128,-1,63
 619 518 619 518 580 543 c 128,-1,64
 541 568 541 568 490 580.5 c 128,-1,65
 439 593 439 593 382 593 c 0,66,67
 300 593 300 593 238 569 c 128,-1,68
 176 545 176 545 142 502 c 128,-1,69
 108 459 108 459 108 401 c 0,70,71
 108 361 108 361 125.5 326.5 c 128,-1,72
 143 292 143 292 178 258 c 1,73,-1
 152 201 l 1,74,75
 94 244 94 244 63 296 c 128,-1,76
 32 348 32 348 32 410 c 1,77,-1
 32 410 l 1,44,45
EndSplineSet
Substitution2: "Single Substitution lookup 10 subtable" uni0B33.base
Substitution2: "'aalt' Access All Alternates lookup 0 subtable" uni0B33.base
EndChar

StartChar: uni0B35
Encoding: 2869 2869 49
Width: 718
GlyphClass: 2
Flags: W
AnchorPoint: "Anchor-5" 359 -150 basechar 0
AnchorPoint: "Anchor-4" 628 0 basechar 0
AnchorPoint: "Anchor-3" 430 0 basechar 0
AnchorPoint: "Anchor-1" 590 658 basechar 0
AnchorPoint: "Anchor-0" 353 658 basechar 0
LayerCount: 2
Fore
SplineSet
161 198 m 1,0,1
 97 233 97 233 64.5 290.5 c 128,-1,2
 32 348 32 348 32 412 c 0,3,4
 32 465 32 465 54 511.5 c 128,-1,5
 76 558 76 558 117.5 592.5 c 128,-1,6
 159 627 159 627 218.5 646.5 c 128,-1,7
 278 666 278 666 353 666 c 0,8,9
 415 666 415 666 474.5 649 c 128,-1,10
 534 632 534 632 581.5 598.5 c 128,-1,11
 629 565 629 565 657.5 514.5 c 128,-1,12
 686 464 686 464 686 396 c 0,13,14
 686 351 686 351 672.5 313.5 c 128,-1,15
 659 276 659 276 636 246 c 1,16,-1
 565 278 l 1,17,18
 585 303 585 303 595.5 332.5 c 128,-1,19
 606 362 606 362 606 396 c 0,20,21
 606 446 606 446 584.5 482.5 c 128,-1,22
 563 519 563 519 527 544 c 128,-1,23
 491 569 491 569 446 581 c 128,-1,24
 401 593 401 593 354 593 c 0,25,26
 294 593 294 593 248.5 577.5 c 128,-1,27
 203 562 203 562 171.5 535.5 c 128,-1,28
 140 509 140 509 124 474.5 c 128,-1,29
 108 440 108 440 108 402 c 0,30,31
 108 358 108 358 128 318.5 c 128,-1,32
 148 279 148 279 185 256 c 1,33,-1
 161 198 l 1,34,-1
 161 198 l 1,0,1
328 49 m 1,35,36
 275 49 275 49 234.5 70.5 c 128,-1,37
 194 92 194 92 171.5 130.5 c 128,-1,38
 149 169 149 169 149 220 c 256,39,40
 149 271 149 271 172 309.5 c 128,-1,41
 195 348 195 348 235.5 369.5 c 128,-1,42
 276 391 276 391 330 391 c 0,43,44
 383 391 383 391 423 369.5 c 128,-1,45
 463 348 463 348 485.5 310 c 128,-1,46
 508 272 508 272 508 222 c 0,47,48
 508 171 508 171 485.5 132 c 128,-1,49
 463 93 463 93 422.5 71 c 128,-1,50
 382 49 382 49 328 49 c 1,51,-1
 328 49 l 1,35,36
329 110 m 1,52,53
 376 110 376 110 406.5 141 c 128,-1,54
 437 172 437 172 437 221 c 256,55,56
 437 270 437 270 406.5 299.5 c 128,-1,57
 376 329 376 329 329 329 c 256,58,59
 282 329 282 329 251 299.5 c 128,-1,60
 220 270 220 270 220 221 c 256,61,62
 220 172 220 172 251 141 c 128,-1,63
 282 110 282 110 329 110 c 1,64,-1
 329 110 l 1,52,53
328 179 m 1,65,66
 310 179 310 179 298.5 191 c 128,-1,67
 287 203 287 203 287 221 c 0,68,69
 287 238 287 238 298.5 249 c 128,-1,70
 310 260 310 260 328 260 c 0,71,72
 347 260 347 260 358.5 249 c 128,-1,73
 370 238 370 238 370 221 c 0,74,75
 370 203 370 203 358.5 191 c 128,-1,76
 347 179 347 179 328 179 c 1,77,-1
 328 179 l 1,65,66
434 187 m 1,78,-1
 508 222 l 1,79,-1
 508 0 l 1,80,-1
 430 0 l 1,81,-1
 434 187 l 1,78,-1
EndSplineSet
Substitution2: "'rclt' Required Contextual Alternates lookup 150 subtable" uni0B35.BRACKET.varAlt01
Substitution2: "Single Substitution lookup 10 subtable" uni0B35.base
Substitution2: "'aalt' Access All Alternates lookup 0 subtable" uni0B35.base
EndChar

StartChar: uni0B36
Encoding: 2870 2870 50
Width: 741
GlyphClass: 2
Flags: W
AnchorPoint: "Anchor-5" 313 -158 basechar 0
AnchorPoint: "Anchor-4" 679 0 basechar 0
AnchorPoint: "Anchor-3" 601 0 basechar 0
AnchorPoint: "Anchor-1" 640 658 basechar 0
AnchorPoint: "Anchor-0" 357 658 basechar 0
LayerCount: 2
Fore
SplineSet
611 344 m 1,0,1
 611 408 611 408 587.5 456 c 128,-1,2
 564 504 564 504 525.5 536.5 c 128,-1,3
 487 569 487 569 442 585 c 128,-1,4
 397 601 397 601 355 601 c 0,5,6
 303 601 303 601 272.5 577.5 c 128,-1,7
 242 554 242 554 242 513 c 0,8,9
 242 503 242 503 244 491.5 c 128,-1,10
 246 480 246 480 250 468 c 1,11,-1
 187 447 l 1,12,13
 178 467 178 467 174 486.5 c 128,-1,14
 170 506 170 506 170 525 c 0,15,16
 170 567 170 567 191 599 c 128,-1,17
 212 631 212 631 251.5 648.5 c 128,-1,18
 291 666 291 666 346 666 c 256,19,20
 401 666 401 666 458.5 646.5 c 128,-1,21
 516 627 516 627 564.5 587.5 c 128,-1,22
 613 548 613 548 643 488 c 128,-1,23
 673 428 673 428 673 347 c 1,24,-1
 611 344 l 1,25,-1
 611 344 l 1,0,1
313 -8 m 1,26,27
 257 -8 257 -8 215 14 c 128,-1,28
 173 36 173 36 149.5 73.5 c 128,-1,29
 126 111 126 111 126 159 c 256,30,31
 126 207 126 207 149.5 244.5 c 128,-1,32
 173 282 173 282 215 303 c 128,-1,33
 257 324 257 324 313 324 c 256,34,35
 369 324 369 324 411 303 c 128,-1,36
 453 282 453 282 476 244.5 c 128,-1,37
 499 207 499 207 499 159 c 256,38,39
 499 111 499 111 476 73.5 c 128,-1,40
 453 36 453 36 411 14 c 128,-1,41
 369 -8 369 -8 313 -8 c 1,42,-1
 313 -8 l 1,26,27
314 54 m 1,43,44
 367 54 367 54 397 82.5 c 128,-1,45
 427 111 427 111 427 159 c 0,46,47
 427 206 427 206 397.5 234.5 c 128,-1,48
 368 263 368 263 313 263 c 0,49,50
 259 263 259 263 229 234.5 c 128,-1,51
 199 206 199 206 199 159 c 0,52,53
 199 113 199 113 229 83.5 c 128,-1,54
 259 54 259 54 314 54 c 1,55,-1
 314 54 l 1,43,44
150 187 m 1,56,57
 92 213 92 213 62 256 c 128,-1,58
 32 299 32 299 32 346 c 0,59,60
 32 397 32 397 61 431.5 c 128,-1,61
 90 466 90 466 137.5 483.5 c 128,-1,62
 185 501 185 501 240 501 c 0,63,64
 277 501 277 501 315.5 493 c 128,-1,65
 354 485 354 485 391 470 c 1,66,-1
 370 417 l 1,67,68
 340 428 340 428 310.5 433.5 c 128,-1,69
 281 439 281 439 253 439 c 0,70,71
 189 439 189 439 148.5 413.5 c 128,-1,72
 108 388 108 388 108 340 c 0,73,74
 108 310 108 310 125 285 c 128,-1,75
 142 260 142 260 174 243 c 1,76,-1
 150 187 l 1,77,-1
 150 187 l 1,56,57
601 475 m 1,78,-1
 605 513 l 1,79,-1
 601 658 l 1,80,-1
 679 658 l 1,81,-1
 679 0 l 1,82,-1
 601 0 l 1,83,-1
 601 475 l 1,78,-1
EndSplineSet
Substitution2: "Single Substitution lookup 10 subtable" uni0B36.base
Substitution2: "'aalt' Access All Alternates lookup 0 subtable" uni0B36.base
EndChar

StartChar: uni0B37
Encoding: 2871 2871 51
Width: 741
GlyphClass: 2
Flags: W
AnchorPoint: "Anchor-5" 355 -157 basechar 0
AnchorPoint: "Anchor-4" 679 0 basechar 0
AnchorPoint: "Anchor-3" 601 0 basechar 0
AnchorPoint: "Anchor-1" 640 658 basechar 0
AnchorPoint: "Anchor-0" 335 658 basechar 0
LayerCount: 2
Fore
SplineSet
179 185 m 1,0,1
 130 210 130 210 97.5 245 c 128,-1,2
 65 280 65 280 48.5 323.5 c 128,-1,3
 32 367 32 367 32 416 c 0,4,5
 32 476 32 476 56.5 522.5 c 128,-1,6
 81 569 81 569 123 601 c 128,-1,7
 165 633 165 633 218 649.5 c 128,-1,8
 271 666 271 666 329 666 c 0,9,10
 394 666 394 666 455.5 646 c 128,-1,11
 517 626 517 626 566 586.5 c 128,-1,12
 615 547 615 547 644 487 c 128,-1,13
 673 427 673 427 673 347 c 1,14,-1
 611 344 l 1,15,16
 611 405 611 405 589 451.5 c 128,-1,17
 567 498 567 498 528.5 529.5 c 128,-1,18
 490 561 490 561 440.5 577 c 128,-1,19
 391 593 391 593 337 593 c 0,20,21
 277 593 277 593 225.5 571 c 128,-1,22
 174 549 174 549 143 506.5 c 128,-1,23
 112 464 112 464 112 402 c 0,24,25
 112 356 112 356 135.5 313.5 c 128,-1,26
 159 271 159 271 208 243 c 1,27,-1
 179 185 l 1,28,-1
 179 185 l 1,0,1
373 -7 m 1,29,30
 317 -7 317 -7 269.5 15.5 c 128,-1,31
 222 38 222 38 193.5 79 c 128,-1,32
 165 120 165 120 165 178 c 0,33,34
 165 227 165 227 187.5 270 c 128,-1,35
 210 313 210 313 251 345.5 c 128,-1,36
 292 378 292 378 348 395 c 1,37,-1
 376 334 l 1,38,39
 319 315 319 315 281.5 276 c 128,-1,40
 244 237 244 237 244 187 c 0,41,42
 244 148 244 148 264.5 121 c 128,-1,43
 285 94 285 94 316.5 80 c 128,-1,44
 348 66 348 66 381 66 c 0,45,46
 424 66 424 66 469.5 84 c 128,-1,47
 515 102 515 102 553 137 c 128,-1,48
 591 172 591 172 612 224 c 1,49,-1
 650 180 l 1,50,51
 626 116 626 116 581.5 74.5 c 128,-1,52
 537 33 537 33 482.5 13 c 128,-1,53
 428 -7 428 -7 373 -7 c 1,54,-1
 373 -7 l 1,29,30
606 117 m 1,55,-1
 601 155 l 1,56,-1
 601 465 l 1,57,-1
 605 504 l 1,58,-1
 601 658 l 1,59,-1
 679 658 l 1,60,-1
 679 0 l 1,61,-1
 601 0 l 1,62,-1
 606 117 l 1,55,-1
163 590 m 1,63,-1
 215 623 l 1,64,-1
 615 102 l 1,65,-1
 561 77 l 1,66,-1
 163 590 l 1,63,-1
EndSplineSet
Substitution2: "'rclt' Required Contextual Alternates lookup 150 subtable" uni0B37.BRACKET.varAlt01
Substitution2: "Single Substitution lookup 10 subtable" uni0B37.base
Substitution2: "'aalt' Access All Alternates lookup 0 subtable" uni0B37.base
EndChar

StartChar: uni0B38
Encoding: 2872 2872 52
Width: 695
GlyphClass: 2
Flags: W
AnchorPoint: "Anchor-5" 332 -162 basechar 0
AnchorPoint: "Anchor-4" 633 0 basechar 0
AnchorPoint: "Anchor-3" 555 0 basechar 0
AnchorPoint: "Anchor-1" 594 658 basechar 0
AnchorPoint: "Anchor-0" 295 658 basechar 0
LayerCount: 2
Fore
SplineSet
192 217 m 1,0,1
 139 242 139 242 103 277.5 c 128,-1,2
 67 313 67 313 49.5 355 c 128,-1,3
 32 397 32 397 32 442 c 0,4,5
 32 506 32 506 65.5 556.5 c 128,-1,6
 99 607 99 607 158 636.5 c 128,-1,7
 217 666 217 666 295 666 c 0,8,9
 355 666 355 666 413.5 646 c 128,-1,10
 472 626 472 626 520.5 586.5 c 128,-1,11
 569 547 569 547 597.5 487 c 128,-1,12
 626 427 626 427 626 347 c 1,13,-1
 565 344 l 1,14,15
 565 408 565 408 541.5 455 c 128,-1,16
 518 502 518 502 479.5 532.5 c 128,-1,17
 441 563 441 563 395 578 c 128,-1,18
 349 593 349 593 303 593 c 0,19,20
 249 593 249 593 205.5 573.5 c 128,-1,21
 162 554 162 554 136.5 519 c 128,-1,22
 111 484 111 484 111 436 c 0,23,24
 111 387 111 387 141.5 342 c 128,-1,25
 172 297 172 297 233 265 c 1,26,-1
 192 217 l 1,27,-1
 192 217 l 1,0,1
555 482 m 1,28,-1
 559 510 l 1,29,-1
 555 658 l 1,30,-1
 633 658 l 1,31,-1
 633 -12 l 1,32,-1
 592 -12 l 1,33,-1
 104 111 l 1,34,-1
 88 157 l 1,35,-1
 343 402 l 1,36,-1
 390 351 l 1,37,-1
 160 128 l 1,38,-1
 153 174 l 1,39,-1
 615 58 l 1,40,-1
 555 6 l 1,41,-1
 555 482 l 1,28,-1
EndSplineSet
Substitution2: "Single Substitution lookup 10 subtable" uni0B38.base
Substitution2: "'aalt' Access All Alternates lookup 0 subtable" uni0B38.base
EndChar

StartChar: uni0B39
Encoding: 2873 2873 53
Width: 703
GlyphClass: 2
Flags: W
AnchorPoint: "Anchor-5" 351 -141 basechar 0
AnchorPoint: "Anchor-4" 564 0 basechar 0
AnchorPoint: "Anchor-3" 380 13 basechar 0
AnchorPoint: "Anchor-1" 575 658 basechar 0
AnchorPoint: "Anchor-0" 340 658 basechar 0
LayerCount: 2
Fore
SplineSet
546 277 m 1,0,1
 567 304 567 304 579 335.5 c 128,-1,2
 591 367 591 367 591 402 c 0,3,4
 591 450 591 450 569 486 c 128,-1,5
 547 522 547 522 510.5 545.5 c 128,-1,6
 474 569 474 569 428.5 580.5 c 128,-1,7
 383 592 383 592 336 592 c 0,8,9
 278 592 278 592 226 574.5 c 128,-1,10
 174 557 174 557 141 522.5 c 128,-1,11
 108 488 108 488 108 437 c 0,12,13
 108 397 108 397 131.5 362 c 128,-1,14
 155 327 155 327 202 307 c 1,15,-1
 180 253 l 1,16,17
 105 278 105 278 68.5 330 c 128,-1,18
 32 382 32 382 32 442 c 0,19,20
 32 496 32 496 58 538 c 128,-1,21
 84 580 84 580 127.5 608 c 128,-1,22
 171 636 171 636 226.5 650.5 c 128,-1,23
 282 665 282 665 340 665 c 0,24,25
 401 665 401 665 460 649 c 128,-1,26
 519 633 519 633 566.5 601 c 128,-1,27
 614 569 614 569 642.5 520.5 c 128,-1,28
 671 472 671 472 671 406 c 0,29,30
 671 359 671 359 656 318 c 128,-1,31
 641 277 641 277 614 243 c 1,32,-1
 546 277 l 1,0,1
117 79 m 1,33,-1
 110 124 l 1,34,-1
 247 223 l 1,35,-1
 293 186 l 1,36,-1
 152 80 l 1,37,-1
 182 125 l 1,38,-1
 564 19 l 1,39,-1
 546 -41 l 1,40,-1
 117 79 l 1,33,-1
307 167 m 1,41,42
 259 167 259 167 226 185.5 c 128,-1,43
 193 204 193 204 176.5 234.5 c 128,-1,44
 160 265 160 265 160 299 c 0,45,46
 160 344 160 344 188 388.5 c 128,-1,47
 216 433 216 433 274 460 c 1,48,-1
 304 410 l 1,49,50
 270 393 270 393 251.5 362 c 128,-1,51
 233 331 233 331 233 302 c 0,52,53
 233 272 233 272 254 249.5 c 128,-1,54
 275 227 275 227 318 227 c 0,55,56
 348 227 348 227 374 240.5 c 128,-1,57
 400 254 400 254 416 282 c 1,58,-1
 457 261 l 1,59,60
 446 229 446 229 423 208 c 128,-1,61
 400 187 400 187 370 177 c 128,-1,62
 340 167 340 167 307 167 c 1,63,-1
 307 167 l 1,41,42
404 226 m 1,64,-1
 401 238 l 1,65,-1
 401 406 l 1,66,-1
 473 406 l 1,67,-1
 473 116 l 1,68,-1
 401 116 l 1,69,-1
 404 226 l 1,64,-1
EndSplineSet
Substitution2: "'rclt' Required Contextual Alternates lookup 150 subtable" uni0B39.BRACKET.varAlt01
Substitution2: "Single Substitution lookup 10 subtable" uni0B39.base
Substitution2: "'aalt' Access All Alternates lookup 0 subtable" uni0B39.base
EndChar

StartChar: uni0B71
Encoding: 2929 2929 54
Width: 700
GlyphClass: 2
Flags: W
AnchorPoint: "Anchor-5" 347 -150 basechar 0
AnchorPoint: "Anchor-4" 573 0 basechar 0
AnchorPoint: "Anchor-3" 495 0 basechar 0
AnchorPoint: "Anchor-1" 584 658 basechar 0
AnchorPoint: "Anchor-0" 387 658 basechar 0
LayerCount: 2
Fore
SplineSet
401 204 m 1,0,1
 283 204 283 204 200.5 235 c 128,-1,2
 118 266 118 266 75 322.5 c 128,-1,3
 32 379 32 379 32 455 c 0,4,5
 32 515 32 515 57 573 c 128,-1,6
 82 631 82 631 129 684 c 1,7,-1
 192 650 l 1,8,9
 155 606 155 606 133.5 558.5 c 128,-1,10
 112 511 112 511 112 456 c 0,11,12
 112 409 112 409 133.5 372.5 c 128,-1,13
 155 336 155 336 195 311.5 c 128,-1,14
 235 287 235 287 289.5 274.5 c 128,-1,15
 344 262 344 262 410 262 c 0,16,17
 460 262 460 262 499 270 c 128,-1,18
 538 278 538 278 561 295 c 128,-1,19
 584 312 584 312 584 339 c 0,20,21
 584 364 584 364 566 378 c 128,-1,22
 548 392 548 392 518.5 398 c 128,-1,23
 489 404 489 404 454 404 c 0,24,25
 424 404 424 404 397.5 399.5 c 128,-1,26
 371 395 371 395 342 387 c 1,27,-1
 321 438 l 1,28,-1
 412 460 l 2,29,30
 446 468 446 468 475 476 c 128,-1,31
 504 484 504 484 526 494.5 c 128,-1,32
 548 505 548 505 560 518.5 c 128,-1,33
 572 532 572 532 572 551 c 0,34,35
 572 579 572 579 544.5 595.5 c 128,-1,36
 517 612 517 612 467 612 c 0,37,38
 419 612 419 612 390 596 c 128,-1,39
 361 580 361 580 361 548 c 0,40,41
 361 540 361 540 363.5 529.5 c 128,-1,42
 366 519 366 519 370 509 c 1,43,-1
 300 492 l 1,44,45
 293 509 293 509 289.5 524.5 c 128,-1,46
 286 540 286 540 286 553 c 0,47,48
 286 607 286 607 336.5 636.5 c 128,-1,49
 387 666 387 666 470 666 c 0,50,51
 527 666 527 666 568 653 c 128,-1,52
 609 640 609 640 630.5 616 c 128,-1,53
 652 592 652 592 652 560 c 0,54,55
 652 533 652 533 633.5 507.5 c 128,-1,56
 615 482 615 482 573 460.5 c 128,-1,57
 531 439 531 439 460 423 c 2,58,-1
 392 408 l 1,59,-1
 450 455 l 1,60,61
 526 455 526 455 573 439 c 128,-1,62
 620 423 620 423 641.5 396.5 c 128,-1,63
 663 370 663 370 663 337 c 0,64,65
 663 295 663 295 631.5 265 c 128,-1,66
 600 235 600 235 541.5 219.5 c 128,-1,67
 483 204 483 204 401 204 c 1,68,-1
 401 204 l 1,0,1
340 40 m 1,69,70
 278 40 278 40 234 57 c 128,-1,71
 190 74 190 74 167 105.5 c 128,-1,72
 144 137 144 137 144 181 c 0,73,74
 144 210 144 210 154.5 238 c 128,-1,75
 165 266 165 266 184 292 c 1,76,-1
 244 259 l 1,77,78
 234 240 234 240 228.5 221 c 128,-1,79
 223 202 223 202 223 185 c 0,80,81
 223 155 223 155 240 134.5 c 128,-1,82
 257 114 257 114 286 104 c 128,-1,83
 315 94 315 94 352 94 c 0,84,85
 396 94 396 94 439.5 111 c 128,-1,86
 483 128 483 128 507 160 c 1,87,-1
 540 119 l 1,88,89
 509 80 509 80 453.5 60 c 128,-1,90
 398 40 398 40 340 40 c 1,91,-1
 340 40 l 1,69,70
499 98 m 1,92,-1
 495 131 l 1,93,-1
 495 241 l 1,94,-1
 573 247 l 1,95,-1
 573 0 l 1,96,-1
 495 0 l 1,97,-1
 499 98 l 1,92,-1
EndSplineSet
Substitution2: "Single Substitution lookup 10 subtable" uni0B71.base
Substitution2: "'aalt' Access All Alternates lookup 0 subtable" uni0B71.base
EndChar

StartChar: uni0B60
Encoding: 2912 2912 55
Width: 810
GlyphClass: 2
Flags: W
AnchorPoint: "Anchor-5" 405 -230 basechar 0
LayerCount: 2
Fore
SplineSet
160 192 m 1,0,1
 95 234 95 234 63.5 289 c 128,-1,2
 32 344 32 344 32 404 c 0,3,4
 32 469 32 469 60.5 518 c 128,-1,5
 89 567 89 567 137.5 600 c 128,-1,6
 186 633 186 633 246 649.5 c 128,-1,7
 306 666 306 666 370 666 c 0,8,9
 437 666 437 666 495 649 c 128,-1,10
 553 632 553 632 596.5 600.5 c 128,-1,11
 640 569 640 569 664.5 525 c 128,-1,12
 689 481 689 481 689 427 c 0,13,14
 689 400 689 400 680.5 372 c 128,-1,15
 672 344 672 344 654 317 c 1,16,-1
 580 301 l 1,17,18
 595 330 595 330 602 357.5 c 128,-1,19
 609 385 609 385 609 410 c 0,20,21
 609 455 609 455 589.5 489 c 128,-1,22
 570 523 570 523 536.5 546.5 c 128,-1,23
 503 570 503 570 459.5 581.5 c 128,-1,24
 416 593 416 593 367 593 c 0,25,26
 316 593 316 593 269 580 c 128,-1,27
 222 567 222 567 186 542 c 128,-1,28
 150 517 150 517 129 479.5 c 128,-1,29
 108 442 108 442 108 394 c 0,30,31
 108 351 108 351 128.5 313.5 c 128,-1,32
 149 276 149 276 188 248 c 1,33,-1
 160 192 l 1,34,-1
 160 192 l 1,0,1
313 -8 m 1,35,36
 257 -8 257 -8 215 15.5 c 128,-1,37
 173 39 173 39 149.5 80 c 128,-1,38
 126 121 126 121 126 174 c 256,39,40
 126 227 126 227 149.5 267.5 c 128,-1,41
 173 308 173 308 215 331.5 c 128,-1,42
 257 355 257 355 313 355 c 256,43,44
 369 355 369 355 410.5 331.5 c 128,-1,45
 452 308 452 308 475 267.5 c 128,-1,46
 498 227 498 227 498 174 c 256,47,48
 498 121 498 121 475 80 c 128,-1,49
 452 39 452 39 410.5 15.5 c 128,-1,50
 369 -8 369 -8 313 -8 c 1,51,-1
 313 -8 l 1,35,36
313 57 m 1,52,53
 366 57 366 57 394.5 89.5 c 128,-1,54
 423 122 423 122 423 174 c 0,55,56
 423 225 423 225 394.5 257 c 128,-1,57
 366 289 366 289 313 289 c 256,58,59
 260 289 260 289 230.5 257 c 128,-1,60
 201 225 201 225 201 174 c 256,61,62
 201 123 201 123 230.5 90 c 128,-1,63
 260 57 260 57 313 57 c 1,64,-1
 313 57 l 1,52,53
567 157 m 1,65,66
 614 157 614 157 642.5 168 c 128,-1,67
 671 179 671 179 684 196.5 c 128,-1,68
 697 214 697 214 697 232 c 0,69,70
 697 257 697 257 672 277 c 128,-1,71
 647 297 647 297 597 300 c 2,72,-1
 580 301 l 1,73,-1
 642 346 l 1,74,75
 685 345 685 345 715.5 330 c 128,-1,76
 746 315 746 315 762 291.5 c 128,-1,77
 778 268 778 268 778 239 c 256,78,79
 778 210 778 210 761 184 c 128,-1,80
 744 158 744 158 708.5 142 c 128,-1,81
 673 126 673 126 618 126 c 1,82,-1
 560 106 l 1,83,-1
 567 157 l 1,65,66
515 -64 m 1,84,-1
 542 -29 l 1,85,86
 599 -29 599 -29 636 -12.5 c 128,-1,87
 673 4 673 4 673 40 c 0,88,89
 673 62 673 62 658.5 76.5 c 128,-1,90
 644 91 644 91 618.5 98.5 c 128,-1,91
 593 106 593 106 560 106 c 1,92,-1
 617 151 l 1,93,94
 657 150 657 150 688 136.5 c 128,-1,95
 719 123 719 123 736.5 100 c 128,-1,96
 754 77 754 77 754 45 c 0,97,98
 754 9 754 9 730.5 -17.5 c 128,-1,99
 707 -44 707 -44 666 -58 c 128,-1,100
 625 -72 625 -72 572 -72 c 1,101,-1
 578 -33 l 1,102,-1
 699 -183 l 1,103,-1
 636 -230 l 1,104,-1
 515 -64 l 1,84,-1
EndSplineSet
EndChar

StartChar: uni0B61
Encoding: 2913 2913 56
Width: 590
GlyphClass: 2
Flags: W
AnchorPoint: "Anchor-5" 297 -288 basechar 0
LayerCount: 2
Fore
SplineSet
426 -138 m 1,0,1
 380 -93 380 -93 344 -44 c 128,-1,2
 308 5 308 5 287 54 c 128,-1,3
 266 103 266 103 266 148 c 0,4,5
 266 191 266 191 285 222 c 128,-1,6
 304 253 304 253 338 270 c 128,-1,7
 372 287 372 287 417 287 c 0,8,9
 485 287 485 287 521.5 252 c 128,-1,10
 558 217 558 217 558 159 c 0,11,12
 558 107 558 107 528 69.5 c 128,-1,13
 498 32 498 32 441 12 c 128,-1,14
 384 -8 384 -8 302 -8 c 0,15,16
 215 -8 215 -8 155.5 15.5 c 128,-1,17
 96 39 96 39 66 82.5 c 128,-1,18
 36 126 36 126 36 185 c 0,19,20
 36 233 36 233 53 263.5 c 128,-1,21
 70 294 70 294 97 313.5 c 128,-1,22
 124 333 124 333 154 344 c 128,-1,23
 184 355 184 355 211 364 c 2,24,-1
 279 385 l 2,25,26
 310 395 310 395 333.5 408 c 128,-1,27
 357 421 357 421 370.5 442.5 c 128,-1,28
 384 464 384 464 384 498 c 0,29,30
 384 544 384 544 358 572.5 c 128,-1,31
 332 601 332 601 278 601 c 0,32,33
 227 601 227 601 197 573.5 c 128,-1,34
 167 546 167 546 167 498 c 0,35,36
 167 483 167 483 170.5 466 c 128,-1,37
 174 449 174 449 184 430 c 1,38,-1
 108 408 l 1,39,40
 99 429 99 429 93 453 c 128,-1,41
 87 477 87 477 87 502 c 0,42,43
 87 553 87 553 110.5 589.5 c 128,-1,44
 134 626 134 626 177.5 646 c 128,-1,45
 221 666 221 666 279 666 c 0,46,47
 329 666 329 666 364 652.5 c 128,-1,48
 399 639 399 639 421 616 c 128,-1,49
 443 593 443 593 453 563 c 128,-1,50
 463 533 463 533 463 500 c 0,51,52
 463 457 463 457 449 427.5 c 128,-1,53
 435 398 435 398 412 379 c 128,-1,54
 389 360 389 360 362 348 c 128,-1,55
 335 336 335 336 309 328 c 2,56,-1
 257 311 l 2,57,58
 225 301 225 301 198 291 c 128,-1,59
 171 281 171 281 150.5 267.5 c 128,-1,60
 130 254 130 254 118.5 234.5 c 128,-1,61
 107 215 107 215 107 185 c 0,62,63
 107 145 107 145 130 114.5 c 128,-1,64
 153 84 153 84 198.5 67.5 c 128,-1,65
 244 51 244 51 311 51 c 0,66,67
 372 51 372 51 412.5 64 c 128,-1,68
 453 77 453 77 474 101 c 128,-1,69
 495 125 495 125 495 157 c 0,70,71
 495 192 495 192 474 212 c 128,-1,72
 453 232 453 232 416 232 c 0,73,74
 377 232 377 232 353 207.5 c 128,-1,75
 329 183 329 183 329 142 c 0,76,77
 329 110 329 110 345.5 71.5 c 128,-1,78
 362 33 362 33 394 -9 c 128,-1,79
 426 -51 426 -51 470 -95 c 1,80,-1
 426 -138 l 1,81,-1
 426 -138 l 1,0,1
EndSplineSet
EndChar

StartChar: uni0B3C
Encoding: 2876 2876 57
Width: 0
GlyphClass: 4
Flags: W
AnchorPoint: "Anchor-11" 300 -112 mark 0
AnchorPoint: "Anchor-8" 300 -112 mark 0
AnchorPoint: "Anchor-5" 300 -112 mark 0
LayerCount: 2
Fore
SplineSet
300 -162 m 1,0,1
 281 -162 281 -162 266 -148 c 128,-1,2
 251 -134 251 -134 251 -112 c 0,3,4
 251 -92 251 -92 266 -77 c 128,-1,5
 281 -62 281 -62 300 -62 c 0,6,7
 320 -62 320 -62 335 -77 c 128,-1,8
 350 -92 350 -92 350 -112 c 0,9,10
 350 -134 350 -134 336 -148 c 128,-1,11
 322 -162 322 -162 300 -162 c 1,12,-1
 300 -162 l 1,0,1
EndSplineSet
Substitution2: "Single Substitution lookup 19 subtable" uni0B3C.alt
Substitution2: "'aalt' Access All Alternates lookup 0 subtable" uni0B3C.alt
EndChar

StartChar: uni0B3D
Encoding: 2877 2877 58
Width: 405
Flags: W
LayerCount: 2
Fore
SplineSet
335 -8 m 1,0,-1
 36 139 l 1,1,-1
 36 197 l 1,2,-1
 315 343 l 1,3,-1
 314 312 l 1,4,-1
 36 458 l 1,5,-1
 36 516 l 1,6,-1
 335 666 l 1,7,-1
 367 603 l 1,8,-1
 88 459 l 1,9,-1
 83 502 l 1,10,-1
 362 358 l 1,11,-1
 362 300 l 1,12,-1
 78 150 l 1,13,-1
 86 197 l 1,14,-1
 367 55 l 1,15,-1
 335 -8 l 1,0,-1
EndSplineSet
EndChar

StartChar: uni0B3E
Encoding: 2878 2878 59
Width: 201
GlyphClass: 2
Flags: W
AnchorPoint: "Anchor-1" 100 658 basechar 0
LayerCount: 2
Fore
SplineSet
139 658 m 1,0,-1
 139 0 l 1,1,-1
 61 0 l 1,2,-1
 61 658 l 1,3,-1
 139 658 l 1,0,-1
EndSplineSet
EndChar

StartChar: uni0B3F
Encoding: 2879 2879 60
Width: 0
GlyphClass: 4
Flags: W
AnchorPoint: "Anchor-15" 300 658 mark 0
AnchorPoint: "Anchor-12" 300 658 mark 0
AnchorPoint: "Anchor-2" 300 658 mark 0
AnchorPoint: "Anchor-0" 300 658 mark 0
LayerCount: 2
Fore
SplineSet
16 756 m 1,0,1
 76 806 76 806 150 832.5 c 128,-1,2
 224 859 224 859 301 859 c 0,3,4
 379 859 379 859 452 832.5 c 128,-1,5
 525 806 525 806 584 756 c 1,6,-1
 546 702 l 1,7,8
 498 746 498 746 434 768.5 c 128,-1,9
 370 791 370 791 301 791 c 0,10,11
 231 791 231 791 167 768.5 c 128,-1,12
 103 746 103 746 54 702 c 1,13,-1
 16 756 l 1,0,1
EndSplineSet
Substitution2: "Single Substitution lookup 29 subtable" uni0B3F.wide
Substitution2: "Single Substitution lookup 22 subtable" uni0B3F.below
AlternateSubs2: "'aalt' Access All Alternates lookup 1 subtable" uni0B3F.below uni0B3F.wide
EndChar

StartChar: uni0B3F.wide
Encoding: 65537 -1 61
Width: 0
GlyphClass: 4
Flags: W
AnchorPoint: "Anchor-15" 338 658 mark 0
AnchorPoint: "Anchor-12" 338 658 mark 0
AnchorPoint: "Anchor-2" 338 658 mark 0
AnchorPoint: "Anchor-0" 338 658 mark 0
LayerCount: 2
Fore
SplineSet
24 755 m 1,0,1
 87 806 87 806 169.5 832.5 c 128,-1,2
 252 859 252 859 337 859 c 0,3,4
 424 859 424 859 505.5 832.5 c 128,-1,5
 587 806 587 806 651 755 c 1,6,-1
 612 702 l 1,7,8
 560 746 560 746 488 768.5 c 128,-1,9
 416 791 416 791 338 791 c 256,10,11
 260 791 260 791 187.5 768.5 c 128,-1,12
 115 746 115 746 62 702 c 1,13,-1
 24 755 l 1,0,1
EndSplineSet
EndChar

StartChar: uni0B40
Encoding: 2880 2880 62
Width: 313
GlyphClass: 2
Flags: W
AnchorPoint: "Anchor-1" 215 658 basechar 0
LayerCount: 2
Fore
SplineSet
251 0 m 1,0,-1
 173 0 l 1,1,-1
 173 613 l 1,2,-1
 204 592 l 1,3,-1
 36 481 l 1,4,-1
 -2 539 l 1,5,-1
 178 658 l 1,6,-1
 251 658 l 1,7,-1
 251 0 l 1,0,-1
EndSplineSet
EndChar

StartChar: uni0B41
Encoding: 2881 2881 63
Width: 0
GlyphClass: 4
Flags: W
AnchorPoint: "Anchor-14" 391 0 mark 0
AnchorPoint: "Anchor-9" 391 0 mark 0
AnchorPoint: "Anchor-6" 391 0 mark 0
AnchorPoint: "Anchor-3" 391 0 mark 0
LayerCount: 2
Fore
SplineSet
284 -247 m 1,0,1
 247 -247 247 -247 220 -233 c 128,-1,2
 193 -219 193 -219 178.5 -196 c 128,-1,3
 164 -173 164 -173 164 -146 c 0,4,5
 164 -121 164 -121 176.5 -99 c 128,-1,6
 189 -77 189 -77 213 -63 c 128,-1,7
 237 -49 237 -49 273 -49 c 0,8,9
 310 -49 310 -49 340 -62.5 c 128,-1,10
 370 -76 370 -76 396.5 -95.5 c 128,-1,11
 423 -115 423 -115 447.5 -135 c 128,-1,12
 472 -155 472 -155 498 -168.5 c 128,-1,13
 524 -182 524 -182 553 -182 c 0,14,15
 564 -182 564 -182 579.5 -179.5 c 128,-1,16
 595 -177 595 -177 609 -173 c 1,17,-1
 630 -231 l 1,18,19
 615 -238 615 -238 597 -242.5 c 128,-1,20
 579 -247 579 -247 560 -247 c 0,21,22
 521 -247 521 -247 489 -232.5 c 128,-1,23
 457 -218 457 -218 430 -196.5 c 128,-1,24
 403 -175 403 -175 378 -153.5 c 128,-1,25
 353 -132 353 -132 328 -117.5 c 128,-1,26
 303 -103 303 -103 276 -103 c 0,27,28
 250 -103 250 -103 236.5 -116.5 c 128,-1,29
 223 -130 223 -130 223 -147 c 0,30,31
 223 -166 223 -166 239.5 -179.5 c 128,-1,32
 256 -193 256 -193 284 -193 c 0,33,34
 313 -193 313 -193 333.5 -176.5 c 128,-1,35
 354 -160 354 -160 366.5 -132.5 c 128,-1,36
 379 -105 379 -105 385 -70.5 c 128,-1,37
 391 -36 391 -36 391 0 c 1,38,-1
 469 21 l 1,39,-1
 469 0 l 2,40,41
 469 -56 469 -56 455.5 -101.5 c 128,-1,42
 442 -147 442 -147 417 -179.5 c 128,-1,43
 392 -212 392 -212 358 -229.5 c 128,-1,44
 324 -247 324 -247 284 -247 c 1,45,-1
 284 -247 l 1,0,1
EndSplineSet
Substitution2: "Single Substitution lookup 113 subtable" uni0B41.028
Substitution2: "Single Substitution lookup 112 subtable" uni0B41.027
Substitution2: "Single Substitution lookup 111 subtable" uni0B41.026
Substitution2: "Single Substitution lookup 110 subtable" uni0B41.025
Substitution2: "Single Substitution lookup 109 subtable" uni0B41.024
Substitution2: "Single Substitution lookup 108 subtable" uni0B41.023
Substitution2: "Single Substitution lookup 107 subtable" uni0B41.022
Substitution2: "Single Substitution lookup 106 subtable" uni0B41.021
Substitution2: "Single Substitution lookup 105 subtable" uni0B41.020
Substitution2: "Single Substitution lookup 104 subtable" uni0B41.019
Substitution2: "Single Substitution lookup 103 subtable" uni0B41.018
Substitution2: "Single Substitution lookup 102 subtable" uni0B41.017
Substitution2: "Single Substitution lookup 101 subtable" uni0B41.016
Substitution2: "Single Substitution lookup 100 subtable" uni0B41.015
Substitution2: "Single Substitution lookup 99 subtable" uni0B41.014
Substitution2: "Single Substitution lookup 98 subtable" uni0B41.013
Substitution2: "Single Substitution lookup 97 subtable" uni0B41.012
Substitution2: "Single Substitution lookup 96 subtable" uni0B41.011
Substitution2: "Single Substitution lookup 95 subtable" uni0B41.009
Substitution2: "Single Substitution lookup 94 subtable" uni0B41.008
Substitution2: "Single Substitution lookup 93 subtable" uni0B41.007
Substitution2: "Single Substitution lookup 92 subtable" uni0B41.006
Substitution2: "Single Substitution lookup 91 subtable" uni0B41.005
Substitution2: "Single Substitution lookup 90 subtable" uni0B41.004
Substitution2: "Single Substitution lookup 89 subtable" uni0B41.003
Substitution2: "Single Substitution lookup 88 subtable" uni0B41.002
Substitution2: "Single Substitution lookup 87 subtable" uni0B41.001
Substitution2: "Single Substitution lookup 57 subtable" uni0B41.028
Substitution2: "Single Substitution lookup 56 subtable" uni0B41.027
Substitution2: "Single Substitution lookup 55 subtable" uni0B41.026
Substitution2: "Single Substitution lookup 54 subtable" uni0B41.025
Substitution2: "Single Substitution lookup 53 subtable" uni0B41.024
Substitution2: "Single Substitution lookup 52 subtable" uni0B41.023
Substitution2: "Single Substitution lookup 51 subtable" uni0B41.022
Substitution2: "Single Substitution lookup 50 subtable" uni0B41.021
Substitution2: "Single Substitution lookup 49 subtable" uni0B41.020
Substitution2: "Single Substitution lookup 48 subtable" uni0B41.019
Substitution2: "Single Substitution lookup 47 subtable" uni0B41.018
Substitution2: "Single Substitution lookup 46 subtable" uni0B41.017
Substitution2: "Single Substitution lookup 45 subtable" uni0B41.016
Substitution2: "Single Substitution lookup 44 subtable" uni0B41.015
Substitution2: "Single Substitution lookup 43 subtable" uni0B41.014
Substitution2: "Single Substitution lookup 42 subtable" uni0B41.013
Substitution2: "Single Substitution lookup 41 subtable" uni0B41.012
Substitution2: "Single Substitution lookup 40 subtable" uni0B41.011
Substitution2: "Single Substitution lookup 39 subtable" uni0B41.009
Substitution2: "Single Substitution lookup 38 subtable" uni0B41.008
Substitution2: "Single Substitution lookup 37 subtable" uni0B41.007
Substitution2: "Single Substitution lookup 36 subtable" uni0B41.006
Substitution2: "Single Substitution lookup 35 subtable" uni0B41.005
Substitution2: "Single Substitution lookup 34 subtable" uni0B41.004
Substitution2: "Single Substitution lookup 33 subtable" uni0B41.003
Substitution2: "Single Substitution lookup 32 subtable" uni0B41.002
Substitution2: "Single Substitution lookup 31 subtable" uni0B41.001
AlternateSubs2: "'aalt' Access All Alternates lookup 1 subtable" uni0B41.001 uni0B41.002 uni0B41.003 uni0B41.004 uni0B41.005 uni0B41.006 uni0B41.007 uni0B41.008 uni0B41.009 uni0B41.010 uni0B41.011 uni0B41.012 uni0B41.013 uni0B41.014 uni0B41.015 uni0B41.016 uni0B41.017 uni0B41.018 uni0B41.019 uni0B41.020 uni0B41.021 uni0B41.022 uni0B41.023 uni0B41.024 uni0B41.025 uni0B41.026 uni0B41.027 uni0B41.028
EndChar

StartChar: uni0B42
Encoding: 2882 2882 64
Width: 0
GlyphClass: 4
Flags: W
AnchorPoint: "Anchor-14" 382 0 mark 0
AnchorPoint: "Anchor-9" 382 0 mark 0
AnchorPoint: "Anchor-6" 382 0 mark 0
AnchorPoint: "Anchor-3" 382 0 mark 0
LayerCount: 2
Fore
SplineSet
222 -137 m 1,0,1
 222 -104 222 -104 241.5 -80 c 128,-1,2
 261 -56 261 -56 300 -43 c 128,-1,3
 339 -30 339 -30 399 -30 c 1,4,-1
 382 -66 l 1,5,-1
 382 0 l 1,6,-1
 460 21 l 1,7,-1
 460 -83 l 1,8,9
 377 -83 377 -83 336.5 -93.5 c 128,-1,10
 296 -104 296 -104 296 -135 c 0,11,12
 296 -162 296 -162 317.5 -174 c 128,-1,13
 339 -186 339 -186 371 -186 c 0,14,15
 407 -186 407 -186 441.5 -173.5 c 128,-1,16
 476 -161 476 -161 501 -140 c 1,17,18
 528 -158 528 -158 554.5 -171 c 128,-1,19
 581 -184 581 -184 609 -184 c 0,20,21
 621 -184 621 -184 635.5 -181.5 c 128,-1,22
 650 -179 650 -179 666 -174 c 1,23,-1
 687 -231 l 1,24,25
 671 -239 671 -239 653 -243.5 c 128,-1,26
 635 -248 635 -248 618 -248 c 0,27,28
 584 -248 584 -248 555.5 -234.5 c 128,-1,29
 527 -221 527 -221 501 -201 c 1,30,31
 471 -222 471 -222 435 -235 c 128,-1,32
 399 -248 399 -248 359 -248 c 0,33,34
 302 -248 302 -248 262 -220 c 128,-1,35
 222 -192 222 -192 222 -137 c 1,36,-1
 222 -137 l 1,0,1
EndSplineSet
Substitution2: "'rclt' Required Contextual Alternates lookup 150 subtable" uni0B42.BRACKET.varAlt01
Substitution2: "Single Substitution lookup 141 subtable" uni0B42.028
Substitution2: "Single Substitution lookup 140 subtable" uni0B42.027
Substitution2: "Single Substitution lookup 139 subtable" uni0B42.026
Substitution2: "Single Substitution lookup 138 subtable" uni0B42.025
Substitution2: "Single Substitution lookup 137 subtable" uni0B42.024
Substitution2: "Single Substitution lookup 136 subtable" uni0B42.023
Substitution2: "Single Substitution lookup 135 subtable" uni0B42.022
Substitution2: "Single Substitution lookup 134 subtable" uni0B42.021
Substitution2: "Single Substitution lookup 133 subtable" uni0B42.020
Substitution2: "Single Substitution lookup 132 subtable" uni0B42.019
Substitution2: "Single Substitution lookup 131 subtable" uni0B42.018
Substitution2: "Single Substitution lookup 130 subtable" uni0B42.017
Substitution2: "Single Substitution lookup 129 subtable" uni0B42.016
Substitution2: "Single Substitution lookup 128 subtable" uni0B42.015
Substitution2: "Single Substitution lookup 127 subtable" uni0B42.014
Substitution2: "Single Substitution lookup 126 subtable" uni0B42.013
Substitution2: "Single Substitution lookup 125 subtable" uni0B42.012
Substitution2: "Single Substitution lookup 124 subtable" uni0B42.011
Substitution2: "Single Substitution lookup 123 subtable" uni0B42.009
Substitution2: "Single Substitution lookup 122 subtable" uni0B42.008
Substitution2: "Single Substitution lookup 121 subtable" uni0B42.007
Substitution2: "Single Substitution lookup 120 subtable" uni0B42.006
Substitution2: "Single Substitution lookup 119 subtable" uni0B42.005
Substitution2: "Single Substitution lookup 118 subtable" uni0B42.004
Substitution2: "Single Substitution lookup 117 subtable" uni0B42.003
Substitution2: "Single Substitution lookup 116 subtable" uni0B42.002
Substitution2: "Single Substitution lookup 115 subtable" uni0B42.001
Substitution2: "Single Substitution lookup 85 subtable" uni0B42.028
Substitution2: "Single Substitution lookup 84 subtable" uni0B42.027
Substitution2: "Single Substitution lookup 83 subtable" uni0B42.026
Substitution2: "Single Substitution lookup 82 subtable" uni0B42.025
Substitution2: "Single Substitution lookup 81 subtable" uni0B42.024
Substitution2: "Single Substitution lookup 80 subtable" uni0B42.023
Substitution2: "Single Substitution lookup 79 subtable" uni0B42.022
Substitution2: "Single Substitution lookup 78 subtable" uni0B42.021
Substitution2: "Single Substitution lookup 77 subtable" uni0B42.020
Substitution2: "Single Substitution lookup 76 subtable" uni0B42.019
Substitution2: "Single Substitution lookup 75 subtable" uni0B42.018
Substitution2: "Single Substitution lookup 74 subtable" uni0B42.017
Substitution2: "Single Substitution lookup 73 subtable" uni0B42.016
Substitution2: "Single Substitution lookup 72 subtable" uni0B42.015
Substitution2: "Single Substitution lookup 71 subtable" uni0B42.014
Substitution2: "Single Substitution lookup 70 subtable" uni0B42.013
Substitution2: "Single Substitution lookup 69 subtable" uni0B42.012
Substitution2: "Single Substitution lookup 68 subtable" uni0B42.011
Substitution2: "Single Substitution lookup 67 subtable" uni0B42.009
Substitution2: "Single Substitution lookup 66 subtable" uni0B42.008
Substitution2: "Single Substitution lookup 65 subtable" uni0B42.007
Substitution2: "Single Substitution lookup 64 subtable" uni0B42.006
Substitution2: "Single Substitution lookup 63 subtable" uni0B42.005
Substitution2: "Single Substitution lookup 62 subtable" uni0B42.004
Substitution2: "Single Substitution lookup 61 subtable" uni0B42.003
Substitution2: "Single Substitution lookup 60 subtable" uni0B42.002
Substitution2: "Single Substitution lookup 59 subtable" uni0B42.001
AlternateSubs2: "'aalt' Access All Alternates lookup 1 subtable" uni0B42.001 uni0B42.002 uni0B42.003 uni0B42.004 uni0B42.005 uni0B42.006 uni0B42.007 uni0B42.008 uni0B42.009 uni0B42.010 uni0B42.011 uni0B42.012 uni0B42.013 uni0B42.014 uni0B42.015 uni0B42.016 uni0B42.017 uni0B42.018 uni0B42.019 uni0B42.020 uni0B42.021 uni0B42.022 uni0B42.023 uni0B42.024 uni0B42.025 uni0B42.026 uni0B42.027 uni0B42.028
EndChar

StartChar: uni0B43
Encoding: 2883 2883 65
Width: 0
GlyphClass: 4
Flags: W
AnchorPoint: "Anchor-14" 357 -23 mark 0
AnchorPoint: "Anchor-9" 357 -23 mark 0
AnchorPoint: "Anchor-6" 357 -23 mark 0
AnchorPoint: "Anchor-3" 357 -23 mark 0
LayerCount: 2
Fore
SplineSet
468 -69 m 1,0,1
 524 -70 524 -70 555.5 -94 c 128,-1,2
 587 -118 587 -118 587 -156 c 0,3,4
 587 -188 587 -188 565 -210.5 c 128,-1,5
 543 -233 543 -233 505.5 -244.5 c 128,-1,6
 468 -256 468 -256 421 -256 c 0,7,8
 372 -256 372 -256 333 -242 c 128,-1,9
 294 -228 294 -228 271 -202 c 128,-1,10
 248 -176 248 -176 248 -139 c 0,11,12
 248 -87 248 -87 293.5 -53.5 c 128,-1,13
 339 -20 339 -20 410 -13 c 1,14,-1
 424 -62 l 1,15,16
 379 -69 379 -69 350.5 -89 c 128,-1,17
 322 -109 322 -109 322 -139 c 0,18,19
 322 -168 322 -168 351 -185.5 c 128,-1,20
 380 -203 380 -203 425 -203 c 0,21,22
 463 -203 463 -203 490.5 -191 c 128,-1,23
 518 -179 518 -179 518 -157 c 0,24,25
 518 -125 518 -125 459 -120 c 1,26,-1
 468 -69 l 1,27,-1
 468 -69 l 1,0,1
EndSplineSet
EndChar

StartChar: uni0B44
Encoding: 2884 2884 66
Width: 0
GlyphClass: 4
Flags: W
AnchorPoint: "Anchor-14" 334 -14 mark 0
AnchorPoint: "Anchor-9" 334 -14 mark 0
AnchorPoint: "Anchor-6" 334 -14 mark 0
AnchorPoint: "Anchor-3" 334 -14 mark 0
LayerCount: 2
Fore
SplineSet
233 -180 m 1,0,1
 233 -150 233 -150 261 -130 c 128,-1,2
 289 -110 289 -110 346 -105 c 1,3,-1
 365 -119 l 1,4,5
 304 -118 304 -118 271.5 -105 c 128,-1,6
 239 -92 239 -92 239 -68 c 0,7,8
 239 -41 239 -41 278.5 -26 c 128,-1,9
 318 -11 318 -11 390 -10 c 1,10,-1
 397 -49 l 1,11,12
 354 -49 354 -49 330.5 -54.5 c 128,-1,13
 307 -60 307 -60 307 -72 c 256,14,15
 307 -84 307 -84 327 -89.5 c 128,-1,16
 347 -95 347 -95 390 -96 c 1,17,-1
 397 -134 l 1,18,19
 348 -135 348 -135 325 -146 c 128,-1,20
 302 -157 302 -157 302 -174 c 0,21,22
 302 -186 302 -186 316 -195.5 c 128,-1,23
 330 -205 330 -205 354 -210 c 128,-1,24
 378 -215 378 -215 408 -215 c 0,25,26
 448 -215 448 -215 473.5 -206 c 128,-1,27
 499 -197 499 -197 499 -183 c 0,28,29
 499 -172 499 -172 485.5 -166 c 128,-1,30
 472 -160 472 -160 442 -158 c 1,31,-1
 448 -117 l 1,32,33
 507 -118 507 -118 532 -138 c 128,-1,34
 557 -158 557 -158 557 -185 c 0,35,36
 557 -221 557 -221 515 -242.5 c 128,-1,37
 473 -264 473 -264 400 -264 c 0,38,39
 352 -264 352 -264 314 -254 c 128,-1,40
 276 -244 276 -244 254.5 -225 c 128,-1,41
 233 -206 233 -206 233 -180 c 1,42,-1
 233 -180 l 1,0,1
EndSplineSet
Substitution2: "'rclt' Required Contextual Alternates lookup 150 subtable" uni0B44.BRACKET.varAlt01
EndChar

StartChar: uni0B62
Encoding: 2914 2914 67
Width: 0
GlyphClass: 4
Flags: W
AnchorPoint: "Anchor-14" 331 -2 mark 0
AnchorPoint: "Anchor-9" 331 -2 mark 0
AnchorPoint: "Anchor-6" 331 -2 mark 0
AnchorPoint: "Anchor-3" 331 -2 mark 0
LayerCount: 2
Fore
SplineSet
383 -224 m 1,0,1
 367 -199 367 -199 367 -178 c 0,2,3
 367 -152 367 -152 388 -138 c 128,-1,4
 409 -124 409 -124 442 -124 c 0,5,6
 472 -124 472 -124 496.5 -137 c 128,-1,7
 521 -150 521 -150 521 -178 c 0,8,9
 521 -209 521 -209 484.5 -225.5 c 128,-1,10
 448 -242 448 -242 374 -242 c 0,11,12
 320 -242 320 -242 281 -233 c 128,-1,13
 242 -224 242 -224 221 -206 c 128,-1,14
 200 -188 200 -188 200 -162 c 0,15,16
 200 -135 200 -135 218.5 -120 c 128,-1,17
 237 -105 237 -105 263.5 -97.5 c 128,-1,18
 290 -90 290 -90 314 -86 c 2,19,-1
 372 -76 l 2,20,21
 386 -74 386 -74 398.5 -69.5 c 128,-1,22
 411 -65 411 -65 411 -55 c 256,23,24
 411 -45 411 -45 396.5 -41.5 c 128,-1,25
 382 -38 382 -38 363 -38 c 0,26,27
 338 -38 338 -38 311.5 -43 c 128,-1,28
 285 -48 285 -48 272 -52 c 1,29,-1
 262 -16 l 1,30,31
 286 -9 286 -9 313 -4.5 c 128,-1,32
 340 0 340 0 368 0 c 0,33,34
 409 0 409 0 440.5 -12 c 128,-1,35
 472 -24 472 -24 472 -54 c 0,36,37
 472 -76 472 -76 455.5 -88 c 128,-1,38
 439 -100 439 -100 417.5 -105.5 c 128,-1,39
 396 -111 396 -111 381 -114 c 2,40,-1
 328 -123 l 2,41,42
 315 -125 315 -125 299.5 -129 c 128,-1,43
 284 -133 284 -133 272.5 -140.5 c 128,-1,44
 261 -148 261 -148 261 -162 c 0,45,46
 261 -184 261 -184 297 -194 c 128,-1,47
 333 -204 333 -204 382 -204 c 0,48,49
 421 -204 421 -204 448 -197.5 c 128,-1,50
 475 -191 475 -191 475 -177 c 0,51,52
 475 -167 475 -167 465.5 -162 c 128,-1,53
 456 -157 456 -157 442 -157 c 0,54,55
 427 -157 427 -157 418 -163.5 c 128,-1,56
 409 -170 409 -170 409 -182 c 0,57,58
 409 -190 409 -190 413 -199 c 128,-1,59
 417 -208 417 -208 425 -218 c 1,60,-1
 383 -224 l 1,61,-1
 383 -224 l 1,0,1
EndSplineSet
Substitution2: "'rclt' Required Contextual Alternates lookup 150 subtable" uni0B62.BRACKET.varAlt01
EndChar

StartChar: uni0B63
Encoding: 2915 2915 68
Width: 0
GlyphClass: 4
Flags: W
AnchorPoint: "Anchor-14" 365 -2 mark 0
AnchorPoint: "Anchor-9" 365 -2 mark 0
AnchorPoint: "Anchor-6" 365 -2 mark 0
AnchorPoint: "Anchor-3" 365 -2 mark 0
LayerCount: 2
Fore
SplineSet
234 -162 m 1,0,1
 234 -135 234 -135 252.5 -120 c 128,-1,2
 271 -105 271 -105 297.5 -97.5 c 128,-1,3
 324 -90 324 -90 348 -86 c 2,4,-1
 406 -76 l 2,5,6
 420 -74 420 -74 432.5 -69.5 c 128,-1,7
 445 -65 445 -65 445 -55 c 256,8,9
 445 -45 445 -45 431 -41.5 c 128,-1,10
 417 -38 417 -38 398 -38 c 0,11,12
 373 -38 373 -38 346 -43 c 128,-1,13
 319 -48 319 -48 306 -52 c 1,14,-1
 296 -16 l 1,15,16
 320 -9 320 -9 347 -4.5 c 128,-1,17
 374 0 374 0 402 0 c 0,18,19
 443 0 443 0 474.5 -12 c 128,-1,20
 506 -24 506 -24 506 -54 c 0,21,22
 506 -76 506 -76 489.5 -88 c 128,-1,23
 473 -100 473 -100 451.5 -105.5 c 128,-1,24
 430 -111 430 -111 415 -114 c 2,25,-1
 362 -123 l 2,26,27
 349 -125 349 -125 333.5 -129 c 128,-1,28
 318 -133 318 -133 306.5 -140.5 c 128,-1,29
 295 -148 295 -148 295 -162 c 0,30,31
 295 -184 295 -184 331 -194 c 128,-1,32
 367 -204 367 -204 416 -204 c 0,33,34
 455 -204 455 -204 482 -197.5 c 128,-1,35
 509 -191 509 -191 509 -177 c 0,36,37
 509 -167 509 -167 499.5 -162 c 128,-1,38
 490 -157 490 -157 476 -157 c 0,39,40
 461 -157 461 -157 452 -163.5 c 128,-1,41
 443 -170 443 -170 443 -182 c 0,42,43
 443 -195 443 -195 459 -217 c 128,-1,44
 475 -239 475 -239 516 -265 c 1,45,-1
 490 -292 l 1,46,47
 441 -260 441 -260 421 -229 c 128,-1,48
 401 -198 401 -198 401 -177 c 0,49,50
 401 -153 401 -153 421 -138.5 c 128,-1,51
 441 -124 441 -124 475 -124 c 0,52,53
 506 -124 506 -124 530.5 -137 c 128,-1,54
 555 -150 555 -150 555 -178 c 0,55,56
 555 -209 555 -209 518.5 -225.5 c 128,-1,57
 482 -242 482 -242 408 -242 c 0,58,59
 354 -242 354 -242 315 -233 c 128,-1,60
 276 -224 276 -224 255 -206 c 128,-1,61
 234 -188 234 -188 234 -162 c 1,62,-1
 234 -162 l 1,0,1
EndSplineSet
Substitution2: "'rclt' Required Contextual Alternates lookup 150 subtable" uni0B63.BRACKET.varAlt01
EndChar

StartChar: uni0B47
Encoding: 2887 2887 69
Width: 534
Flags: W
LayerCount: 2
Fore
SplineSet
91 352 m 1,0,1
 134 363 134 363 174.5 369 c 128,-1,2
 215 375 215 375 248 375 c 0,3,4
 319 375 319 375 371.5 351 c 128,-1,5
 424 327 424 327 453 282.5 c 128,-1,6
 482 238 482 238 482 177 c 0,7,8
 482 122 482 122 459 80.5 c 128,-1,9
 436 39 436 39 392.5 15.5 c 128,-1,10
 349 -8 349 -8 287 -8 c 0,11,12
 170 -8 170 -8 103 75.5 c 128,-1,13
 36 159 36 159 36 310 c 0,14,15
 36 399 36 399 59.5 465.5 c 128,-1,16
 83 532 83 532 125.5 576.5 c 128,-1,17
 168 621 168 621 225.5 643.5 c 128,-1,18
 283 666 283 666 351 666 c 0,19,20
 392 666 392 666 432.5 657 c 128,-1,21
 473 648 473 648 508 631 c 1,22,-1
 478 564 l 1,23,24
 450 578 450 578 417.5 585.5 c 128,-1,25
 385 593 385 593 351 593 c 0,26,27
 278 593 278 593 225 557.5 c 128,-1,28
 172 522 172 522 144 457.5 c 128,-1,29
 116 393 116 393 116 306 c 0,30,31
 116 234 116 234 134.5 180 c 128,-1,32
 153 126 153 126 190.5 96 c 128,-1,33
 228 66 228 66 283 66 c 0,34,35
 337 66 337 66 369.5 95.5 c 128,-1,36
 402 125 402 125 402 176 c 0,37,38
 402 235 402 235 358.5 270 c 128,-1,39
 315 305 315 305 240 305 c 0,40,41
 209 305 209 305 170.5 299 c 128,-1,42
 132 293 132 293 91 282 c 1,43,-1
 91 352 l 1,44,-1
 91 352 l 1,0,1
EndSplineSet
EndChar

StartChar: uni0B56
Encoding: 2902 2902 73
Width: 0
GlyphClass: 4
Flags: W
AnchorPoint: "Anchor-13" 528 658 mark 0
AnchorPoint: "Anchor-1" 528 658 mark 0
LayerCount: 2
Fore
SplineSet
504 708 m 1,0,1
 509 721 509 721 511.5 733 c 128,-1,2
 514 745 514 745 514 756 c 0,3,4
 514 786 514 786 495.5 806 c 128,-1,5
 477 826 477 826 438 826 c 0,6,7
 403 826 403 826 358.5 811.5 c 128,-1,8
 314 797 314 797 265.5 782 c 128,-1,9
 217 767 217 767 168 767 c 0,10,11
 141 767 141 767 113.5 774.5 c 128,-1,12
 86 782 86 782 62.5 801 c 128,-1,13
 39 820 39 820 23 853 c 1,14,-1
 89 894 l 1,15,16
 106 865 106 865 129 853 c 128,-1,17
 152 841 152 841 179 841 c 0,18,19
 205 841 205 841 238.5 850 c 128,-1,20
 272 859 272 859 308.5 870 c 128,-1,21
 345 881 345 881 382.5 890 c 128,-1,22
 420 899 420 899 455 899 c 0,23,24
 501 899 501 899 531.5 882 c 128,-1,25
 562 865 562 865 577.5 836 c 128,-1,26
 593 807 593 807 593 772 c 0,27,28
 593 733 593 733 575 692 c 1,29,-1
 504 708 l 1,30,-1
 504 708 l 1,0,1
EndSplineSet
Substitution2: "Single Substitution lookup 27 subtable" uni0B56.stem
Substitution2: "Single Substitution lookup 26 subtable" uni0B56.umbrella
AlternateSubs2: "'aalt' Access All Alternates lookup 1 subtable" uni0B56.umbrella uni0B56.stem
EndChar

StartChar: uni0B56.stem
Encoding: 65538 -1 74
Width: 0
GlyphClass: 4
Flags: W
AnchorPoint: "Anchor-13" 483 658 mark 0
AnchorPoint: "Anchor-1" 483 658 mark 0
LayerCount: 2
Fore
SplineSet
444 658 m 1,0,1
 481 679 481 679 500.5 708.5 c 128,-1,2
 520 738 520 738 520 764 c 256,3,4
 520 790 520 790 501.5 808 c 128,-1,5
 483 826 483 826 445 826 c 0,6,7
 408 826 408 826 363.5 811.5 c 128,-1,8
 319 797 319 797 271 782 c 128,-1,9
 223 767 223 767 174 767 c 0,10,11
 147 767 147 767 119.5 774.5 c 128,-1,12
 92 782 92 782 68.5 801 c 128,-1,13
 45 820 45 820 29 853 c 1,14,-1
 95 894 l 1,15,16
 112 865 112 865 135 853 c 128,-1,17
 158 841 158 841 185 841 c 0,18,19
 211 841 211 841 244 850 c 128,-1,20
 277 859 277 859 314 870 c 128,-1,21
 351 881 351 881 388.5 890 c 128,-1,22
 426 899 426 899 462 899 c 0,23,24
 508 899 508 899 538.5 883 c 128,-1,25
 569 867 569 867 584 841 c 128,-1,26
 599 815 599 815 599 784 c 0,27,28
 599 746 599 746 576.5 706.5 c 128,-1,29
 554 667 554 667 509 638 c 1,30,-1
 444 658 l 1,31,-1
 444 658 l 1,0,1
EndSplineSet
EndChar

StartChar: uni0B56.umbrella
Encoding: 65539 -1 75
Width: 0
GlyphClass: 4
Flags: W
AnchorPoint: "Anchor-13" 523 658 mark 0
AnchorPoint: "Anchor-1" 523 658 mark 0
LayerCount: 2
Fore
SplineSet
426 616 m 1,0,1
 454 639 454 639 473.5 662.5 c 128,-1,2
 493 686 493 686 503.5 710 c 128,-1,3
 514 734 514 734 514 756 c 0,4,5
 514 786 514 786 495.5 806 c 128,-1,6
 477 826 477 826 438 826 c 0,7,8
 403 826 403 826 358.5 811.5 c 128,-1,9
 314 797 314 797 265.5 782 c 128,-1,10
 217 767 217 767 168 767 c 0,11,12
 141 767 141 767 113.5 774.5 c 128,-1,13
 86 782 86 782 62.5 801 c 128,-1,14
 39 820 39 820 23 853 c 1,15,-1
 89 894 l 1,16,17
 106 865 106 865 129 853 c 128,-1,18
 152 841 152 841 179 841 c 0,19,20
 205 841 205 841 238.5 850 c 128,-1,21
 272 859 272 859 308.5 870 c 128,-1,22
 345 881 345 881 382.5 890 c 128,-1,23
 420 899 420 899 455 899 c 0,24,25
 501 899 501 899 531.5 882 c 128,-1,26
 562 865 562 865 577.5 836 c 128,-1,27
 593 807 593 807 593 772 c 0,28,29
 593 741 593 741 581.5 708.5 c 128,-1,30
 570 676 570 676 546 645 c 128,-1,31
 522 614 522 614 486 586 c 1,32,-1
 426 616 l 1,33,-1
 426 616 l 1,0,1
EndSplineSet
EndChar

StartChar: uni0B57
Encoding: 2903 2903 76
Width: 201
Flags: W
LayerCount: 2
Fore
SplineSet
139 694 m 1,0,-1
 139 0 l 1,1,-1
 61 0 l 1,2,-1
 61 694 l 1,3,-1
 139 694 l 1,0,-1
61 694 m 1,4,5
 93 706 93 706 110 726 c 128,-1,6
 127 746 127 746 127 769 c 0,7,8
 127 796 127 796 106.5 811 c 128,-1,9
 86 826 86 826 51 826 c 0,10,11
 17 826 17 826 -27 811.5 c 128,-1,12
 -71 797 -71 797 -120 782 c 128,-1,13
 -169 767 -169 767 -218 767 c 0,14,15
 -244 767 -244 767 -271.5 774.5 c 128,-1,16
 -299 782 -299 782 -322.5 801 c 128,-1,17
 -346 820 -346 820 -362 853 c 1,18,-1
 -296 894 l 1,19,20
 -279 865 -279 865 -256 853 c 128,-1,21
 -233 841 -233 841 -207 841 c 256,22,23
 -181 841 -181 841 -147.5 850 c 128,-1,24
 -114 859 -114 859 -77 870 c 128,-1,25
 -40 881 -40 881 -2 890 c 128,-1,26
 36 899 36 899 71 899 c 0,27,28
 113 899 113 899 143.5 884.5 c 128,-1,29
 174 870 174 870 190.5 844.5 c 128,-1,30
 207 819 207 819 207 785 c 0,31,32
 207 761 207 761 197 738.5 c 128,-1,33
 187 716 187 716 166.5 698 c 128,-1,34
 146 680 146 680 116 667 c 1,35,-1
 61 694 l 1,36,-1
 61 694 l 1,4,5
EndSplineSet
EndChar

StartChar: uni0B4D
Encoding: 2893 2893 77
Width: 0
GlyphClass: 4
Flags: W
AnchorPoint: "Anchor-14" 24 0 mark 0
AnchorPoint: "Anchor-9" 24 0 mark 0
AnchorPoint: "Anchor-6" 24 0 mark 0
AnchorPoint: "Anchor-3" 24 0 mark 0
LayerCount: 2
Fore
SplineSet
72 -33 m 1,0,-1
 179 -177 l 1,1,-1
 132 -212 l 1,2,-1
 20 -70 l 1,3,-1
 72 -33 l 1,0,-1
EndSplineSet
EndChar

StartChar: uni0B5F
Encoding: 2911 2911 78
Width: 848
GlyphClass: 2
Flags: W
AnchorPoint: "Anchor-5" 422 -215 basechar 0
AnchorPoint: "Anchor-4" 684 0 basechar 0
AnchorPoint: "Anchor-3" 383 0 basechar 0
AnchorPoint: "Anchor-1" 684 658 basechar 0
AnchorPoint: "Anchor-0" 388 658 basechar 0
LayerCount: 2
Fore
SplineSet
606 -10 m 1,0,-1
 622 39 l 1,1,-1
 666 32 l 1,2,-1
 820 -10 l 1,3,-1
 803 -65 l 1,4,-1
 606 -10 l 1,0,-1
400 -8 m 1,5,6
 344 -8 344 -8 303 16.5 c 128,-1,7
 262 41 262 41 240 82.5 c 128,-1,8
 218 124 218 124 218 174 c 0,9,10
 218 217 218 217 235 257.5 c 128,-1,11
 252 298 252 298 289.5 331.5 c 128,-1,12
 327 365 327 365 388 386 c 1,13,-1
 409 336 l 1,14,15
 366 321 366 321 320 297 c 128,-1,16
 274 273 274 273 231.5 244.5 c 128,-1,17
 189 216 189 216 155 186 c 128,-1,18
 121 156 121 156 101 128 c 128,-1,19
 81 100 81 100 81 78 c 1,20,-1
 67 144 l 1,21,22
 108 144 108 144 125.5 125 c 128,-1,23
 143 106 143 106 143 83 c 0,24,25
 143 58 143 58 126 43.5 c 128,-1,26
 109 29 109 29 86 29 c 0,27,28
 61 29 61 29 42.5 45.5 c 128,-1,29
 24 62 24 62 24 90 c 0,30,31
 24 119 24 119 48 157.5 c 128,-1,32
 72 196 72 196 119 239 c 128,-1,33
 166 282 166 282 234.5 323 c 128,-1,34
 303 364 303 364 392 397 c 1,35,-1
 420 333 l 1,36,37
 379 319 379 319 351 293.5 c 128,-1,38
 323 268 323 268 308.5 237.5 c 128,-1,39
 294 207 294 207 294 176 c 256,40,41
 294 145 294 145 308 120 c 128,-1,42
 322 95 322 95 347 80 c 128,-1,43
 372 65 372 65 405 65 c 0,44,45
 443 65 443 65 471 82.5 c 128,-1,46
 499 100 499 100 522 126 c 128,-1,47
 545 152 545 152 568.5 178.5 c 128,-1,48
 592 205 592 205 621 222.5 c 128,-1,49
 650 240 650 240 691 240 c 0,50,51
 730 240 730 240 758 224.5 c 128,-1,52
 786 209 786 209 801 184 c 128,-1,53
 816 159 816 159 816 128 c 256,54,55
 816 97 816 97 798.5 67.5 c 128,-1,56
 781 38 781 38 745.5 19.5 c 128,-1,57
 710 1 710 1 655 1 c 1,58,-1
 622 39 l 1,59,60
 678 39 678 39 707.5 61.5 c 128,-1,61
 737 84 737 84 737 115 c 0,62,63
 737 137 737 137 721 152 c 128,-1,64
 705 167 705 167 678 167 c 0,65,66
 649 167 649 167 627.5 149.5 c 128,-1,67
 606 132 606 132 586 106 c 128,-1,68
 566 80 566 80 541.5 53.5 c 128,-1,69
 517 27 517 27 483.5 9.5 c 128,-1,70
 450 -8 450 -8 400 -8 c 1,71,-1
 400 -8 l 1,5,6
197 234 m 1,72,73
 137 267 137 267 106.5 318.5 c 128,-1,74
 76 370 76 370 76 430 c 0,75,76
 76 487 76 487 100 531 c 128,-1,77
 124 575 124 575 165.5 605 c 128,-1,78
 207 635 207 635 259.5 650.5 c 128,-1,79
 312 666 312 666 369 666 c 0,80,81
 433 666 433 666 495 646.5 c 128,-1,82
 557 627 557 627 607 587.5 c 128,-1,83
 657 548 657 548 686.5 488 c 128,-1,84
 716 428 716 428 716 347 c 1,85,-1
 655 345 l 1,86,87
 655 408 655 408 630.5 455 c 128,-1,88
 606 502 606 502 566 532.5 c 128,-1,89
 526 563 526 563 477 578 c 128,-1,90
 428 593 428 593 379 593 c 0,91,92
 318 593 318 593 267 571 c 128,-1,93
 216 549 216 549 185.5 509.5 c 128,-1,94
 155 470 155 470 155 416 c 0,95,96
 155 372 155 372 177.5 334.5 c 128,-1,97
 200 297 200 297 240 273 c 1,98,-1
 197 234 l 1,99,-1
 197 234 l 1,72,73
645 471 m 1,100,-1
 648 511 l 1,101,-1
 645 658 l 1,102,-1
 723 658 l 1,103,-1
 723 181 l 1,104,-1
 645 181 l 1,105,-1
 645 471 l 1,100,-1
EndSplineSet
EndChar

StartChar: uni0B300B4D
Encoding: 65540 -1 81
Width: 0
GlyphClass: 4
Flags: W
AnchorPoint: "Anchor-13" 358 658 mark 0
AnchorPoint: "Anchor-1" 358 658 mark 0
LayerCount: 2
Fore
SplineSet
208 783 m 1,0,-1
 198 808 l 1,1,-1
 391 971 l 1,2,-1
 428 927 l 1,3,-1
 248 777 l 1,4,-1
 246 825 l 1,5,-1
 393 708 l 1,6,-1
 358 665 l 1,7,-1
 208 783 l 1,0,-1
EndSplineSet
Ligature2: "'rphf' Reph Form in Oriya2 lookup 4 subtable" uni0B30 uni0B4D
EndChar

StartChar: uni0B70
Encoding: 2928 2928 82
Width: 632
Flags: W
LayerCount: 2
Fore
SplineSet
600 678 m 1,0,1
 570 531 570 531 534 430.5 c 128,-1,2
 498 330 498 330 456.5 269.5 c 128,-1,3
 415 209 415 209 368 182 c 128,-1,4
 321 155 321 155 270 155 c 0,5,6
 209 155 209 155 168 184.5 c 128,-1,7
 127 214 127 214 102 260 c 128,-1,8
 77 306 77 306 63 359 c 128,-1,9
 49 412 49 412 43 458 c 1,10,-1
 116 469 l 1,11,12
 122 423 122 423 133 380 c 128,-1,13
 144 337 144 337 161 302.5 c 128,-1,14
 178 268 178 268 204.5 248 c 128,-1,15
 231 228 231 228 269 228 c 0,16,17
 305 228 305 228 339.5 251 c 128,-1,18
 374 274 374 274 406.5 327 c 128,-1,19
 439 380 439 380 469 470 c 128,-1,20
 499 560 499 560 527 693 c 1,21,-1
 600 678 l 1,0,1
289 470 m 1,22,23
 270 470 270 470 256 483.5 c 128,-1,24
 242 497 242 497 242 518 c 0,25,26
 242 538 242 538 256 552 c 128,-1,27
 270 566 270 566 289 566 c 0,28,29
 309 566 309 566 323 552 c 128,-1,30
 337 538 337 538 337 518 c 0,31,32
 337 496 337 496 323.5 483 c 128,-1,33
 310 470 310 470 289 470 c 1,34,-1
 289 470 l 1,22,23
EndSplineSet
EndChar

StartChar: uni0964
Encoding: 2404 2404 83
Width: 246
Flags: W
LayerCount: 2
Fore
SplineSet
162 658 m 1,0,-1
 162 0 l 1,1,-1
 84 0 l 1,2,-1
 84 658 l 1,3,-1
 162 658 l 1,0,-1
EndSplineSet
EndChar

StartChar: uni0965
Encoding: 2405 2405 84
Width: 459
Flags: W
LayerCount: 2
Fore
SplineSet
159 658 m 1,0,-1
 159 0 l 1,1,-1
 84 0 l 1,2,-1
 84 658 l 1,3,-1
 159 658 l 1,0,-1
375 658 m 1,4,-1
 375 0 l 1,5,-1
 301 0 l 1,6,-1
 301 658 l 1,7,-1
 375 658 l 1,4,-1
EndSplineSet
EndChar

StartChar: uni0B66
Encoding: 2918 2918 85
Width: 563
Flags: W
LayerCount: 2
Fore
SplineSet
281 66 m 1,0,1
 203 66 203 66 144.5 96.5 c 128,-1,2
 86 127 86 127 53.5 183.5 c 128,-1,3
 21 240 21 240 21 317 c 256,4,5
 21 394 21 394 53.5 450 c 128,-1,6
 86 506 86 506 144.5 536.5 c 128,-1,7
 203 567 203 567 281 567 c 0,8,9
 360 567 360 567 418 536.5 c 128,-1,10
 476 506 476 506 508.5 450 c 128,-1,11
 541 394 541 394 541 317 c 256,12,13
 541 240 541 240 508.5 183.5 c 128,-1,14
 476 127 476 127 418 96.5 c 128,-1,15
 360 66 360 66 281 66 c 1,16,-1
 281 66 l 1,0,1
281 494 m 1,17,18
 227 494 227 494 186.5 472 c 128,-1,19
 146 450 146 450 123.5 410.5 c 128,-1,20
 101 371 101 371 101 317 c 256,21,22
 101 263 101 263 123.5 223 c 128,-1,23
 146 183 146 183 186.5 161 c 128,-1,24
 227 139 227 139 281 139 c 256,25,26
 335 139 335 139 376 161 c 128,-1,27
 417 183 417 183 439.5 223 c 128,-1,28
 462 263 462 263 462 317 c 256,29,30
 462 371 462 371 439.5 410.5 c 128,-1,31
 417 450 417 450 376 472 c 128,-1,32
 335 494 335 494 281 494 c 1,33,-1
 281 494 l 1,17,18
EndSplineSet
EndChar

StartChar: uni0B67
Encoding: 2919 2919 86
Width: 563
Flags: W
LayerCount: 2
Fore
SplineSet
451 -8 m 1,0,1
 332 20 332 20 246 75.5 c 128,-1,2
 160 131 160 131 114 209.5 c 128,-1,3
 68 288 68 288 68 385 c 0,4,5
 68 451 68 451 88.5 503.5 c 128,-1,6
 109 556 109 556 144.5 592 c 128,-1,7
 180 628 180 628 225 647 c 128,-1,8
 270 666 270 666 319 666 c 0,9,10
 371 666 371 666 414.5 644.5 c 128,-1,11
 458 623 458 623 484.5 583 c 128,-1,12
 511 543 511 543 511 488 c 256,13,14
 511 433 511 433 484 389.5 c 128,-1,15
 457 346 457 346 410 321 c 128,-1,16
 363 296 363 296 301 296 c 0,17,18
 256 296 256 296 210.5 312.5 c 128,-1,19
 165 329 165 329 129 364 c 1,20,-1
 130 440 l 1,21,22
 168 401 168 401 209.5 383 c 128,-1,23
 251 365 251 365 293 365 c 0,24,25
 334 365 334 365 365 380 c 128,-1,26
 396 395 396 395 413.5 422 c 128,-1,27
 431 449 431 449 431 485 c 0,28,29
 431 518 431 518 415 542.5 c 128,-1,30
 399 567 399 567 372.5 580 c 128,-1,31
 346 593 346 593 312 593 c 0,32,33
 265 593 265 593 227.5 567 c 128,-1,34
 190 541 190 541 168.5 495.5 c 128,-1,35
 147 450 147 450 147 390 c 0,36,37
 147 316 147 316 182 252 c 128,-1,38
 217 188 217 188 289.5 140 c 128,-1,39
 362 92 362 92 473 66 c 1,40,-1
 451 -8 l 1,41,-1
 451 -8 l 1,0,1
EndSplineSet
Substitution2: "'rclt' Required Contextual Alternates lookup 150 subtable" uni0B67.BRACKET.varAlt01
EndChar

StartChar: uni0B68
Encoding: 2920 2920 87
Width: 569
Flags: W
LayerCount: 2
Fore
SplineSet
122 -8 m 1,0,-1
 122 -8 l 1,1,-1
 100 66 l 1,2,3
 212 92 212 92 284 140 c 128,-1,4
 356 188 356 188 391 252 c 128,-1,5
 426 316 426 316 426 390 c 0,6,7
 426 450 426 450 404.5 495.5 c 128,-1,8
 383 541 383 541 345.5 567 c 128,-1,9
 308 593 308 593 261 593 c 0,10,11
 228 593 228 593 201 580 c 128,-1,12
 174 567 174 567 158 542.5 c 128,-1,13
 142 518 142 518 142 485 c 0,14,15
 142 449 142 449 159.5 422 c 128,-1,16
 177 395 177 395 208 380 c 128,-1,17
 239 365 239 365 280 365 c 0,18,19
 322 365 322 365 364 383 c 128,-1,20
 406 401 406 401 443 440 c 1,21,-1
 444 364 l 1,22,23
 408 329 408 329 362.5 312.5 c 128,-1,24
 317 296 317 296 272 296 c 0,25,26
 211 296 211 296 163.5 321 c 128,-1,27
 116 346 116 346 89 389.5 c 128,-1,28
 62 433 62 433 62 488 c 256,29,30
 62 543 62 543 88.5 583 c 128,-1,31
 115 623 115 623 158.5 644.5 c 128,-1,32
 202 666 202 666 254 666 c 0,33,34
 303 666 303 666 348 647 c 128,-1,35
 393 628 393 628 428.5 592 c 128,-1,36
 464 556 464 556 484.5 503.5 c 128,-1,37
 505 451 505 451 505 385 c 0,38,39
 505 288 505 288 459 209.5 c 128,-1,40
 413 131 413 131 327.5 75.5 c 128,-1,41
 242 20 242 20 122 -8 c 1,0,-1
EndSplineSet
Substitution2: "'rclt' Required Contextual Alternates lookup 150 subtable" uni0B68.BRACKET.varAlt01
EndChar

StartChar: uni0B69
Encoding: 2921 2921 88
Width: 563
Flags: W
LayerCount: 2
Fore
SplineSet
268 514 m 1,0,1
 268 562 268 562 284 596.5 c 128,-1,2
 300 631 300 631 330 649 c 128,-1,3
 360 667 360 667 401 667 c 0,4,5
 434 667 434 667 457.5 657 c 128,-1,6
 481 647 481 647 496 629.5 c 128,-1,7
 511 612 511 612 520 589.5 c 128,-1,8
 529 567 529 567 532.5 541.5 c 128,-1,9
 536 516 536 516 536 490 c 2,10,-1
 536 0 l 1,11,-1
 458 0 l 1,12,-1
 458 498 l 2,13,14
 458 548 458 548 442 573 c 128,-1,15
 426 598 426 598 395 598 c 0,16,17
 362 598 362 598 345.5 572.5 c 128,-1,18
 329 547 329 547 329 500 c 2,19,-1
 329 0 l 1,20,-1
 255 0 l 1,21,-1
 255 303 l 1,22,-1
 294 301 l 1,23,24
 287 261 287 261 256 239 c 128,-1,25
 225 217 225 217 184 217 c 0,26,27
 141 217 141 217 103 240.5 c 128,-1,28
 65 264 65 264 42 313.5 c 128,-1,29
 19 363 19 363 19 442 c 0,30,31
 19 509 19 509 39 559.5 c 128,-1,32
 59 610 59 610 96 638.5 c 128,-1,33
 133 667 133 667 185 667 c 0,34,35
 247 667 247 667 283 626.5 c 128,-1,36
 319 586 319 586 319 514 c 1,37,-1
 268 514 l 1,0,1
187 286 m 1,38,39
 216 286 216 286 236 304 c 128,-1,40
 256 322 256 322 256 353 c 0,41,42
 256 383 256 383 237 401 c 128,-1,43
 218 419 218 419 185 419 c 0,44,45
 159 419 159 419 129 406.5 c 128,-1,46
 99 394 99 394 72 365 c 1,47,-1
 67 420 l 1,48,49
 93 446 93 446 126 460 c 128,-1,50
 159 474 159 474 189 474 c 0,51,52
 226 474 226 474 254 454 c 128,-1,53
 282 434 282 434 287 400 c 1,54,-1
 256 394 l 1,55,-1
 256 496 l 2,56,57
 256 528 256 528 248 550.5 c 128,-1,58
 240 573 240 573 224.5 585 c 128,-1,59
 209 597 209 597 185 597 c 0,60,61
 155 597 155 597 134 577 c 128,-1,62
 113 557 113 557 102 521 c 128,-1,63
 91 485 91 485 91 436 c 0,64,65
 91 380 91 380 105 347 c 128,-1,66
 119 314 119 314 141 300 c 128,-1,67
 163 286 163 286 187 286 c 1,68,-1
 187 286 l 1,38,39
EndSplineSet
Substitution2: "'rclt' Required Contextual Alternates lookup 150 subtable" uni0B69.BRACKET.varAlt01
EndChar

StartChar: uni0B6A
Encoding: 2922 2922 89
Width: 563
Flags: W
LayerCount: 2
Fore
SplineSet
89 666 m 1,0,1
 94 638 94 638 103 612.5 c 128,-1,2
 112 587 112 587 125 567 c 0,3,4
 151 524 151 524 187.5 491 c 128,-1,5
 224 458 224 458 265 430 c 128,-1,6
 306 402 306 402 345.5 375.5 c 128,-1,7
 385 349 385 349 417 319.5 c 128,-1,8
 449 290 449 290 468.5 253.5 c 128,-1,9
 488 217 488 217 488 169 c 0,10,11
 488 114 488 114 461.5 74.5 c 128,-1,12
 435 35 435 35 388 13.5 c 128,-1,13
 341 -8 341 -8 280 -8 c 0,14,15
 226 -8 226 -8 178.5 10.5 c 128,-1,16
 131 29 131 29 101.5 68 c 128,-1,17
 72 107 72 107 72 167 c 0,18,19
 72 217 72 217 91.5 253.5 c 128,-1,20
 111 290 111 290 144 318.5 c 128,-1,21
 177 347 177 347 216.5 372.5 c 128,-1,22
 256 398 256 398 297.5 424.5 c 128,-1,23
 339 451 339 451 376 484.5 c 128,-1,24
 413 518 413 518 439 562 c 0,25,26
 453 585 453 585 462.5 611 c 128,-1,27
 472 637 472 637 476 666 c 1,28,-1
 550 656 l 1,29,30
 541 594 541 594 514.5 547.5 c 128,-1,31
 488 501 488 501 452 465 c 128,-1,32
 416 429 416 429 375 400 c 128,-1,33
 334 371 334 371 294.5 346 c 128,-1,34
 255 321 255 321 223 296 c 128,-1,35
 191 271 191 271 171.5 242 c 128,-1,36
 152 213 152 213 152 177 c 0,37,38
 152 144 152 144 168.5 118.5 c 128,-1,39
 185 93 185 93 214 79 c 128,-1,40
 243 65 243 65 279 65 c 0,41,42
 314 65 314 65 343 78 c 128,-1,43
 372 91 372 91 390 116 c 128,-1,44
 408 141 408 141 408 176 c 0,45,46
 408 218 408 218 382.5 250 c 128,-1,47
 357 282 357 282 316.5 311.5 c 128,-1,48
 276 341 276 341 229 372.5 c 128,-1,49
 182 404 182 404 137 442.5 c 128,-1,50
 92 481 92 481 58.5 533 c 128,-1,51
 25 585 25 585 13 655 c 1,52,-1
 89 666 l 1,0,1
EndSplineSet
EndChar

StartChar: uni0B6B
Encoding: 2923 2923 90
Width: 563
Flags: W
LayerCount: 2
Fore
SplineSet
522 202 m 1,0,1
 481 239 481 239 437 258.5 c 128,-1,2
 393 278 393 278 347.5 286.5 c 128,-1,3
 302 295 302 295 256.5 300.5 c 128,-1,4
 211 306 211 306 166.5 314 c 128,-1,5
 122 322 122 322 80 340.5 c 128,-1,6
 38 359 38 359 0 395 c 1,7,-1
 43 443 l 1,8,9
 83 407 83 407 126 388.5 c 128,-1,10
 169 370 169 370 214 361.5 c 128,-1,11
 259 353 259 353 304.5 348 c 128,-1,12
 350 343 350 343 394.5 334.5 c 128,-1,13
 439 326 439 326 481.5 306.5 c 128,-1,14
 524 287 524 287 563 249 c 1,15,-1
 522 202 l 1,16,-1
 522 202 l 1,0,1
249 -8 m 1,17,18
 199 -8 199 -8 158 10 c 128,-1,19
 117 28 117 28 92.5 63.5 c 128,-1,20
 68 99 68 99 68 149 c 0,21,22
 68 208 68 208 113.5 253 c 128,-1,23
 159 298 159 298 252 336 c 1,24,-1
 309 324 l 1,25,26
 374 275 374 275 402.5 234 c 128,-1,27
 431 193 431 193 431 147 c 0,28,29
 431 98 431 98 406 63.5 c 128,-1,30
 381 29 381 29 339.5 10.5 c 128,-1,31
 298 -8 298 -8 249 -8 c 1,32,-1
 249 -8 l 1,17,18
138 512 m 1,33,34
 138 561 138 561 162.5 595.5 c 128,-1,35
 187 630 187 630 228.5 648 c 128,-1,36
 270 666 270 666 319 666 c 0,37,38
 367 666 367 666 407 648 c 128,-1,39
 447 630 447 630 471.5 595.5 c 128,-1,40
 496 561 496 561 496 510 c 0,41,42
 496 454 496 454 459.5 408.5 c 128,-1,43
 423 363 423 363 346 323 c 1,44,-1
 250 338 l 1,45,46
 193 382 193 382 165.5 424.5 c 128,-1,47
 138 467 138 467 138 512 c 1,48,-1
 138 512 l 1,33,34
212 496 m 1,49,50
 212 462 212 462 234.5 426 c 128,-1,51
 257 390 257 390 303 354 c 1,52,53
 364 386 364 386 392 420.5 c 128,-1,54
 420 455 420 455 420 496 c 0,55,56
 420 529 420 529 405 550.5 c 128,-1,57
 390 572 390 572 366.5 583 c 128,-1,58
 343 594 343 594 316 594 c 0,59,60
 290 594 290 594 266 583 c 128,-1,61
 242 572 242 572 227 550 c 128,-1,62
 212 528 212 528 212 496 c 1,63,-1
 212 496 l 1,49,50
144 162 m 1,64,65
 144 130 144 130 159.5 108 c 128,-1,66
 175 86 175 86 200 75.5 c 128,-1,67
 225 65 225 65 251 65 c 0,68,69
 278 65 278 65 302.5 75.5 c 128,-1,70
 327 86 327 86 342 107 c 128,-1,71
 357 128 357 128 357 160 c 0,72,73
 357 189 357 189 336 222.5 c 128,-1,74
 315 256 315 256 274 289 c 1,75,76
 212 264 212 264 178 230.5 c 128,-1,77
 144 197 144 197 144 162 c 1,78,-1
 144 162 l 1,64,65
EndSplineSet
Substitution2: "'rclt' Required Contextual Alternates lookup 150 subtable" uni0B6B.BRACKET.varAlt01
EndChar

StartChar: uni0B6C
Encoding: 2924 2924 91
Width: 563
Flags: W
LayerCount: 2
Fore
SplineSet
78 380 m 1,0,1
 100 327 100 327 129 304 c 128,-1,2
 158 281 158 281 191 281 c 0,3,4
 223 281 223 281 245.5 298.5 c 128,-1,5
 268 316 268 316 268 350 c 0,6,7
 268 373 268 373 253.5 390.5 c 128,-1,8
 239 408 239 408 212 429 c 0,9,10
 171 460 171 460 149 488 c 128,-1,11
 127 516 127 516 127 554 c 0,12,13
 127 607 127 607 168 636.5 c 128,-1,14
 209 666 209 666 278 666 c 0,15,16
 354 666 354 666 413 630 c 128,-1,17
 472 594 472 594 506 529.5 c 128,-1,18
 540 465 540 465 540 378 c 0,19,20
 540 279 540 279 492 202.5 c 128,-1,21
 444 126 444 126 343 73.5 c 128,-1,22
 242 21 242 21 82 -8 c 1,23,-1
 67 69 l 1,24,25
 169 87 169 87 243 114.5 c 128,-1,26
 317 142 317 142 365.5 179 c 128,-1,27
 414 216 414 216 437 265 c 128,-1,28
 460 314 460 314 460 375 c 0,29,30
 460 439 460 439 437 490 c 128,-1,31
 414 541 414 541 374 571 c 128,-1,32
 334 601 334 601 283 601 c 0,33,34
 245 601 245 601 225.5 585 c 128,-1,35
 206 569 206 569 206 544 c 0,36,37
 206 523 206 523 220.5 507.5 c 128,-1,38
 235 492 235 492 260 471 c 0,39,40
 302 437 302 437 321.5 409 c 128,-1,41
 341 381 341 381 341 347 c 0,42,43
 341 311 341 311 323 282 c 128,-1,44
 305 253 305 253 272 236 c 128,-1,45
 239 219 239 219 193 219 c 0,46,47
 136 219 136 219 90 253 c 128,-1,48
 44 287 44 287 21 352 c 1,49,-1
 78 380 l 1,0,1
EndSplineSet
Substitution2: "'rclt' Required Contextual Alternates lookup 150 subtable" uni0B6C.BRACKET.varAlt01
EndChar

StartChar: uni0B6D
Encoding: 2925 2925 92
Width: 563
Flags: W
LayerCount: 2
Fore
SplineSet
73 410 m 1,0,1
 92 449 92 449 125 468.5 c 128,-1,2
 158 488 158 488 198 488 c 0,3,4
 242 488 242 488 272.5 471 c 128,-1,5
 303 454 303 454 319 425.5 c 128,-1,6
 335 397 335 397 335 362 c 0,7,8
 335 326 335 326 317 297 c 128,-1,9
 299 268 299 268 267.5 250.5 c 128,-1,10
 236 233 236 233 193 233 c 256,11,12
 150 233 150 233 112 255.5 c 128,-1,13
 74 278 74 278 50.5 322 c 128,-1,14
 27 366 27 366 27 428 c 0,15,16
 27 506 27 506 62.5 559 c 128,-1,17
 98 612 98 612 155 639 c 128,-1,18
 212 666 212 666 276 666 c 0,19,20
 329 666 329 666 376.5 648 c 128,-1,21
 424 630 424 630 461 595 c 128,-1,22
 498 560 498 560 519 509 c 128,-1,23
 540 458 540 458 540 391 c 0,24,25
 540 292 540 292 489.5 212.5 c 128,-1,26
 439 133 439 133 337 77 c 128,-1,27
 235 21 235 21 78 -8 c 1,28,-1
 63 70 l 1,29,30
 201 95 201 95 288.5 139 c 128,-1,31
 376 183 376 183 418 246.5 c 128,-1,32
 460 310 460 310 460 392 c 0,33,34
 460 464 460 464 432.5 510.5 c 128,-1,35
 405 557 405 557 361.5 579 c 128,-1,36
 318 601 318 601 271 601 c 0,37,38
 223 601 223 601 182.5 579.5 c 128,-1,39
 142 558 142 558 117.5 517.5 c 128,-1,40
 93 477 93 477 93 419 c 0,41,42
 93 378 93 378 106.5 350 c 128,-1,43
 120 322 120 322 142 308 c 128,-1,44
 164 294 164 294 188 294 c 0,45,46
 226 294 226 294 244.5 316 c 128,-1,47
 263 338 263 338 263 364 c 256,48,49
 263 390 263 390 244 411.5 c 128,-1,50
 225 433 225 433 187 433 c 0,51,52
 153 433 153 433 125.5 415 c 128,-1,53
 98 397 98 397 81 365 c 1,54,-1
 73 410 l 1,55,-1
 73 410 l 1,0,1
EndSplineSet
Substitution2: "'rclt' Required Contextual Alternates lookup 150 subtable" uni0B6D.BRACKET.varAlt01
EndChar

StartChar: uni0B6E
Encoding: 2926 2926 93
Width: 563
Flags: W
LayerCount: 2
Fore
SplineSet
97 658 m 1,0,-1
 528 658 l 1,1,-1
 528 585 l 1,2,-1
 149 585 l 1,3,-1
 175 611 l 1,4,-1
 175 0 l 1,5,-1
 97 0 l 1,6,-1
 97 658 l 1,0,-1
EndSplineSet
EndChar

StartChar: uni0B6F
Encoding: 2927 2927 94
Width: 563
Flags: W
LayerCount: 2
Fore
SplineSet
444 308 m 1,0,-1
 219 611 l 1,1,-1
 307 598 l 1,2,3
 213 552 213 552 165 482 c 128,-1,4
 117 412 117 412 117 327 c 0,5,6
 117 248 117 248 151 190.5 c 128,-1,7
 185 133 185 133 252 100.5 c 128,-1,8
 319 68 319 68 417 63 c 1,9,-1
 411 -8 l 1,10,11
 327 -6 327 -6 258.5 17.5 c 128,-1,12
 190 41 190 41 140 84 c 128,-1,13
 90 127 90 127 63.5 188 c 128,-1,14
 37 249 37 249 37 326 c 0,15,16
 37 397 37 397 63.5 459 c 128,-1,17
 90 521 90 521 142.5 573.5 c 128,-1,18
 195 626 195 626 272 666 c 1,19,-1
 448 411 l 1,20,21
 447 428 447 428 446 454 c 128,-1,22
 445 480 445 480 445 503 c 2,23,-1
 445 658 l 1,24,-1
 519 658 l 1,25,-1
 519 320 l 1,26,-1
 444 308 l 1,0,-1
EndSplineSet
Substitution2: "'rclt' Required Contextual Alternates lookup 150 subtable" uni0B6F.BRACKET.varAlt01
EndChar

StartChar: uni0B72
Encoding: 2930 2930 95
Width: 218
Flags: W
LayerCount: 2
Fore
SplineSet
70 558 m 1,0,-1
 148 558 l 1,1,-1
 148 0 l 1,2,-1
 70 0 l 1,3,-1
 70 558 l 1,0,-1
EndSplineSet
EndChar

StartChar: uni0B73
Encoding: 2931 2931 96
Width: 478
Flags: W
LayerCount: 2
Fore
SplineSet
408 558 m 1,0,-1
 408 0 l 1,1,-1
 330 0 l 1,2,-1
 330 558 l 1,3,-1
 408 558 l 1,0,-1
368 311 m 1,4,5
 340 278 340 278 296.5 261 c 128,-1,6
 253 244 253 244 206 244 c 0,7,8
 152 244 152 244 116 264.5 c 128,-1,9
 80 285 80 285 62 323.5 c 128,-1,10
 44 362 44 362 44 416 c 0,11,12
 44 446 44 446 49.5 482.5 c 128,-1,13
 55 519 55 519 65 562 c 1,14,-1
 138 555 l 1,15,16
 128 513 128 513 124 479.5 c 128,-1,17
 120 446 120 446 120 422 c 0,18,19
 120 367 120 367 146.5 338 c 128,-1,20
 173 309 173 309 224 309 c 0,21,22
 262 309 262 309 299 327 c 128,-1,23
 336 345 336 345 360 376 c 1,24,-1
 368 311 l 1,25,-1
 368 311 l 1,4,5
EndSplineSet
EndChar

StartChar: uni0B74
Encoding: 2932 2932 97
Width: 674
Flags: W
LayerCount: 2
Fore
SplineSet
44 415 m 1,0,1
 44 446 44 446 49.5 482 c 128,-1,2
 55 518 55 518 65 561 c 1,3,-1
 138 554 l 1,4,5
 128 512 128 512 124 481 c 128,-1,6
 120 450 120 450 120 423 c 0,7,8
 120 365 120 365 141 337 c 128,-1,9
 162 309 162 309 203 309 c 0,10,11
 225 309 225 309 244.5 318 c 128,-1,12
 264 327 264 327 276.5 350 c 128,-1,13
 289 373 289 373 289 414 c 2,14,-1
 289 558 l 1,15,-1
 365 558 l 1,16,-1
 365 422 l 2,17,18
 365 364 365 364 384.5 336.5 c 128,-1,19
 404 309 404 309 447 309 c 0,20,21
 477 309 477 309 506 329 c 128,-1,22
 535 349 535 349 553 384 c 1,23,-1
 569 320 l 1,24,25
 548 283 548 283 511.5 263.5 c 128,-1,26
 475 244 475 244 434 244 c 0,27,28
 373 244 373 244 337.5 279.5 c 128,-1,29
 302 315 302 315 297 382 c 1,30,-1
 346 388 l 1,31,32
 342 337 342 337 319 305 c 128,-1,33
 296 273 296 273 262.5 258.5 c 128,-1,34
 229 244 229 244 191 244 c 0,35,36
 143 244 143 244 110.5 263.5 c 128,-1,37
 78 283 78 283 61 321 c 128,-1,38
 44 359 44 359 44 415 c 1,39,-1
 44 415 l 1,0,1
604 558 m 1,40,-1
 604 0 l 1,41,-1
 526 0 l 1,42,-1
 526 558 l 1,43,-1
 604 558 l 1,40,-1
EndSplineSet
EndChar

StartChar: uni0B75
Encoding: 2933 2933 98
Width: 474
Flags: W
LayerCount: 2
Fore
SplineSet
15 102 m 1,0,1
 83 172 83 172 151.5 252.5 c 128,-1,2
 220 333 220 333 283 412 c 128,-1,3
 346 491 346 491 395 558 c 1,4,-1
 459 504 l 1,5,6
 371 387 371 387 277 271.5 c 128,-1,7
 183 156 183 156 76 45 c 1,8,-1
 15 102 l 1,0,1
EndSplineSet
EndChar

StartChar: uni0B76
Encoding: 2934 2934 99
Width: 549
Flags: W
LayerCount: 2
Fore
SplineSet
290 15 m 1,0,1
 302 50 302 50 310.5 82 c 128,-1,2
 319 114 319 114 319 146 c 0,3,4
 319 188 319 188 304 219.5 c 128,-1,5
 289 251 289 251 261.5 269 c 128,-1,6
 234 287 234 287 196 287 c 0,7,8
 163 287 163 287 138 272.5 c 128,-1,9
 113 258 113 258 99 233 c 128,-1,10
 85 208 85 208 85 174 c 0,11,12
 85 137 85 137 102 115.5 c 128,-1,13
 119 94 119 94 148 94 c 0,14,15
 172 94 172 94 184.5 107 c 128,-1,16
 197 120 197 120 197 141 c 0,17,18
 197 165 197 165 181 179.5 c 128,-1,19
 165 194 165 194 139 194 c 0,20,21
 125 194 125 194 108.5 189 c 128,-1,22
 92 184 92 184 74 173 c 1,23,-1
 77 217 l 1,24,25
 97 226 97 226 115.5 230.5 c 128,-1,26
 134 235 134 235 152 235 c 0,27,28
 203 235 203 235 229.5 207 c 128,-1,29
 256 179 256 179 256 140 c 0,30,31
 256 112 256 112 243.5 90 c 128,-1,32
 231 68 231 68 206.5 55.5 c 128,-1,33
 182 43 182 43 146 43 c 0,34,35
 106 43 106 43 77 59.5 c 128,-1,36
 48 76 48 76 33 106 c 128,-1,37
 18 136 18 136 18 176 c 0,38,39
 18 224 18 224 39 263 c 128,-1,40
 60 302 60 302 99 325 c 128,-1,41
 138 348 138 348 193 348 c 0,42,43
 244 348 244 348 286 327.5 c 128,-1,44
 328 307 328 307 353 266.5 c 128,-1,45
 378 226 378 226 378 166 c 0,46,47
 378 159 378 159 377.5 147.5 c 128,-1,48
 377 136 377 136 376 129 c 1,49,-1
 339 129 l 1,50,51
 341 143 341 143 343.5 154.5 c 128,-1,52
 346 166 346 166 349 178 c 128,-1,53
 352 190 352 190 356.5 204.5 c 128,-1,54
 361 219 361 219 368 238 c 2,55,-1
 471 556 l 1,56,-1
 542 532 l 1,57,-1
 360 -8 l 1,58,-1
 290 15 l 1,0,1
EndSplineSet
EndChar

StartChar: uni0B77
Encoding: 2935 2935 100
Width: 650
Flags: W
LayerCount: 2
Fore
SplineSet
42 -11 m 1,0,1
 30 21 30 21 24 51 c 128,-1,2
 18 81 18 81 18 108 c 0,3,4
 18 154 18 154 33 186 c 128,-1,5
 48 218 48 218 76.5 235.5 c 128,-1,6
 105 253 105 253 144 253 c 0,7,8
 181 253 181 253 209 237 c 128,-1,9
 237 221 237 221 252.5 191.5 c 128,-1,10
 268 162 268 162 268 120 c 1,11,-1
 235 120 l 1,12,13
 235 163 235 163 250 192.5 c 128,-1,14
 265 222 265 222 292 237.5 c 128,-1,15
 319 253 319 253 354 253 c 0,16,17
 409 253 409 253 441 216.5 c 128,-1,18
 473 180 473 180 473 115 c 1,19,-1
 437 116 l 1,20,21
 443 149 443 149 450.5 177.5 c 128,-1,22
 458 206 458 206 468 237 c 2,23,-1
 572 556 l 1,24,-1
 643 532 l 1,25,-1
 461 -9 l 1,26,-1
 394 1 l 1,27,28
 401 23 401 23 406 50 c 128,-1,29
 411 77 411 77 411 102 c 0,30,31
 411 143 411 143 394 167.5 c 128,-1,32
 377 192 377 192 346 192 c 0,33,34
 322 192 322 192 303.5 176.5 c 128,-1,35
 285 161 285 161 285 130 c 2,36,-1
 285 0 l 1,37,-1
 218 0 l 1,38,-1
 218 128 l 2,39,40
 218 159 218 159 199.5 175.5 c 128,-1,41
 181 192 181 192 155 192 c 0,42,43
 124 192 124 192 106.5 168.5 c 128,-1,44
 89 145 89 145 89 106 c 0,45,46
 89 82 89 82 94 54.5 c 128,-1,47
 99 27 99 27 108 1 c 1,48,-1
 42 -11 l 1,49,-1
 42 -11 l 1,0,1
EndSplineSet
EndChar

StartChar: uni200C
Encoding: 8204 8204 102
Width: 0
Flags: W
LayerCount: 2
Fore
SplineSet
26 788 m 1,0,-1
 26 -166 l 1,1,-1
 -26 -166 l 1,2,-1
 -26 788 l 1,3,-1
 26 788 l 1,0,-1
EndSplineSet
EndChar

StartChar: uni200D
Encoding: 8205 8205 103
Width: 0
Flags: W
LayerCount: 2
Fore
SplineSet
109 503 m 1,0,-1
 26 585 l 1,1,-1
 26 -165 l 1,2,-1
 -26 -165 l 1,3,-1
 -26 585 l 1,4,-1
 -109 503 l 1,5,-1
 -146 539 l 1,6,-1
 -36 646 l 1,7,-1
 -146 752 l 1,8,-1
 -109 788 l 1,9,-1
 0 680 l 1,10,-1
 109 788 l 1,11,-1
 146 751 l 1,12,-1
 36 646 l 1,13,-1
 146 539 l 1,14,-1
 109 503 l 1,0,-1
EndSplineSet
EndChar

StartChar: uni25CC
Encoding: 9676 9676 104
Width: 800
GlyphClass: 2
Flags: W
AnchorPoint: "Anchor-13" 725 658 basechar 0
AnchorPoint: "Anchor-12" 417 659 basechar 0
AnchorPoint: "Anchor-11" 425 -205 basechar 0
AnchorPoint: "Anchor-10" 743 -4 basechar 0
AnchorPoint: "Anchor-9" 593 50 basechar 0
LayerCount: 2
Fore
SplineSet
429 509 m 0,0,1
 429 480 429 480 399 480 c 0,2,3
 371 480 371 480 371 509 c 0,4,5
 371 537 371 537 399 537 c 0,6,7
 429 537 429 537 429 509 c 0,0,1
196 335 m 0,8,9
 196 363 196 363 226 363 c 0,10,11
 254 363 254 363 254 335 c 0,12,13
 254 306 254 306 226 306 c 0,14,15
 196 306 196 306 196 335 c 0,8,9
242 210 m 256,16,17
 242 239 242 239 270 239 c 0,18,19
 299 239 299 239 299 210 c 256,20,21
 299 181 299 181 270 181 c 0,22,23
 242 181 242 181 242 210 c 256,16,17
242 460 m 0,24,25
 242 488 242 488 270 488 c 0,26,27
 299 488 299 488 299 460 c 0,28,29
 299 431 299 431 270 431 c 0,30,31
 242 431 242 431 242 460 c 0,24,25
371 160 m 256,32,33
 371 189 371 189 399 189 c 0,34,35
 429 189 429 189 429 160 c 256,36,37
 429 131 429 131 399 131 c 0,38,39
 371 131 371 131 371 160 c 256,32,33
500 210 m 256,40,41
 500 239 500 239 529 239 c 0,42,43
 559 239 559 239 559 210 c 256,44,45
 559 181 559 181 529 181 c 0,46,47
 500 181 500 181 500 210 c 256,40,41
500 460 m 0,48,49
 500 488 500 488 529 488 c 0,50,51
 559 488 559 488 559 460 c 0,52,53
 559 431 559 431 529 431 c 0,54,55
 500 431 500 431 500 460 c 0,48,49
545 335 m 0,56,57
 545 363 545 363 575 363 c 0,58,59
 604 363 604 363 604 335 c 0,60,61
 604 306 604 306 575 306 c 0,62,63
 545 306 545 306 545 335 c 0,56,57
EndSplineSet
EndChar

StartChar: karaoriya
Encoding: 65541 -1 105
Width: 752
GlyphClass: 2
Flags: W
AnchorPoint: "Anchor-5" 376 -312 basechar 0
AnchorPoint: "Anchor-1" 624 658 basechar 0
AnchorPoint: "Anchor-0" 367 658 basechar 0
LayerCount: 2
Fore
SplineSet
152 201 m 1,0,1
 91 247 91 247 61.5 299.5 c 128,-1,2
 32 352 32 352 32 411 c 0,3,4
 32 469 32 469 58 516 c 128,-1,5
 84 563 84 563 130 596.5 c 128,-1,6
 176 630 176 630 236.5 648 c 128,-1,7
 297 666 297 666 367 666 c 0,8,9
 434 666 434 666 497 649 c 128,-1,10
 560 632 560 632 610.5 598 c 128,-1,11
 661 564 661 564 690.5 513.5 c 128,-1,12
 720 463 720 463 720 395 c 0,13,14
 720 353 720 353 707 316.5 c 128,-1,15
 694 280 694 280 671 250 c 1,16,-1
 600 281 l 1,17,18
 619 304 619 304 629.5 333 c 128,-1,19
 640 362 640 362 640 395 c 0,20,21
 640 445 640 445 617 482 c 128,-1,22
 594 519 594 519 555 543.5 c 128,-1,23
 516 568 516 568 467 580.5 c 128,-1,24
 418 593 418 593 367 593 c 0,25,26
 294 593 294 593 235.5 570 c 128,-1,27
 177 547 177 547 142.5 504.5 c 128,-1,28
 108 462 108 462 108 403 c 0,29,30
 108 363 108 363 126 326.5 c 128,-1,31
 144 290 144 290 178 258 c 1,32,-1
 152 201 l 1,33,-1
 152 201 l 1,0,1
244 74 m 1,34,35
 184 74 184 74 149 113 c 128,-1,36
 114 152 114 152 114 214 c 256,37,38
 114 276 114 276 149.5 315.5 c 128,-1,39
 185 355 185 355 245 355 c 0,40,41
 304 355 304 355 338.5 316 c 128,-1,42
 373 277 373 277 373 215 c 256,43,44
 373 153 373 153 338 113.5 c 128,-1,45
 303 74 303 74 244 74 c 1,46,-1
 244 74 l 1,34,35
455 355 m 1,47,48
 491 355 491 355 514 343 c 128,-1,49
 537 331 537 331 550 311.5 c 128,-1,50
 563 292 563 292 568.5 268.5 c 128,-1,51
 574 245 574 245 574 222 c 2,52,-1
 574 -162 l 1,53,-1
 112 -162 l 1,54,-1
 112 -96 l 1,55,-1
 496 -96 l 1,56,-1
 496 217 l 2,57,58
 496 255 496 255 481 274.5 c 128,-1,59
 466 294 466 294 440 294 c 0,60,61
 412 294 412 294 397 274.5 c 128,-1,62
 382 255 382 255 382 217 c 2,63,-1
 382 0 l 1,64,-1
 304 0 l 1,65,-1
 312 148 l 1,66,-1
 336 222 l 1,67,68
 336 264 336 264 349 293.5 c 128,-1,69
 362 323 362 323 389 339 c 128,-1,70
 416 355 416 355 455 355 c 1,71,-1
 455 355 l 1,47,48
245 135 m 1,72,73
 276 135 276 135 294 158 c 128,-1,74
 312 181 312 181 312 215 c 0,75,76
 312 247 312 247 293.5 270 c 128,-1,77
 275 293 275 293 245 293 c 0,78,79
 214 293 214 293 196 270 c 128,-1,80
 178 247 178 247 178 214 c 256,81,82
 178 181 178 181 196 158 c 128,-1,83
 214 135 214 135 245 135 c 1,84,-1
 245 135 l 1,72,73
EndSplineSet
Substitution2: "'rclt' Required Contextual Alternates lookup 150 subtable" karaoriya.BRACKET.varAlt01
Ligature2: "'blws' Below Base Substitutions in Oriya2 lookup 13 subtable" uni0B15.base uni0B4D0B30
EndChar

StartChar: kharaoriya
Encoding: 65542 -1 106
Width: 742
GlyphClass: 2
Flags: W
AnchorPoint: "Anchor-5" 356 -312 basechar 0
AnchorPoint: "Anchor-1" 641 658 basechar 0
AnchorPoint: "Anchor-0" 376 658 basechar 0
LayerCount: 2
Fore
SplineSet
153 198 m 1,0,1
 97 236 97 236 64.5 290.5 c 128,-1,2
 32 345 32 345 32 411 c 0,3,4
 32 462 32 462 52 507.5 c 128,-1,5
 72 553 72 553 113.5 589 c 128,-1,6
 155 625 155 625 220 645.5 c 128,-1,7
 285 666 285 666 376 666 c 0,8,9
 384 666 384 666 390.5 666 c 128,-1,10
 397 666 397 666 404.5 666 c 128,-1,11
 412 666 412 666 421 666 c 1,12,-1
 429 589 l 1,13,14
 415 591 415 591 401.5 592 c 128,-1,15
 388 593 388 593 369 593 c 0,16,17
 297 593 297 593 247 577 c 128,-1,18
 197 561 197 561 166.5 534 c 128,-1,19
 136 507 136 507 122 473 c 128,-1,20
 108 439 108 439 108 403 c 0,21,22
 108 359 108 359 127.5 320.5 c 128,-1,23
 147 282 147 282 181 254 c 1,24,-1
 153 198 l 1,25,-1
 153 198 l 1,0,1
312 -8 m 1,26,27
 262 -8 262 -8 219.5 13 c 128,-1,28
 177 34 177 34 151.5 75 c 128,-1,29
 126 116 126 116 126 174 c 256,30,31
 126 232 126 232 151.5 272.5 c 128,-1,32
 177 313 177 313 219.5 334 c 128,-1,33
 262 355 262 355 312 355 c 0,34,35
 363 355 363 355 405.5 334 c 128,-1,36
 448 313 448 313 473.5 272.5 c 128,-1,37
 499 232 499 232 499 174 c 256,38,39
 499 116 499 116 473.5 75 c 128,-1,40
 448 34 448 34 405.5 13 c 128,-1,41
 363 -8 363 -8 312 -8 c 1,42,-1
 312 -8 l 1,26,27
313 57 m 1,43,44
 343 57 343 57 369 70 c 128,-1,45
 395 83 395 83 411 109.5 c 128,-1,46
 427 136 427 136 427 174 c 256,47,48
 427 212 427 212 411 237.5 c 128,-1,49
 395 263 395 263 369 276 c 128,-1,50
 343 289 343 289 313 289 c 256,51,52
 283 289 283 289 257 276 c 128,-1,53
 231 263 231 263 215 237.5 c 128,-1,54
 199 212 199 212 199 174 c 256,55,56
 199 136 199 136 215 109.5 c 128,-1,57
 231 83 231 83 257 70 c 128,-1,58
 283 57 283 57 313 57 c 1,59,-1
 313 57 l 1,43,44
518 370 m 1,60,61
 465 370 465 370 426 388.5 c 128,-1,62
 387 407 387 407 365.5 440.5 c 128,-1,63
 344 474 344 474 344 519 c 0,64,65
 344 559 344 559 362.5 599 c 128,-1,66
 381 639 381 639 421 666 c 1,67,-1
 457 626 l 1,68,69
 438 602 438 602 427 575.5 c 128,-1,70
 416 549 416 549 416 524 c 0,71,72
 416 486 416 486 442.5 460.5 c 128,-1,73
 469 435 469 435 522 435 c 0,74,75
 557 435 557 435 580.5 445 c 128,-1,76
 604 455 604 455 615 469 c 1,77,-1
 648 418 l 1,78,79
 635 403 635 403 616 392.5 c 128,-1,80
 597 382 597 382 572.5 376 c 128,-1,81
 548 370 548 370 518 370 c 1,82,-1
 518 370 l 1,60,61
680 658 m 1,83,-1
 680 -162 l 1,84,-1
 125 -162 l 1,85,-1
 125 -96 l 1,86,-1
 602 -96 l 1,87,-1
 602 658 l 1,88,-1
 680 658 l 1,83,-1
EndSplineSet
Ligature2: "'blws' Below Base Substitutions in Oriya2 lookup 13 subtable" uni0B16.base uni0B4D0B30
EndChar

StartChar: garaoriya
Encoding: 65543 -1 107
Width: 741
GlyphClass: 2
Flags: W
AnchorPoint: "Anchor-5" 355 -312 basechar 0
AnchorPoint: "Anchor-1" 640 658 basechar 0
AnchorPoint: "Anchor-0" 336 658 basechar 0
LayerCount: 2
Fore
SplineSet
311 -8 m 1,0,1
 256 -8 256 -8 214.5 15.5 c 128,-1,2
 173 39 173 39 149.5 80 c 128,-1,3
 126 121 126 121 126 174 c 256,4,5
 126 227 126 227 149.5 267.5 c 128,-1,6
 173 308 173 308 214.5 331.5 c 128,-1,7
 256 355 256 355 311 355 c 256,8,9
 366 355 366 355 408 331.5 c 128,-1,10
 450 308 450 308 474.5 267.5 c 128,-1,11
 499 227 499 227 499 174 c 256,12,13
 499 121 499 121 474.5 80 c 128,-1,14
 450 39 450 39 408 15.5 c 128,-1,15
 366 -8 366 -8 311 -8 c 1,16,-1
 311 -8 l 1,0,1
312 57 m 1,17,18
 363 57 363 57 395 89.5 c 128,-1,19
 427 122 427 122 427 174 c 0,20,21
 427 225 427 225 395.5 257 c 128,-1,22
 364 289 364 289 312 289 c 256,23,24
 260 289 260 289 229 257 c 128,-1,25
 198 225 198 225 198 174 c 0,26,27
 198 122 198 122 229.5 89.5 c 128,-1,28
 261 57 261 57 312 57 c 1,29,-1
 312 57 l 1,17,18
346 593 m 1,30,31
 285 593 285 593 230.5 571 c 128,-1,32
 176 549 176 549 142 506 c 128,-1,33
 108 463 108 463 108 401 c 0,34,35
 108 358 108 358 127 319 c 128,-1,36
 146 280 146 280 180 254 c 1,37,-1
 153 198 l 1,38,39
 91 238 91 238 61.5 293.5 c 128,-1,40
 32 349 32 349 32 410 c 0,41,42
 32 473 32 473 57.5 520.5 c 128,-1,43
 83 568 83 568 126 600.5 c 128,-1,44
 169 633 169 633 223 649.5 c 128,-1,45
 277 666 277 666 335 666 c 0,46,47
 398 666 398 666 458.5 646 c 128,-1,48
 519 626 519 626 567.5 586 c 128,-1,49
 616 546 616 546 644.5 486.5 c 128,-1,50
 673 427 673 427 673 347 c 1,51,-1
 611 344 l 1,52,53
 611 406 611 406 589 452.5 c 128,-1,54
 567 499 567 499 529 530.5 c 128,-1,55
 491 562 491 562 443.5 577.5 c 128,-1,56
 396 593 396 593 346 593 c 1,57,-1
 346 593 l 1,30,31
679 658 m 1,58,-1
 679 -162 l 1,59,-1
 125 -162 l 1,60,-1
 125 -96 l 1,61,-1
 601 -96 l 1,62,-1
 601 461 l 1,63,-1
 605 501 l 1,64,-1
 601 658 l 1,65,-1
 679 658 l 1,58,-1
EndSplineSet
Ligature2: "'blws' Below Base Substitutions in Oriya2 lookup 13 subtable" uni0B17.base uni0B4D0B30
EndChar

StartChar: gharaoriya
Encoding: 65544 -1 108
Width: 741
GlyphClass: 2
Flags: W
AnchorPoint: "Anchor-5" 355 -312 basechar 0
AnchorPoint: "Anchor-1" 640 658 basechar 0
AnchorPoint: "Anchor-0" 336 658 basechar 0
LayerCount: 2
Fore
SplineSet
125 -96 m 1,0,-1
 601 -96 l 1,1,-1
 605 56 l 1,2,-1
 601 83 l 1,3,-1
 601 470 l 1,4,-1
 605 509 l 1,5,-1
 601 658 l 1,6,-1
 679 658 l 1,7,-1
 679 -162 l 1,8,-1
 125 -162 l 1,9,-1
 125 -96 l 1,0,-1
283 -8 m 1,10,11
 238 -8 238 -8 202.5 13 c 128,-1,12
 167 34 167 34 146.5 71 c 128,-1,13
 126 108 126 108 126 156 c 0,14,15
 126 203 126 203 146 248.5 c 128,-1,16
 166 294 166 294 205.5 332 c 128,-1,17
 245 370 245 370 303 392 c 1,18,-1
 327 336 l 1,19,20
 283 318 283 318 254.5 288.5 c 128,-1,21
 226 259 226 259 212 226 c 128,-1,22
 198 193 198 193 198 161 c 0,23,24
 198 117 198 117 223.5 87 c 128,-1,25
 249 57 249 57 289 57 c 0,26,27
 327 57 327 57 354 83.5 c 128,-1,28
 381 110 381 110 381 164 c 2,29,-1
 381 234 l 1,30,-1
 445 234 l 1,31,-1
 445 164 l 2,32,33
 445 129 445 129 456.5 105 c 128,-1,34
 468 81 468 81 486.5 69 c 128,-1,35
 505 57 505 57 526 57 c 0,36,37
 556 57 556 57 578.5 80.5 c 128,-1,38
 601 104 601 104 601 149 c 1,39,-1
 632 149 l 1,40,41
 632 96 632 96 614.5 61 c 128,-1,42
 597 26 597 26 569.5 9 c 128,-1,43
 542 -8 542 -8 512 -8 c 0,44,45
 484 -8 484 -8 458 7 c 128,-1,46
 432 22 432 22 415.5 51.5 c 128,-1,47
 399 81 399 81 399 124 c 1,48,-1
 424 124 l 1,49,50
 424 81 424 81 404 51.5 c 128,-1,51
 384 22 384 22 352 7 c 128,-1,52
 320 -8 320 -8 283 -8 c 1,53,-1
 283 -8 l 1,10,11
153 198 m 1,54,55
 93 236 93 236 62.5 291.5 c 128,-1,56
 32 347 32 347 32 411 c 0,57,58
 32 486 32 486 71 543.5 c 128,-1,59
 110 601 110 601 177.5 633.5 c 128,-1,60
 245 666 245 666 332 666 c 0,61,62
 387 666 387 666 438 652.5 c 128,-1,63
 489 639 489 639 531.5 612.5 c 128,-1,64
 574 586 574 586 606 547 c 128,-1,65
 638 508 638 508 655.5 458 c 128,-1,66
 673 408 673 408 673 347 c 1,67,-1
 611 344 l 1,68,69
 611 406 611 406 589 452.5 c 128,-1,70
 567 499 567 499 529 530 c 128,-1,71
 491 561 491 561 442.5 577 c 128,-1,72
 394 593 394 593 342 593 c 0,73,74
 274 593 274 593 221 568 c 128,-1,75
 168 543 168 543 138 499.5 c 128,-1,76
 108 456 108 456 108 400 c 0,77,78
 108 357 108 357 127 319.5 c 128,-1,79
 146 282 146 282 180 254 c 1,80,-1
 153 198 l 1,81,-1
 153 198 l 1,54,55
EndSplineSet
Ligature2: "'blws' Below Base Substitutions in Oriya2 lookup 13 subtable" uni0B18.base uni0B4D0B30
EndChar

StartChar: ngaraoriya
Encoding: 65545 -1 109
Width: 750
GlyphClass: 2
Flags: W
AnchorPoint: "Anchor-5" 386 -312 basechar 0
AnchorPoint: "Anchor-1" 591 658 basechar 0
AnchorPoint: "Anchor-0" 347 658 basechar 0
LayerCount: 2
Fore
SplineSet
168 196 m 1,0,1
 99 234 99 234 65.5 293 c 128,-1,2
 32 352 32 352 32 416 c 0,3,4
 32 466 32 466 52.5 510.5 c 128,-1,5
 73 555 73 555 113 590.5 c 128,-1,6
 153 626 153 626 211.5 646 c 128,-1,7
 270 666 270 666 346 666 c 0,8,9
 406 666 406 666 456.5 653.5 c 128,-1,10
 507 641 507 641 550 616 c 1,11,-1
 519 557 l 1,12,13
 482 578 482 578 441.5 589.5 c 128,-1,14
 401 601 401 601 352 601 c 0,15,16
 272 601 272 601 217.5 573.5 c 128,-1,17
 163 546 163 546 135.5 502 c 128,-1,18
 108 458 108 458 108 408 c 0,19,20
 108 365 108 365 129 322 c 128,-1,21
 150 279 150 279 195 253 c 1,22,-1
 168 196 l 1,23,-1
 168 196 l 1,0,1
107 -96 m 1,24,-1
 554 -96 l 1,25,-1
 554 14 l 1,26,-1
 632 14 l 1,27,-1
 632 -162 l 1,28,-1
 107 -162 l 1,29,-1
 107 -96 l 1,24,-1
348 -8 m 1,30,31
 293 -8 293 -8 247.5 13.5 c 128,-1,32
 202 35 202 35 175.5 75 c 128,-1,33
 149 115 149 115 149 170 c 0,34,35
 149 207 149 207 163 246.5 c 128,-1,36
 177 286 177 286 208 325 c 128,-1,37
 239 364 239 364 291 398 c 1,38,-1
 326 352 l 1,39,40
 271 308 271 308 248 261.5 c 128,-1,41
 225 215 225 215 225 177 c 0,42,43
 225 122 225 122 263 91.5 c 128,-1,44
 301 61 301 61 353 61 c 0,45,46
 384 61 384 61 412 71.5 c 128,-1,47
 440 82 440 82 458 103.5 c 128,-1,48
 476 125 476 125 476 156 c 256,49,50
 476 187 476 187 456 214.5 c 128,-1,51
 436 242 436 242 393 263 c 1,52,-1
 444 310 l 1,53,54
 481 291 481 291 504 266.5 c 128,-1,55
 527 242 527 242 537.5 214.5 c 128,-1,56
 548 187 548 187 548 157 c 0,57,58
 548 104 548 104 519.5 67 c 128,-1,59
 491 30 491 30 445.5 11 c 128,-1,60
 400 -8 400 -8 348 -8 c 1,61,-1
 348 -8 l 1,30,31
327 227 m 1,62,-1
 479 386 l 1,63,-1
 520 345 l 1,64,-1
 368 186 l 1,65,-1
 327 227 l 1,62,-1
612 392 m 1,66,67
 557 392 557 392 519 426.5 c 128,-1,68
 481 461 481 461 481 524 c 0,69,70
 481 583 481 583 517 620.5 c 128,-1,71
 553 658 553 658 612 658 c 0,72,73
 654 658 654 658 682.5 640 c 128,-1,74
 711 622 711 622 725.5 591.5 c 128,-1,75
 740 561 740 561 740 525 c 0,76,77
 740 490 740 490 725.5 459.5 c 128,-1,78
 711 429 711 429 682.5 410.5 c 128,-1,79
 654 392 654 392 612 392 c 1,80,-1
 612 392 l 1,66,67
612 448 m 1,81,82
 645 448 645 448 661.5 472 c 128,-1,83
 678 496 678 496 678 525 c 0,84,85
 678 555 678 555 661.5 578.5 c 128,-1,86
 645 602 645 602 612 602 c 0,87,88
 584 602 584 602 563.5 582 c 128,-1,89
 543 562 543 562 543 524 c 0,90,91
 543 487 543 487 563.5 467.5 c 128,-1,92
 584 448 584 448 612 448 c 1,93,-1
 612 448 l 1,81,82
EndSplineSet
Substitution2: "'rclt' Required Contextual Alternates lookup 150 subtable" ngaraoriya.BRACKET.varAlt01
Ligature2: "'blws' Below Base Substitutions in Oriya2 lookup 13 subtable" uni0B19.base uni0B4D0B30
EndChar

StartChar: caraoriya
Encoding: 65546 -1 110
Width: 698
GlyphClass: 2
Flags: W
AnchorPoint: "Anchor-5" 349 -312 basechar 0
AnchorPoint: "Anchor-3" 297 0 basechar 0
AnchorPoint: "Anchor-1" 570 658 basechar 0
AnchorPoint: "Anchor-0" 343 658 basechar 0
LayerCount: 2
Fore
SplineSet
153 198 m 1,0,1
 89 240 89 240 60.5 295.5 c 128,-1,2
 32 351 32 351 32 413 c 0,3,4
 32 477 32 477 58 524.5 c 128,-1,5
 84 572 84 572 128.5 603.5 c 128,-1,6
 173 635 173 635 228.5 650.5 c 128,-1,7
 284 666 284 666 343 666 c 0,8,9
 403 666 403 666 461 649 c 128,-1,10
 519 632 519 632 565 598 c 128,-1,11
 611 564 611 564 638.5 513 c 128,-1,12
 666 462 666 462 666 394 c 0,13,14
 666 349 666 349 651.5 309 c 128,-1,15
 637 269 637 269 612 237 c 1,16,-1
 542 273 l 1,17,18
 563 299 563 299 574.5 329.5 c 128,-1,19
 586 360 586 360 586 395 c 0,20,21
 586 445 586 445 565.5 482 c 128,-1,22
 545 519 545 519 510.5 544 c 128,-1,23
 476 569 476 569 433 581 c 128,-1,24
 390 593 390 593 344 593 c 0,25,26
 297 593 297 593 254.5 580.5 c 128,-1,27
 212 568 212 568 179 543.5 c 128,-1,28
 146 519 146 519 127 483.5 c 128,-1,29
 108 448 108 448 108 403 c 0,30,31
 108 360 108 360 126 322.5 c 128,-1,32
 144 285 144 285 181 254 c 1,33,-1
 153 198 l 1,34,-1
 153 198 l 1,0,1
312 -8 m 1,35,36
 259 -8 259 -8 217 14.5 c 128,-1,37
 175 37 175 37 150.5 78 c 128,-1,38
 126 119 126 119 126 174 c 256,39,40
 126 229 126 229 150.5 269.5 c 128,-1,41
 175 310 175 310 217 332.5 c 128,-1,42
 259 355 259 355 312 355 c 0,43,44
 364 355 364 355 406 332.5 c 128,-1,45
 448 310 448 310 473.5 269.5 c 128,-1,46
 499 229 499 229 499 174 c 256,47,48
 499 119 499 119 473.5 78 c 128,-1,49
 448 37 448 37 406 14.5 c 128,-1,50
 364 -8 364 -8 312 -8 c 1,51,-1
 312 -8 l 1,35,36
312 57 m 1,52,53
 362 57 362 57 394.5 89 c 128,-1,54
 427 121 427 121 427 174 c 0,55,56
 427 226 427 226 394.5 257.5 c 128,-1,57
 362 289 362 289 312 289 c 256,58,59
 262 289 262 289 230 257.5 c 128,-1,60
 198 226 198 226 198 174 c 0,61,62
 198 121 198 121 230.5 89 c 128,-1,63
 263 57 263 57 312 57 c 1,64,-1
 312 57 l 1,52,53
106 -162 m 1,65,-1
 106 -96 l 1,66,-1
 553 -96 l 1,67,-1
 553 14 l 1,68,-1
 631 14 l 1,69,-1
 631 -162 l 1,70,-1
 106 -162 l 1,65,-1
EndSplineSet
Ligature2: "'blws' Below Base Substitutions in Oriya2 lookup 13 subtable" uni0B1A.base uni0B4D0B30
EndChar

